<svg width="146" height="48" viewBox="0 0 146 48" fill="none" xmlns="http://www.w3.org/2000/svg">
<path d="M24 3.97363L44.7846 14.9802V36.9933L24 47.9998L3.21539 36.9933V14.9802L24 3.97363Z" fill="#009ED8"/>
<path d="M14.3555 31.6875V12.0823C16.592 9.53186 18.6374 11.0196 19.3806 12.0823V21.2069L42.4834 0.0992135C45.6476 -0.49444 46.1391 1.72076 45.9892 2.90257L14.3555 31.6875Z" fill="#0ACF83"/>
<path d="M14.3555 41.7611V35.5538L19.9253 30.7197L23.2193 33.6311L14.3555 41.7611Z" fill="white"/>
<path d="M36.4584 41.4139L22.2012 28.3576L35.6765 15.888C39.5095 15.4925 39.5095 17.8472 39.0304 19.0741L28.9322 28.3576L40.7824 39.1222L36.4584 41.4139Z" fill="white"/>
<path d="M61.7979 31V16.4545H64.4329V23.1378H64.6104L70.2852 16.4545H73.5025L67.8775 22.9815L73.5522 31H70.3846L66.0451 24.7642L64.4329 26.6676V31H61.7979ZM77.201 31H74.3885L79.5092 16.4545H82.7621L87.8899 31H85.0774L81.1925 19.4375H81.0788L77.201 31ZM77.2933 25.2969H84.9638V27.4134H77.2933V25.2969ZM101.759 16.4545V31H99.4151L92.5614 21.0923H92.4407V31H89.8058V16.4545H92.1637L99.0103 26.3693H99.1381V16.4545H101.759ZM104.63 31V16.4545H110.198C111.249 16.4545 112.123 16.6203 112.819 16.9517C113.52 17.2784 114.043 17.7259 114.388 18.294C114.739 18.8622 114.914 19.5062 114.914 20.2259C114.914 20.8177 114.8 21.3243 114.573 21.7457C114.346 22.1624 114.04 22.5009 113.657 22.7614C113.273 23.0218 112.845 23.2088 112.371 23.3224V23.4645C112.888 23.4929 113.382 23.6515 113.856 23.9403C114.334 24.2244 114.725 24.6269 115.028 25.1477C115.331 25.6686 115.482 26.2983 115.482 27.0369C115.482 27.7898 115.3 28.4669 114.935 29.0682C114.571 29.6648 114.022 30.1359 113.288 30.4815C112.554 30.8272 111.63 31 110.518 31H104.63ZM107.265 28.7983H110.099C111.055 28.7983 111.744 28.616 112.165 28.2514C112.592 27.8821 112.805 27.4086 112.805 26.831C112.805 26.4001 112.698 26.0118 112.485 25.6662C112.272 25.3158 111.969 25.0412 111.576 24.8423C111.183 24.6387 110.714 24.5369 110.17 24.5369H107.265V28.7983ZM107.265 22.6406H109.871C110.326 22.6406 110.736 22.5578 111.1 22.392C111.465 22.2216 111.751 21.9825 111.96 21.6747C112.173 21.3622 112.279 20.9929 112.279 20.5668C112.279 20.0033 112.08 19.5393 111.683 19.1747C111.29 18.8101 110.705 18.6278 109.928 18.6278H107.265V22.6406ZM119.642 31H116.83L121.951 16.4545H125.203L130.331 31H127.519L123.634 19.4375H123.52L119.642 31ZM119.735 25.2969H127.405V27.4134H119.735V25.2969ZM144.2 16.4545V31H141.857L135.003 21.0923H134.882V31H132.247V16.4545H134.605L141.452 26.3693H141.58V16.4545H144.2Z" fill="#1570EF"/>
</svg>
