<svg width="24" height="24" viewBox="0 0 24 24" fill="none" xmlns="http://www.w3.org/2000/svg">
<path d="M11.0238 17.8549H9.64976C9.55821 17.8549 9.49707 17.916 9.49707 18.0076C9.49707 18.0991 9.55821 18.1602 9.64976 18.1602H11.0238C11.1154 18.1602 11.1765 18.0991 11.1765 18.0076C11.1765 17.9311 11.1003 17.8549 11.0238 17.8549Z" fill="#5D6679"/>
<path d="M19.6778 2.84641C19.228 2.39664 18.6305 2.1492 17.9939 2.1492L6.56664 2.14893C5.93011 2.14893 5.33285 2.39636 4.88276 2.84613C4.43298 3.29591 4.18555 3.89346 4.18555 4.53002V19.7678C4.18555 20.4044 4.43298 21.0016 4.88276 21.4517C5.33253 21.9015 5.93008 22.1489 6.56664 22.1489H17.9954C18.6319 22.1489 19.2291 21.9015 19.6792 21.4517C20.129 21.0019 20.3764 20.4044 20.3764 19.7678V4.53002C20.3753 3.89376 20.1279 3.29623 19.6781 2.84642L19.6778 2.84641ZM19.4234 19.7686C19.4234 20.5566 18.783 21.197 17.9951 21.197H6.56633C5.77836 21.197 5.13796 20.5566 5.13796 19.7686V4.53008C5.13796 3.74211 5.77839 3.10171 6.56633 3.10171H17.9951C18.783 3.10171 19.4234 3.74214 19.4234 4.53008V19.7686Z" fill="#5D6679"/>
<path d="M10.0389 10.86L8.47085 12.4284L7.85547 11.813C7.66982 11.6274 7.36756 11.6274 7.1822 11.813C6.99656 11.9987 6.99656 12.301 7.1822 12.4863L8.1349 13.439C8.2248 13.5289 8.34532 13.5787 8.47196 13.5787C8.59859 13.5787 8.71939 13.5289 8.80901 13.439L10.7141 11.5339C10.8998 11.3483 10.8998 11.046 10.7141 10.8606C10.5285 10.6747 10.2243 10.6736 10.0389 10.8601L10.0389 10.86Z" fill="#5D6679"/>
<path d="M10.0389 15.6211L8.47085 17.1892L7.85547 16.5738C7.66982 16.3882 7.36756 16.3882 7.1822 16.5738C6.99656 16.7595 6.99656 17.0617 7.1822 17.2471L8.1349 18.1998C8.2248 18.2897 8.34532 18.3395 8.47196 18.3395C8.59859 18.3395 8.71939 18.2897 8.80901 18.1998L10.7141 16.2947C10.8998 16.109 10.8998 15.8068 10.7141 15.6214C10.5285 15.4355 10.2243 15.4355 10.0389 15.6211L10.0389 15.6211Z" fill="#5D6679"/>
<path d="M10.0389 6.09758L8.47085 7.66568L7.85547 7.0503C7.66982 6.86466 7.36756 6.86466 7.1822 7.0503C6.99656 7.23595 6.99656 7.53821 7.1822 7.72357L8.1349 8.67627C8.2248 8.76617 8.34532 8.81599 8.47196 8.81599C8.59859 8.81599 8.71939 8.76617 8.80901 8.67627L10.7141 6.77116C10.8998 6.58551 10.8998 6.28325 10.7141 6.09789C10.5285 5.91224 10.2243 5.91224 10.0389 6.09761L10.0389 6.09758Z" fill="#5D6679"/>
<path d="M17.0428 11.673H12.2806C12.0173 11.673 11.8047 11.8864 11.8047 12.1489C11.8047 12.4114 12.0182 12.6248 12.2806 12.6248H17.0428C17.3061 12.6248 17.5187 12.4114 17.5187 12.1489C17.5187 11.8856 17.3052 11.673 17.0428 11.673Z" fill="#5D6679"/>
<path d="M17.0428 17.3873H12.2806C12.0173 17.3873 11.8047 17.6008 11.8047 17.8633C11.8047 18.1257 12.0182 18.3392 12.2806 18.3392H17.0428C17.3061 18.3392 17.5187 18.1257 17.5187 17.8633C17.5187 17.6008 17.3052 17.3873 17.0428 17.3873Z" fill="#5D6679"/>
<path d="M17.0428 6.91064H12.2806C12.0173 6.91064 11.8047 7.12412 11.8047 7.38658C11.8047 7.64904 12.0182 7.86252 12.2806 7.86252H17.0428C17.3061 7.86252 17.5187 7.64904 17.5187 7.38658C17.5187 7.12412 17.3052 6.91064 17.0428 6.91064Z" fill="#5D6679"/>
<path d="M11.0238 18.9232H9.64976C9.55821 18.9232 9.49707 18.9844 9.49707 19.0759C9.49707 19.1675 9.55821 19.2286 9.64976 19.2286H11.0238C11.1154 19.2286 11.1765 19.1675 11.1765 19.0759C11.1765 18.9844 11.1003 18.9232 11.0238 18.9232Z" fill="#5D6679"/>
</svg>
