<svg width="362" height="276" viewBox="0 0 362 276" fill="none" xmlns="http://www.w3.org/2000/svg">
<circle cx="200.5" cy="268.5" r="7.5" fill="#B6D3FA"/>
<path d="M44.3977 237.273H45.4545V243.511C45.4545 244.068 45.3523 244.541 45.1477 244.93C44.9432 245.32 44.6548 245.615 44.2827 245.817C43.9105 246.018 43.4716 246.119 42.9659 246.119C42.4886 246.119 42.0639 246.033 41.6918 245.859C41.3196 245.683 41.027 245.433 40.8139 245.109C40.6009 244.786 40.4943 244.401 40.4943 243.955H41.5341C41.5341 244.202 41.5952 244.418 41.7173 244.602C41.8423 244.784 42.0128 244.926 42.2287 245.028C42.4446 245.131 42.6903 245.182 42.9659 245.182C43.2699 245.182 43.5284 245.118 43.7415 244.99C43.9545 244.862 44.1165 244.675 44.2273 244.428C44.3409 244.178 44.3977 243.872 44.3977 243.511V237.273ZM49.3622 246.153C48.9474 246.153 48.571 246.075 48.233 245.919C47.8949 245.76 47.6264 245.531 47.4276 245.233C47.2287 244.932 47.1293 244.568 47.1293 244.142C47.1293 243.767 47.2031 243.463 47.3509 243.23C47.4986 242.994 47.696 242.81 47.9432 242.676C48.1903 242.543 48.4631 242.443 48.7614 242.378C49.0625 242.31 49.3651 242.256 49.669 242.216C50.0668 242.165 50.3892 242.126 50.6364 242.101C50.8864 242.072 51.0682 242.026 51.1818 241.96C51.2983 241.895 51.3565 241.781 51.3565 241.619V241.585C51.3565 241.165 51.2415 240.838 51.0114 240.605C50.7841 240.372 50.4389 240.256 49.9759 240.256C49.4957 240.256 49.1193 240.361 48.8466 240.571C48.5739 240.781 48.3821 241.006 48.2713 241.244L47.3168 240.903C47.4872 240.506 47.7145 240.196 47.9986 239.974C48.2855 239.75 48.598 239.594 48.9361 239.506C49.277 239.415 49.6122 239.369 49.9418 239.369C50.152 239.369 50.3935 239.395 50.6662 239.446C50.9418 239.494 51.2074 239.595 51.4631 239.749C51.7216 239.902 51.9361 240.134 52.1065 240.443C52.277 240.753 52.3622 241.168 52.3622 241.688V246H51.3565V245.114H51.3054C51.2372 245.256 51.1236 245.408 50.9645 245.57C50.8054 245.732 50.5938 245.869 50.3295 245.983C50.0653 246.097 49.7429 246.153 49.3622 246.153ZM49.5156 245.25C49.9134 245.25 50.2486 245.172 50.5213 245.016C50.7969 244.859 51.0043 244.658 51.1435 244.411C51.2855 244.163 51.3565 243.903 51.3565 243.631V242.71C51.3139 242.761 51.2202 242.808 51.0753 242.851C50.9332 242.891 50.7685 242.926 50.581 242.957C50.3963 242.986 50.2159 243.011 50.0398 243.034C49.8665 243.054 49.7259 243.071 49.6179 243.085C49.3565 243.119 49.1122 243.175 48.8849 243.251C48.6605 243.325 48.4787 243.437 48.3395 243.588C48.2031 243.736 48.1349 243.937 48.1349 244.193C48.1349 244.543 48.2642 244.807 48.5227 244.986C48.7841 245.162 49.1151 245.25 49.5156 245.25ZM55.2035 242.062V246H54.1978V239.455H55.1694V240.477H55.2546C55.408 240.145 55.641 239.878 55.9535 239.676C56.266 239.472 56.6694 239.369 57.1637 239.369C57.6069 239.369 57.9947 239.46 58.3271 239.642C58.6594 239.821 58.918 240.094 59.1026 240.46C59.2873 240.824 59.3796 241.284 59.3796 241.841V246H58.3739V241.909C58.3739 241.395 58.2404 240.994 57.9734 240.707C57.7063 240.418 57.3398 240.273 56.8739 240.273C56.5529 240.273 56.266 240.342 56.0131 240.482C55.7631 240.621 55.5657 240.824 55.4208 241.091C55.2759 241.358 55.2035 241.682 55.2035 242.062Z" fill="#858D9D"/>
<path d="M115.557 246V237.273H120.79V238.21H116.614V241.159H120.398V242.097H116.614V246H115.557ZM124.727 246.136C124.097 246.136 123.553 245.997 123.095 245.719C122.641 245.438 122.29 245.045 122.043 244.543C121.798 244.037 121.676 243.449 121.676 242.778C121.676 242.108 121.798 241.517 122.043 241.006C122.29 240.491 122.634 240.091 123.074 239.804C123.517 239.514 124.034 239.369 124.625 239.369C124.966 239.369 125.303 239.426 125.635 239.54C125.967 239.653 126.27 239.838 126.543 240.094C126.815 240.347 127.033 240.682 127.195 241.099C127.357 241.517 127.438 242.031 127.438 242.642V243.068H122.392V242.199H126.415C126.415 241.83 126.341 241.5 126.193 241.21C126.048 240.92 125.841 240.692 125.571 240.524C125.304 240.357 124.989 240.273 124.625 240.273C124.224 240.273 123.878 240.372 123.585 240.571C123.295 240.767 123.072 241.023 122.916 241.338C122.76 241.653 122.682 241.991 122.682 242.352V242.932C122.682 243.426 122.767 243.845 122.938 244.189C123.111 244.53 123.351 244.79 123.658 244.969C123.964 245.145 124.321 245.233 124.727 245.233C124.991 245.233 125.23 245.196 125.443 245.122C125.659 245.045 125.845 244.932 126.001 244.781C126.158 244.628 126.278 244.437 126.364 244.21L127.335 244.483C127.233 244.812 127.061 245.102 126.82 245.352C126.578 245.599 126.28 245.793 125.925 245.932C125.57 246.068 125.17 246.136 124.727 246.136ZM129.104 246V237.273H130.109V240.494H130.195C130.268 240.381 130.371 240.236 130.501 240.06C130.635 239.881 130.825 239.722 131.072 239.582C131.322 239.44 131.661 239.369 132.087 239.369C132.638 239.369 133.124 239.507 133.544 239.783C133.964 240.058 134.293 240.449 134.528 240.955C134.764 241.46 134.882 242.057 134.882 242.744C134.882 243.438 134.764 244.038 134.528 244.547C134.293 245.053 133.966 245.445 133.548 245.723C133.131 245.999 132.649 246.136 132.104 246.136C131.683 246.136 131.347 246.067 131.094 245.928C130.841 245.786 130.646 245.625 130.51 245.446C130.374 245.264 130.268 245.114 130.195 244.994H130.075V246H129.104ZM130.092 242.727C130.092 243.222 130.165 243.658 130.31 244.036C130.455 244.411 130.666 244.705 130.945 244.918C131.223 245.128 131.564 245.233 131.967 245.233C132.388 245.233 132.739 245.122 133.02 244.901C133.304 244.676 133.517 244.375 133.659 243.997C133.804 243.616 133.876 243.193 133.876 242.727C133.876 242.267 133.805 241.852 133.663 241.483C133.524 241.111 133.313 240.817 133.028 240.601C132.747 240.382 132.393 240.273 131.967 240.273C131.558 240.273 131.214 240.376 130.936 240.584C130.658 240.788 130.447 241.075 130.305 241.445C130.163 241.811 130.092 242.239 130.092 242.727Z" fill="#858D9D"/>
<path d="M190.057 237.273H191.318L194.284 244.517H194.386L197.352 237.273H198.614V246H197.625V239.369H197.54L194.812 246H193.858L191.131 239.369H191.045V246H190.057V237.273ZM202.522 246.153C202.108 246.153 201.731 246.075 201.393 245.919C201.055 245.76 200.787 245.531 200.588 245.233C200.389 244.932 200.289 244.568 200.289 244.142C200.289 243.767 200.363 243.463 200.511 243.23C200.659 242.994 200.856 242.81 201.103 242.676C201.35 242.543 201.623 242.443 201.922 242.378C202.223 242.31 202.525 242.256 202.829 242.216C203.227 242.165 203.549 242.126 203.797 242.101C204.047 242.072 204.228 242.026 204.342 241.96C204.458 241.895 204.517 241.781 204.517 241.619V241.585C204.517 241.165 204.402 240.838 204.172 240.605C203.944 240.372 203.599 240.256 203.136 240.256C202.656 240.256 202.279 240.361 202.007 240.571C201.734 240.781 201.542 241.006 201.431 241.244L200.477 240.903C200.647 240.506 200.875 240.196 201.159 239.974C201.446 239.75 201.758 239.594 202.096 239.506C202.437 239.415 202.772 239.369 203.102 239.369C203.312 239.369 203.554 239.395 203.826 239.446C204.102 239.494 204.368 239.595 204.623 239.749C204.882 239.902 205.096 240.134 205.267 240.443C205.437 240.753 205.522 241.168 205.522 241.688V246H204.517V245.114H204.466C204.397 245.256 204.284 245.408 204.125 245.57C203.966 245.732 203.754 245.869 203.49 245.983C203.225 246.097 202.903 246.153 202.522 246.153ZM202.676 245.25C203.074 245.25 203.409 245.172 203.681 245.016C203.957 244.859 204.164 244.658 204.304 244.411C204.446 244.163 204.517 243.903 204.517 243.631V242.71C204.474 242.761 204.38 242.808 204.235 242.851C204.093 242.891 203.929 242.926 203.741 242.957C203.556 242.986 203.376 243.011 203.2 243.034C203.027 243.054 202.886 243.071 202.778 243.085C202.517 243.119 202.272 243.175 202.045 243.251C201.821 243.325 201.639 243.437 201.5 243.588C201.363 243.736 201.295 243.937 201.295 244.193C201.295 244.543 201.424 244.807 201.683 244.986C201.944 245.162 202.275 245.25 202.676 245.25ZM207.358 246V239.455H208.33V240.443H208.398C208.517 240.119 208.733 239.857 209.045 239.655C209.358 239.453 209.71 239.352 210.102 239.352C210.176 239.352 210.268 239.354 210.379 239.357C210.49 239.359 210.574 239.364 210.631 239.369V240.392C210.597 240.384 210.518 240.371 210.396 240.354C210.277 240.334 210.151 240.324 210.017 240.324C209.699 240.324 209.415 240.391 209.165 240.524C208.918 240.655 208.722 240.837 208.577 241.07C208.435 241.3 208.364 241.562 208.364 241.858V246H207.358Z" fill="#858D9D"/>
<path d="M265.915 246H264.807L268.011 237.273H269.102L272.307 246H271.199L268.591 238.653H268.523L265.915 246ZM266.324 242.591H270.79V243.528H266.324V242.591ZM273.53 248.455V239.455H274.501V240.494H274.621C274.695 240.381 274.797 240.236 274.928 240.06C275.061 239.881 275.251 239.722 275.499 239.582C275.749 239.44 276.087 239.369 276.513 239.369C277.064 239.369 277.55 239.507 277.97 239.783C278.391 240.058 278.719 240.449 278.955 240.955C279.19 241.46 279.308 242.057 279.308 242.744C279.308 243.438 279.19 244.038 278.955 244.547C278.719 245.053 278.392 245.445 277.974 245.723C277.557 245.999 277.075 246.136 276.53 246.136C276.109 246.136 275.773 246.067 275.52 245.928C275.267 245.786 275.072 245.625 274.936 245.446C274.8 245.264 274.695 245.114 274.621 244.994H274.536V248.455H273.53ZM274.518 242.727C274.518 243.222 274.591 243.658 274.736 244.036C274.881 244.411 275.092 244.705 275.371 244.918C275.649 245.128 275.99 245.233 276.393 245.233C276.814 245.233 277.165 245.122 277.446 244.901C277.73 244.676 277.943 244.375 278.085 243.997C278.23 243.616 278.303 243.193 278.303 242.727C278.303 242.267 278.232 241.852 278.089 241.483C277.95 241.111 277.739 240.817 277.455 240.601C277.173 240.382 276.82 240.273 276.393 240.273C275.984 240.273 275.641 240.376 275.362 240.584C275.084 240.788 274.874 241.075 274.732 241.445C274.589 241.811 274.518 242.239 274.518 242.727ZM280.842 246V239.455H281.814V240.443H281.882C282.001 240.119 282.217 239.857 282.53 239.655C282.842 239.453 283.195 239.352 283.587 239.352C283.661 239.352 283.753 239.354 283.864 239.357C283.974 239.359 284.058 239.364 284.115 239.369V240.392C284.081 240.384 284.003 240.371 283.881 240.354C283.761 240.334 283.635 240.324 283.501 240.324C283.183 240.324 282.899 240.391 282.649 240.524C282.402 240.655 282.206 240.837 282.061 241.07C281.919 241.3 281.848 241.562 281.848 241.858V246H280.842Z" fill="#858D9D"/>
<path d="M339.057 237.273H340.318L343.284 244.517H343.386L346.352 237.273H347.614V246H346.625V239.369H346.54L343.812 246H342.858L340.131 239.369H340.045V246H339.057V237.273ZM351.522 246.153C351.108 246.153 350.731 246.075 350.393 245.919C350.055 245.76 349.787 245.531 349.588 245.233C349.389 244.932 349.289 244.568 349.289 244.142C349.289 243.767 349.363 243.463 349.511 243.23C349.659 242.994 349.856 242.81 350.103 242.676C350.35 242.543 350.623 242.443 350.922 242.378C351.223 242.31 351.525 242.256 351.829 242.216C352.227 242.165 352.549 242.126 352.797 242.101C353.047 242.072 353.228 242.026 353.342 241.96C353.458 241.895 353.517 241.781 353.517 241.619V241.585C353.517 241.165 353.402 240.838 353.172 240.605C352.944 240.372 352.599 240.256 352.136 240.256C351.656 240.256 351.279 240.361 351.007 240.571C350.734 240.781 350.542 241.006 350.431 241.244L349.477 240.903C349.647 240.506 349.875 240.196 350.159 239.974C350.446 239.75 350.758 239.594 351.096 239.506C351.437 239.415 351.772 239.369 352.102 239.369C352.312 239.369 352.554 239.395 352.826 239.446C353.102 239.494 353.368 239.595 353.623 239.749C353.882 239.902 354.096 240.134 354.267 240.443C354.437 240.753 354.522 241.168 354.522 241.688V246H353.517V245.114H353.466C353.397 245.256 353.284 245.408 353.125 245.57C352.966 245.732 352.754 245.869 352.49 245.983C352.225 246.097 351.903 246.153 351.522 246.153ZM351.676 245.25C352.074 245.25 352.409 245.172 352.681 245.016C352.957 244.859 353.164 244.658 353.304 244.411C353.446 244.163 353.517 243.903 353.517 243.631V242.71C353.474 242.761 353.38 242.808 353.235 242.851C353.093 242.891 352.929 242.926 352.741 242.957C352.556 242.986 352.376 243.011 352.2 243.034C352.027 243.054 351.886 243.071 351.778 243.085C351.517 243.119 351.272 243.175 351.045 243.251C350.821 243.325 350.639 243.437 350.5 243.588C350.363 243.736 350.295 243.937 350.295 244.193C350.295 244.543 350.424 244.807 350.683 244.986C350.944 245.162 351.275 245.25 351.676 245.25ZM356.771 248.455C356.601 248.455 356.449 248.44 356.315 248.412C356.182 248.386 356.089 248.361 356.038 248.335L356.294 247.449C356.538 247.511 356.754 247.534 356.942 247.517C357.129 247.5 357.295 247.416 357.44 247.266C357.588 247.118 357.723 246.878 357.845 246.545L358.033 246.034L355.612 239.455H356.703L358.51 244.67H358.578L360.385 239.455H361.476L358.697 246.955C358.572 247.293 358.418 247.572 358.233 247.794C358.048 248.018 357.834 248.185 357.589 248.293C357.348 248.401 357.075 248.455 356.771 248.455Z" fill="#858D9D"/>
<path d="M0.698864 50.2102V49.3409L4.53409 43.2727H5.16477V44.6193H4.73864L1.84091 49.2045V49.2727H7.00568V50.2102H0.698864ZM4.80682 52V49.946V49.5412V43.2727H5.8125V52H4.80682ZM11.4492 52.1193C10.8072 52.1193 10.2603 51.9446 9.80859 51.5952C9.35689 51.2429 9.01172 50.733 8.77308 50.0653C8.53445 49.3949 8.41513 48.5852 8.41513 47.6364C8.41513 46.6932 8.53445 45.8878 8.77308 45.2202C9.01456 44.5497 9.36115 44.0384 9.81286 43.6861C10.2674 43.331 10.8129 43.1534 11.4492 43.1534C12.0856 43.1534 12.6296 43.331 13.0813 43.6861C13.5359 44.0384 13.8825 44.5497 14.1211 45.2202C14.3626 45.8878 14.4833 46.6932 14.4833 47.6364C14.4833 48.5852 14.364 49.3949 14.1254 50.0653C13.8867 50.733 13.5415 51.2429 13.0898 51.5952C12.6381 51.9446 12.0913 52.1193 11.4492 52.1193ZM11.4492 51.1818C12.0856 51.1818 12.5799 50.875 12.9322 50.2614C13.2844 49.6477 13.4606 48.7727 13.4606 47.6364C13.4606 46.8807 13.3796 46.2372 13.2177 45.706C13.0586 45.1747 12.8285 44.7699 12.5273 44.4915C12.229 44.2131 11.8697 44.0739 11.4492 44.0739C10.8185 44.0739 10.3256 44.3849 9.97053 45.0071C9.61541 45.6264 9.43786 46.5028 9.43786 47.6364C9.43786 48.392 9.5174 49.0341 9.67649 49.5625C9.83558 50.0909 10.0643 50.4929 10.3626 50.7685C10.6637 51.044 11.0259 51.1818 11.4492 51.1818ZM18.9492 52.1193C18.3072 52.1193 17.7603 51.9446 17.3086 51.5952C16.8569 51.2429 16.5117 50.733 16.2731 50.0653C16.0344 49.3949 15.9151 48.5852 15.9151 47.6364C15.9151 46.6932 16.0344 45.8878 16.2731 45.2202C16.5146 44.5497 16.8612 44.0384 17.3129 43.6861C17.7674 43.331 18.3129 43.1534 18.9492 43.1534C19.5856 43.1534 20.1296 43.331 20.5813 43.6861C21.0359 44.0384 21.3825 44.5497 21.6211 45.2202C21.8626 45.8878 21.9833 46.6932 21.9833 47.6364C21.9833 48.5852 21.864 49.3949 21.6254 50.0653C21.3867 50.733 21.0415 51.2429 20.5898 51.5952C20.1381 51.9446 19.5913 52.1193 18.9492 52.1193ZM18.9492 51.1818C19.5856 51.1818 20.0799 50.875 20.4322 50.2614C20.7844 49.6477 20.9606 48.7727 20.9606 47.6364C20.9606 46.8807 20.8796 46.2372 20.7177 45.706C20.5586 45.1747 20.3285 44.7699 20.0273 44.4915C19.729 44.2131 19.3697 44.0739 18.9492 44.0739C18.3185 44.0739 17.8256 44.3849 17.4705 45.0071C17.1154 45.6264 16.9379 46.5028 16.9379 47.6364C16.9379 48.392 17.0174 49.0341 17.1765 49.5625C17.3356 50.0909 17.5643 50.4929 17.8626 50.7685C18.1637 51.044 18.5259 51.1818 18.9492 51.1818ZM26.4492 52.1193C25.8072 52.1193 25.2603 51.9446 24.8086 51.5952C24.3569 51.2429 24.0117 50.733 23.7731 50.0653C23.5344 49.3949 23.4151 48.5852 23.4151 47.6364C23.4151 46.6932 23.5344 45.8878 23.7731 45.2202C24.0146 44.5497 24.3612 44.0384 24.8129 43.6861C25.2674 43.331 25.8129 43.1534 26.4492 43.1534C27.0856 43.1534 27.6296 43.331 28.0813 43.6861C28.5359 44.0384 28.8825 44.5497 29.1211 45.2202C29.3626 45.8878 29.4833 46.6932 29.4833 47.6364C29.4833 48.5852 29.364 49.3949 29.1254 50.0653C28.8867 50.733 28.5415 51.2429 28.0898 51.5952C27.6381 51.9446 27.0913 52.1193 26.4492 52.1193ZM26.4492 51.1818C27.0856 51.1818 27.5799 50.875 27.9322 50.2614C28.2844 49.6477 28.4606 48.7727 28.4606 47.6364C28.4606 46.8807 28.3796 46.2372 28.2177 45.706C28.0586 45.1747 27.8285 44.7699 27.5273 44.4915C27.229 44.2131 26.8697 44.0739 26.4492 44.0739C25.8185 44.0739 25.3256 44.3849 24.9705 45.0071C24.6154 45.6264 24.4379 46.5028 24.4379 47.6364C24.4379 48.392 24.5174 49.0341 24.6765 49.5625C24.8356 50.0909 25.0643 50.4929 25.3626 50.7685C25.6637 51.044 26.0259 51.1818 26.4492 51.1818Z" fill="#858D9D"/>
<path d="M3.85227 96.1193C3.28977 96.1193 2.78835 96.0227 2.34801 95.8295C1.91051 95.6364 1.5625 95.3679 1.30398 95.0241C1.0483 94.6776 0.909091 94.2756 0.886364 93.8182H1.96023C1.98295 94.0994 2.07955 94.3423 2.25 94.5469C2.42045 94.7486 2.64347 94.9048 2.91903 95.0156C3.1946 95.1264 3.5 95.1818 3.83523 95.1818C4.21023 95.1818 4.54261 95.1165 4.83239 94.9858C5.12216 94.8551 5.34943 94.6733 5.5142 94.4403C5.67898 94.2074 5.76136 93.9375 5.76136 93.6307C5.76136 93.3097 5.68182 93.027 5.52273 92.7827C5.36364 92.5355 5.13068 92.3423 4.82386 92.2031C4.51705 92.0639 4.14205 91.9943 3.69886 91.9943H3V91.0568H3.69886C4.04545 91.0568 4.34943 90.9943 4.6108 90.8693C4.875 90.7443 5.08097 90.5682 5.22869 90.3409C5.37926 90.1136 5.45455 89.8466 5.45455 89.5398C5.45455 89.2443 5.3892 88.9872 5.25852 88.7685C5.12784 88.5497 4.94318 88.3793 4.70455 88.2571C4.46875 88.1349 4.19034 88.0739 3.86932 88.0739C3.56818 88.0739 3.28409 88.1293 3.01705 88.2401C2.75284 88.348 2.53693 88.5057 2.36932 88.7131C2.2017 88.9176 2.1108 89.1648 2.09659 89.4545H1.07386C1.09091 88.9972 1.22869 88.5966 1.48722 88.2528C1.74574 87.9062 2.08381 87.6364 2.50142 87.4432C2.92188 87.25 3.38352 87.1534 3.88636 87.1534C4.42614 87.1534 4.8892 87.2628 5.27557 87.4815C5.66193 87.6974 5.95881 87.983 6.16619 88.3381C6.37358 88.6932 6.47727 89.0767 6.47727 89.4886C6.47727 89.9801 6.34801 90.3991 6.08949 90.7457C5.83381 91.0923 5.4858 91.3324 5.04545 91.4659V91.5341C5.59659 91.625 6.02699 91.8594 6.33665 92.2372C6.64631 92.6122 6.80114 93.0767 6.80114 93.6307C6.80114 94.1051 6.67188 94.5312 6.41335 94.9091C6.15767 95.2841 5.80824 95.5795 5.36506 95.7955C4.92188 96.0114 4.41761 96.1193 3.85227 96.1193ZM11.3906 96.1193C10.7486 96.1193 10.2017 95.9446 9.75 95.5952C9.2983 95.2429 8.95313 94.733 8.71449 94.0653C8.47585 93.3949 8.35653 92.5852 8.35653 91.6364C8.35653 90.6932 8.47585 89.8878 8.71449 89.2202C8.95597 88.5497 9.30256 88.0384 9.75426 87.6861C10.2088 87.331 10.7543 87.1534 11.3906 87.1534C12.027 87.1534 12.571 87.331 13.0227 87.6861C13.4773 88.0384 13.8239 88.5497 14.0625 89.2202C14.304 89.8878 14.4247 90.6932 14.4247 91.6364C14.4247 92.5852 14.3054 93.3949 14.0668 94.0653C13.8281 94.733 13.483 95.2429 13.0312 95.5952C12.5795 95.9446 12.0327 96.1193 11.3906 96.1193ZM11.3906 95.1818C12.027 95.1818 12.5213 94.875 12.8736 94.2614C13.2259 93.6477 13.402 92.7727 13.402 91.6364C13.402 90.8807 13.321 90.2372 13.1591 89.706C13 89.1747 12.7699 88.7699 12.4688 88.4915C12.1705 88.2131 11.8111 88.0739 11.3906 88.0739C10.7599 88.0739 10.267 88.3849 9.91193 89.0071C9.55682 89.6264 9.37926 90.5028 9.37926 91.6364C9.37926 92.392 9.45881 93.0341 9.6179 93.5625C9.77699 94.0909 10.0057 94.4929 10.304 94.7685C10.6051 95.044 10.9673 95.1818 11.3906 95.1818ZM18.8906 96.1193C18.2486 96.1193 17.7017 95.9446 17.25 95.5952C16.7983 95.2429 16.4531 94.733 16.2145 94.0653C15.9759 93.3949 15.8565 92.5852 15.8565 91.6364C15.8565 90.6932 15.9759 89.8878 16.2145 89.2202C16.456 88.5497 16.8026 88.0384 17.2543 87.6861C17.7088 87.331 18.2543 87.1534 18.8906 87.1534C19.527 87.1534 20.071 87.331 20.5227 87.6861C20.9773 88.0384 21.3239 88.5497 21.5625 89.2202C21.804 89.8878 21.9247 90.6932 21.9247 91.6364C21.9247 92.5852 21.8054 93.3949 21.5668 94.0653C21.3281 94.733 20.983 95.2429 20.5312 95.5952C20.0795 95.9446 19.5327 96.1193 18.8906 96.1193ZM18.8906 95.1818C19.527 95.1818 20.0213 94.875 20.3736 94.2614C20.7259 93.6477 20.902 92.7727 20.902 91.6364C20.902 90.8807 20.821 90.2372 20.6591 89.706C20.5 89.1747 20.2699 88.7699 19.9688 88.4915C19.6705 88.2131 19.3111 88.0739 18.8906 88.0739C18.2599 88.0739 17.767 88.3849 17.4119 89.0071C17.0568 89.6264 16.8793 90.5028 16.8793 91.6364C16.8793 92.392 16.9588 93.0341 17.1179 93.5625C17.277 94.0909 17.5057 94.4929 17.804 94.7685C18.1051 95.044 18.4673 95.1818 18.8906 95.1818ZM26.3906 96.1193C25.7486 96.1193 25.2017 95.9446 24.75 95.5952C24.2983 95.2429 23.9531 94.733 23.7145 94.0653C23.4759 93.3949 23.3565 92.5852 23.3565 91.6364C23.3565 90.6932 23.4759 89.8878 23.7145 89.2202C23.956 88.5497 24.3026 88.0384 24.7543 87.6861C25.2088 87.331 25.7543 87.1534 26.3906 87.1534C27.027 87.1534 27.571 87.331 28.0227 87.6861C28.4773 88.0384 28.8239 88.5497 29.0625 89.2202C29.304 89.8878 29.4247 90.6932 29.4247 91.6364C29.4247 92.5852 29.3054 93.3949 29.0668 94.0653C28.8281 94.733 28.483 95.2429 28.0312 95.5952C27.5795 95.9446 27.0327 96.1193 26.3906 96.1193ZM26.3906 95.1818C27.027 95.1818 27.5213 94.875 27.8736 94.2614C28.2259 93.6477 28.402 92.7727 28.402 91.6364C28.402 90.8807 28.321 90.2372 28.1591 89.706C28 89.1747 27.7699 88.7699 27.4688 88.4915C27.1705 88.2131 26.8111 88.0739 26.3906 88.0739C25.7599 88.0739 25.267 88.3849 24.9119 89.0071C24.5568 89.6264 24.3793 90.5028 24.3793 91.6364C24.3793 92.392 24.4588 93.0341 24.6179 93.5625C24.777 94.0909 25.0057 94.4929 25.304 94.7685C25.6051 95.044 25.9673 95.1818 26.3906 95.1818Z" fill="#858D9D"/>
<path d="M0.903409 140V139.233L3.78409 136.08C4.12216 135.71 4.40057 135.389 4.61932 135.116C4.83807 134.841 5 134.582 5.10511 134.341C5.21307 134.097 5.26705 133.841 5.26705 133.574C5.26705 133.267 5.19318 133.001 5.04545 132.777C4.90057 132.553 4.7017 132.379 4.44886 132.257C4.19602 132.135 3.91193 132.074 3.59659 132.074C3.26136 132.074 2.96875 132.143 2.71875 132.283C2.47159 132.419 2.27983 132.611 2.14347 132.858C2.00994 133.105 1.94318 133.395 1.94318 133.727H0.9375C0.9375 133.216 1.0554 132.767 1.29119 132.381C1.52699 131.994 1.84801 131.693 2.25426 131.477C2.66335 131.261 3.12216 131.153 3.63068 131.153C4.14205 131.153 4.59517 131.261 4.99006 131.477C5.38494 131.693 5.6946 131.984 5.91903 132.351C6.14347 132.717 6.25568 133.125 6.25568 133.574C6.25568 133.895 6.19744 134.209 6.08097 134.516C5.96733 134.82 5.76847 135.159 5.48438 135.534C5.20312 135.906 4.8125 136.361 4.3125 136.898L2.35227 138.994V139.062H6.40909V140H0.903409ZM11.0156 140.119C10.3736 140.119 9.8267 139.945 9.375 139.595C8.9233 139.243 8.57813 138.733 8.33949 138.065C8.10085 137.395 7.98153 136.585 7.98153 135.636C7.98153 134.693 8.10085 133.888 8.33949 133.22C8.58097 132.55 8.92756 132.038 9.37926 131.686C9.83381 131.331 10.3793 131.153 11.0156 131.153C11.652 131.153 12.196 131.331 12.6477 131.686C13.1023 132.038 13.4489 132.55 13.6875 133.22C13.929 133.888 14.0497 134.693 14.0497 135.636C14.0497 136.585 13.9304 137.395 13.6918 138.065C13.4531 138.733 13.108 139.243 12.6562 139.595C12.2045 139.945 11.6577 140.119 11.0156 140.119ZM11.0156 139.182C11.652 139.182 12.1463 138.875 12.4986 138.261C12.8509 137.648 13.027 136.773 13.027 135.636C13.027 134.881 12.946 134.237 12.7841 133.706C12.625 133.175 12.3949 132.77 12.0938 132.491C11.7955 132.213 11.4361 132.074 11.0156 132.074C10.3849 132.074 9.89205 132.385 9.53693 133.007C9.18182 133.626 9.00426 134.503 9.00426 135.636C9.00426 136.392 9.08381 137.034 9.2429 137.562C9.40199 138.091 9.63068 138.493 9.92898 138.768C10.2301 139.044 10.5923 139.182 11.0156 139.182ZM18.5156 140.119C17.8736 140.119 17.3267 139.945 16.875 139.595C16.4233 139.243 16.0781 138.733 15.8395 138.065C15.6009 137.395 15.4815 136.585 15.4815 135.636C15.4815 134.693 15.6009 133.888 15.8395 133.22C16.081 132.55 16.4276 132.038 16.8793 131.686C17.3338 131.331 17.8793 131.153 18.5156 131.153C19.152 131.153 19.696 131.331 20.1477 131.686C20.6023 132.038 20.9489 132.55 21.1875 133.22C21.429 133.888 21.5497 134.693 21.5497 135.636C21.5497 136.585 21.4304 137.395 21.1918 138.065C20.9531 138.733 20.608 139.243 20.1562 139.595C19.7045 139.945 19.1577 140.119 18.5156 140.119ZM18.5156 139.182C19.152 139.182 19.6463 138.875 19.9986 138.261C20.3509 137.648 20.527 136.773 20.527 135.636C20.527 134.881 20.446 134.237 20.2841 133.706C20.125 133.175 19.8949 132.77 19.5938 132.491C19.2955 132.213 18.9361 132.074 18.5156 132.074C17.8849 132.074 17.392 132.385 17.0369 133.007C16.6818 133.626 16.5043 134.503 16.5043 135.636C16.5043 136.392 16.5838 137.034 16.7429 137.562C16.902 138.091 17.1307 138.493 17.429 138.768C17.7301 139.044 18.0923 139.182 18.5156 139.182ZM26.0156 140.119C25.3736 140.119 24.8267 139.945 24.375 139.595C23.9233 139.243 23.5781 138.733 23.3395 138.065C23.1009 137.395 22.9815 136.585 22.9815 135.636C22.9815 134.693 23.1009 133.888 23.3395 133.22C23.581 132.55 23.9276 132.038 24.3793 131.686C24.8338 131.331 25.3793 131.153 26.0156 131.153C26.652 131.153 27.196 131.331 27.6477 131.686C28.1023 132.038 28.4489 132.55 28.6875 133.22C28.929 133.888 29.0497 134.693 29.0497 135.636C29.0497 136.585 28.9304 137.395 28.6918 138.065C28.4531 138.733 28.108 139.243 27.6562 139.595C27.2045 139.945 26.6577 140.119 26.0156 140.119ZM26.0156 139.182C26.652 139.182 27.1463 138.875 27.4986 138.261C27.8509 137.648 28.027 136.773 28.027 135.636C28.027 134.881 27.946 134.237 27.7841 133.706C27.625 133.175 27.3949 132.77 27.0938 132.491C26.7955 132.213 26.4361 132.074 26.0156 132.074C25.3849 132.074 24.892 132.385 24.5369 133.007C24.1818 133.626 24.0043 134.503 24.0043 135.636C24.0043 136.392 24.0838 137.034 24.2429 137.562C24.402 138.091 24.6307 138.493 24.929 138.768C25.2301 139.044 25.5923 139.182 26.0156 139.182Z" fill="#858D9D"/>
<path d="M3.97159 175.273V184H2.91477V176.381H2.86364L0.732955 177.795V176.722L2.91477 175.273H3.97159ZM9.32812 184.119C8.68608 184.119 8.1392 183.945 7.6875 183.595C7.2358 183.243 6.89063 182.733 6.65199 182.065C6.41335 181.395 6.29403 180.585 6.29403 179.636C6.29403 178.693 6.41335 177.888 6.65199 177.22C6.89347 176.55 7.24006 176.038 7.69176 175.686C8.14631 175.331 8.69176 175.153 9.32812 175.153C9.96449 175.153 10.5085 175.331 10.9602 175.686C11.4148 176.038 11.7614 176.55 12 177.22C12.2415 177.888 12.3622 178.693 12.3622 179.636C12.3622 180.585 12.2429 181.395 12.0043 182.065C11.7656 182.733 11.4205 183.243 10.9688 183.595C10.517 183.945 9.97017 184.119 9.32812 184.119ZM9.32812 183.182C9.96449 183.182 10.4588 182.875 10.8111 182.261C11.1634 181.648 11.3395 180.773 11.3395 179.636C11.3395 178.881 11.2585 178.237 11.0966 177.706C10.9375 177.175 10.7074 176.77 10.4062 176.491C10.108 176.213 9.74858 176.074 9.32812 176.074C8.69744 176.074 8.20455 176.385 7.84943 177.007C7.49432 177.626 7.31676 178.503 7.31676 179.636C7.31676 180.392 7.39631 181.034 7.5554 181.562C7.71449 182.091 7.94318 182.493 8.24148 182.768C8.54261 183.044 8.90483 183.182 9.32812 183.182ZM16.8281 184.119C16.1861 184.119 15.6392 183.945 15.1875 183.595C14.7358 183.243 14.3906 182.733 14.152 182.065C13.9134 181.395 13.794 180.585 13.794 179.636C13.794 178.693 13.9134 177.888 14.152 177.22C14.3935 176.55 14.7401 176.038 15.1918 175.686C15.6463 175.331 16.1918 175.153 16.8281 175.153C17.4645 175.153 18.0085 175.331 18.4602 175.686C18.9148 176.038 19.2614 176.55 19.5 177.22C19.7415 177.888 19.8622 178.693 19.8622 179.636C19.8622 180.585 19.7429 181.395 19.5043 182.065C19.2656 182.733 18.9205 183.243 18.4688 183.595C18.017 183.945 17.4702 184.119 16.8281 184.119ZM16.8281 183.182C17.4645 183.182 17.9588 182.875 18.3111 182.261C18.6634 181.648 18.8395 180.773 18.8395 179.636C18.8395 178.881 18.7585 178.237 18.5966 177.706C18.4375 177.175 18.2074 176.77 17.9062 176.491C17.608 176.213 17.2486 176.074 16.8281 176.074C16.1974 176.074 15.7045 176.385 15.3494 177.007C14.9943 177.626 14.8168 178.503 14.8168 179.636C14.8168 180.392 14.8963 181.034 15.0554 181.562C15.2145 182.091 15.4432 182.493 15.7415 182.768C16.0426 183.044 16.4048 183.182 16.8281 183.182ZM24.3281 184.119C23.6861 184.119 23.1392 183.945 22.6875 183.595C22.2358 183.243 21.8906 182.733 21.652 182.065C21.4134 181.395 21.294 180.585 21.294 179.636C21.294 178.693 21.4134 177.888 21.652 177.22C21.8935 176.55 22.2401 176.038 22.6918 175.686C23.1463 175.331 23.6918 175.153 24.3281 175.153C24.9645 175.153 25.5085 175.331 25.9602 175.686C26.4148 176.038 26.7614 176.55 27 177.22C27.2415 177.888 27.3622 178.693 27.3622 179.636C27.3622 180.585 27.2429 181.395 27.0043 182.065C26.7656 182.733 26.4205 183.243 25.9688 183.595C25.517 183.945 24.9702 184.119 24.3281 184.119ZM24.3281 183.182C24.9645 183.182 25.4588 182.875 25.8111 182.261C26.1634 181.648 26.3395 180.773 26.3395 179.636C26.3395 178.881 26.2585 178.237 26.0966 177.706C25.9375 177.175 25.7074 176.77 25.4062 176.491C25.108 176.213 24.7486 176.074 24.3281 176.074C23.6974 176.074 23.2045 176.385 22.8494 177.007C22.4943 177.626 22.3168 178.503 22.3168 179.636C22.3168 180.392 22.3963 181.034 22.5554 181.562C22.7145 182.091 22.9432 182.493 23.2415 182.768C23.5426 183.044 23.9048 183.182 24.3281 183.182Z" fill="#858D9D"/>
<path d="M37.957 82.5995C46.8466 85.6066 65.4913 117.3 81.7845 129.279C102.151 144.254 104.011 93.5255 120.999 71.6977C137.986 49.8698 151.65 62.0505 168.962 65.5588C186.273 69.0672 191.42 61.0481 210.135 82.0983C237.448 112.819 242.383 102.172 252.144 86.8584C257.65 78.0595 272.571 50.5805 281.431 71.6977C292.506 98.0941 298.923 133.914 309.963 127.79C320.944 121.699 333.653 95.6305 333.653 95.6305C333.653 95.6305 338.004 80.9321 353.772 74.0791" stroke="#B6D3FA" stroke-width="2"/>
<path d="M312.574 141.194C328.897 129.249 345.293 119.046 352.815 129V226.772L37.0005 227V57C52.7967 63.8329 56.5354 64 66.8854 97.697C75.3984 125.413 69.048 147.552 80.0489 153.625C91.1087 159.731 104.221 140.301 115.316 113.982C124.192 92.9268 137.444 105.209 142.96 113.982C152.738 129.251 168.846 139.605 181.784 124.016C197.956 104.53 206.889 110.097 227.292 124.016C247.695 137.935 248.355 131.861 265.373 153.625C282.392 175.389 292.17 156.125 312.574 141.194Z" fill="url(#paint0_linear_2620_661)" fill-opacity="0.5"/>
<path d="M352.815 124.252C337.468 128.25 328.21 127.803 311.889 139.79C291.487 154.773 281.709 176.612 264.692 154.773C247.675 132.933 248.169 138.219 227.768 124.252C207.366 110.285 198.435 104.698 182.264 124.252C169.327 139.895 153.22 129.505 143.443 114.183C137.927 105.38 124.677 93.0549 115.802 114.183C104.708 140.594 91.596 160.091 80.5372 153.964C69.5372 147.869 77.0639 125.202 67.3748 97.8417C58.4209 72.5572 53.7523 62.8566 37.9575 56" stroke="#DBA362" stroke-width="2"/>
<circle cx="115.5" cy="268.5" r="7.5" fill="#DBA362"/>
<path d="M135.42 268.636C135.42 269.557 135.254 270.352 134.922 271.023C134.589 271.693 134.134 272.21 133.554 272.574C132.974 272.938 132.313 273.119 131.568 273.119C130.824 273.119 130.162 272.938 129.582 272.574C129.003 272.21 128.547 271.693 128.214 271.023C127.882 270.352 127.716 269.557 127.716 268.636C127.716 267.716 127.882 266.92 128.214 266.25C128.547 265.58 129.003 265.062 129.582 264.699C130.162 264.335 130.824 264.153 131.568 264.153C132.313 264.153 132.974 264.335 133.554 264.699C134.134 265.062 134.589 265.58 134.922 266.25C135.254 266.92 135.42 267.716 135.42 268.636ZM134.398 268.636C134.398 267.881 134.271 267.243 134.018 266.723C133.768 266.203 133.429 265.81 133 265.543C132.574 265.276 132.097 265.142 131.568 265.142C131.04 265.142 130.561 265.276 130.132 265.543C129.706 265.81 129.366 266.203 129.114 266.723C128.864 267.243 128.739 267.881 128.739 268.636C128.739 269.392 128.864 270.03 129.114 270.55C129.366 271.07 129.706 271.463 130.132 271.73C130.561 271.997 131.04 272.131 131.568 272.131C132.097 272.131 132.574 271.997 133 271.73C133.429 271.463 133.768 271.07 134.018 270.55C134.271 270.03 134.398 269.392 134.398 268.636ZM137.061 273V266.455H138.033V267.443H138.101C138.22 267.119 138.436 266.857 138.749 266.655C139.061 266.453 139.413 266.352 139.805 266.352C139.879 266.352 139.972 266.354 140.082 266.357C140.193 266.359 140.277 266.364 140.334 266.369V267.392C140.3 267.384 140.222 267.371 140.099 267.354C139.98 267.334 139.854 267.324 139.72 267.324C139.402 267.324 139.118 267.391 138.868 267.524C138.621 267.655 138.425 267.837 138.28 268.07C138.138 268.3 138.067 268.562 138.067 268.858V273H137.061ZM143.798 273.136C143.253 273.136 142.771 272.999 142.354 272.723C141.936 272.445 141.609 272.053 141.374 271.547C141.138 271.038 141.02 270.438 141.02 269.744C141.02 269.057 141.138 268.46 141.374 267.955C141.609 267.449 141.938 267.058 142.358 266.783C142.778 266.507 143.264 266.369 143.815 266.369C144.241 266.369 144.578 266.44 144.825 266.582C145.075 266.722 145.266 266.881 145.396 267.06C145.53 267.236 145.634 267.381 145.707 267.494H145.793V264.273H146.798V273H145.827V271.994H145.707C145.634 272.114 145.528 272.264 145.392 272.446C145.256 272.625 145.061 272.786 144.808 272.928C144.555 273.067 144.219 273.136 143.798 273.136ZM143.935 272.233C144.338 272.233 144.679 272.128 144.957 271.918C145.236 271.705 145.447 271.411 145.592 271.036C145.737 270.658 145.81 270.222 145.81 269.727C145.81 269.239 145.739 268.811 145.597 268.445C145.455 268.075 145.244 267.788 144.966 267.584C144.688 267.376 144.344 267.273 143.935 267.273C143.509 267.273 143.153 267.382 142.869 267.601C142.588 267.817 142.376 268.111 142.234 268.483C142.095 268.852 142.026 269.267 142.026 269.727C142.026 270.193 142.097 270.616 142.239 270.997C142.384 271.375 142.597 271.676 142.878 271.901C143.162 272.122 143.514 272.233 143.935 272.233ZM151.524 273.136C150.893 273.136 150.349 272.997 149.892 272.719C149.438 272.438 149.087 272.045 148.839 271.543C148.595 271.037 148.473 270.449 148.473 269.778C148.473 269.108 148.595 268.517 148.839 268.006C149.087 267.491 149.43 267.091 149.871 266.804C150.314 266.514 150.831 266.369 151.422 266.369C151.763 266.369 152.099 266.426 152.432 266.54C152.764 266.653 153.067 266.838 153.339 267.094C153.612 267.347 153.83 267.682 153.991 268.099C154.153 268.517 154.234 269.031 154.234 269.642V270.068H149.189V269.199H153.212C153.212 268.83 153.138 268.5 152.99 268.21C152.845 267.92 152.638 267.692 152.368 267.524C152.101 267.357 151.786 267.273 151.422 267.273C151.021 267.273 150.675 267.372 150.382 267.571C150.092 267.767 149.869 268.023 149.713 268.338C149.557 268.653 149.479 268.991 149.479 269.352V269.932C149.479 270.426 149.564 270.845 149.734 271.189C149.908 271.53 150.148 271.79 150.455 271.969C150.761 272.145 151.118 272.233 151.524 272.233C151.788 272.233 152.027 272.196 152.24 272.122C152.456 272.045 152.642 271.932 152.798 271.781C152.955 271.628 153.075 271.437 153.161 271.21L154.132 271.483C154.03 271.812 153.858 272.102 153.616 272.352C153.375 272.599 153.077 272.793 152.722 272.932C152.366 273.068 151.967 273.136 151.524 273.136ZM155.764 273V266.455H156.736V267.443H156.804C156.923 267.119 157.139 266.857 157.452 266.655C157.764 266.453 158.116 266.352 158.509 266.352C158.582 266.352 158.675 266.354 158.786 266.357C158.896 266.359 158.98 266.364 159.037 266.369V267.392C159.003 267.384 158.925 267.371 158.803 267.354C158.683 267.334 158.557 267.324 158.423 267.324C158.105 267.324 157.821 267.391 157.571 267.524C157.324 267.655 157.128 267.837 156.983 268.07C156.841 268.3 156.77 268.562 156.77 268.858V273H155.764ZM162.774 273.136C162.143 273.136 161.599 272.997 161.142 272.719C160.688 272.438 160.337 272.045 160.089 271.543C159.845 271.037 159.723 270.449 159.723 269.778C159.723 269.108 159.845 268.517 160.089 268.006C160.337 267.491 160.68 267.091 161.121 266.804C161.564 266.514 162.081 266.369 162.672 266.369C163.013 266.369 163.349 266.426 163.682 266.54C164.014 266.653 164.317 266.838 164.589 267.094C164.862 267.347 165.08 267.682 165.241 268.099C165.403 268.517 165.484 269.031 165.484 269.642V270.068H160.439V269.199H164.462C164.462 268.83 164.388 268.5 164.24 268.21C164.095 267.92 163.888 267.692 163.618 267.524C163.351 267.357 163.036 267.273 162.672 267.273C162.271 267.273 161.925 267.372 161.632 267.571C161.342 267.767 161.119 268.023 160.963 268.338C160.807 268.653 160.729 268.991 160.729 269.352V269.932C160.729 270.426 160.814 270.845 160.984 271.189C161.158 271.53 161.398 271.79 161.705 271.969C162.011 272.145 162.368 272.233 162.774 272.233C163.038 272.233 163.277 272.196 163.49 272.122C163.706 272.045 163.892 271.932 164.048 271.781C164.205 271.628 164.325 271.437 164.411 271.21L165.382 271.483C165.28 271.812 165.108 272.102 164.866 272.352C164.625 272.599 164.327 272.793 163.972 272.932C163.616 273.068 163.217 273.136 162.774 273.136ZM169.486 273.136C168.94 273.136 168.459 272.999 168.041 272.723C167.624 272.445 167.297 272.053 167.061 271.547C166.825 271.038 166.707 270.438 166.707 269.744C166.707 269.057 166.825 268.46 167.061 267.955C167.297 267.449 167.625 267.058 168.045 266.783C168.466 266.507 168.952 266.369 169.503 266.369C169.929 266.369 170.266 266.44 170.513 266.582C170.763 266.722 170.953 266.881 171.084 267.06C171.217 267.236 171.321 267.381 171.395 267.494H171.48V264.273H172.486V273H171.514V271.994H171.395C171.321 272.114 171.216 272.264 171.08 272.446C170.943 272.625 170.749 272.786 170.496 272.928C170.243 273.067 169.906 273.136 169.486 273.136ZM169.622 272.233C170.026 272.233 170.366 272.128 170.645 271.918C170.923 271.705 171.135 271.411 171.28 271.036C171.425 270.658 171.497 270.222 171.497 269.727C171.497 269.239 171.426 268.811 171.284 268.445C171.142 268.075 170.932 267.788 170.653 267.584C170.375 267.376 170.031 267.273 169.622 267.273C169.196 267.273 168.841 267.382 168.557 267.601C168.276 267.817 168.064 268.111 167.922 268.483C167.783 268.852 167.713 269.267 167.713 269.727C167.713 270.193 167.784 270.616 167.926 270.997C168.071 271.375 168.284 271.676 168.565 271.901C168.849 272.122 169.202 272.233 169.622 272.233Z" fill="#667085"/>
<path d="M215.75 273H213.057V264.273H215.869C216.716 264.273 217.44 264.447 218.043 264.797C218.645 265.143 219.107 265.642 219.428 266.293C219.749 266.94 219.909 267.716 219.909 268.619C219.909 269.528 219.747 270.311 219.423 270.967C219.099 271.621 218.628 272.124 218.009 272.476C217.389 272.825 216.636 273 215.75 273ZM214.114 272.062H215.682C216.403 272.062 217.001 271.923 217.476 271.645C217.95 271.366 218.304 270.97 218.537 270.456C218.77 269.942 218.886 269.33 218.886 268.619C218.886 267.915 218.771 267.308 218.541 266.8C218.311 266.288 217.967 265.896 217.51 265.624C217.053 265.348 216.483 265.21 215.801 265.21H214.114V272.062ZM224.29 273.136C223.659 273.136 223.115 272.997 222.658 272.719C222.203 272.438 221.852 272.045 221.605 271.543C221.361 271.037 221.239 270.449 221.239 269.778C221.239 269.108 221.361 268.517 221.605 268.006C221.852 267.491 222.196 267.091 222.636 266.804C223.08 266.514 223.597 266.369 224.188 266.369C224.528 266.369 224.865 266.426 225.197 266.54C225.53 266.653 225.832 266.838 226.105 267.094C226.378 267.347 226.595 267.682 226.757 268.099C226.919 268.517 227 269.031 227 269.642V270.068H221.955V269.199H225.977C225.977 268.83 225.903 268.5 225.756 268.21C225.611 267.92 225.403 267.692 225.134 267.524C224.866 267.357 224.551 267.273 224.188 267.273C223.787 267.273 223.44 267.372 223.148 267.571C222.858 267.767 222.635 268.023 222.479 268.338C222.322 268.653 222.244 268.991 222.244 269.352V269.932C222.244 270.426 222.33 270.845 222.5 271.189C222.673 271.53 222.913 271.79 223.22 271.969C223.527 272.145 223.884 272.233 224.29 272.233C224.554 272.233 224.793 272.196 225.006 272.122C225.222 272.045 225.408 271.932 225.564 271.781C225.72 271.628 225.841 271.437 225.926 271.21L226.898 271.483C226.795 271.812 226.624 272.102 226.382 272.352C226.141 272.599 225.842 272.793 225.487 272.932C225.132 273.068 224.733 273.136 224.29 273.136ZM229.536 264.273V273H228.53V264.273H229.536ZM231.377 273V266.455H232.383V273H231.377ZM231.889 265.364C231.693 265.364 231.524 265.297 231.382 265.163C231.243 265.03 231.173 264.869 231.173 264.682C231.173 264.494 231.243 264.334 231.382 264.2C231.524 264.067 231.693 264 231.889 264C232.085 264 232.252 264.067 232.392 264.2C232.534 264.334 232.605 264.494 232.605 264.682C232.605 264.869 232.534 265.03 232.392 265.163C232.252 265.297 232.085 265.364 231.889 265.364ZM239.577 266.455L237.157 273H236.134L233.714 266.455H234.805L236.612 271.67H236.68L238.487 266.455H239.577ZM243.415 273.136C242.784 273.136 242.24 272.997 241.783 272.719C241.328 272.438 240.977 272.045 240.73 271.543C240.486 271.037 240.364 270.449 240.364 269.778C240.364 269.108 240.486 268.517 240.73 268.006C240.977 267.491 241.321 267.091 241.761 266.804C242.205 266.514 242.722 266.369 243.312 266.369C243.653 266.369 243.99 266.426 244.322 266.54C244.655 266.653 244.957 266.838 245.23 267.094C245.503 267.347 245.72 267.682 245.882 268.099C246.044 268.517 246.125 269.031 246.125 269.642V270.068H241.08V269.199H245.102C245.102 268.83 245.028 268.5 244.881 268.21C244.736 267.92 244.528 267.692 244.259 267.524C243.991 267.357 243.676 267.273 243.312 267.273C242.912 267.273 242.565 267.372 242.273 267.571C241.983 267.767 241.76 268.023 241.604 268.338C241.447 268.653 241.369 268.991 241.369 269.352V269.932C241.369 270.426 241.455 270.845 241.625 271.189C241.798 271.53 242.038 271.79 242.345 271.969C242.652 272.145 243.009 272.233 243.415 272.233C243.679 272.233 243.918 272.196 244.131 272.122C244.347 272.045 244.533 271.932 244.689 271.781C244.845 271.628 244.966 271.437 245.051 271.21L246.023 271.483C245.92 271.812 245.749 272.102 245.507 272.352C245.266 272.599 244.967 272.793 244.612 272.932C244.257 273.068 243.858 273.136 243.415 273.136ZM247.655 273V266.455H248.626V267.443H248.695C248.814 267.119 249.03 266.857 249.342 266.655C249.655 266.453 250.007 266.352 250.399 266.352C250.473 266.352 250.565 266.354 250.676 266.357C250.787 266.359 250.871 266.364 250.928 266.369V267.392C250.893 267.384 250.815 267.371 250.693 267.354C250.574 267.334 250.447 267.324 250.314 267.324C249.996 267.324 249.712 267.391 249.462 267.524C249.214 267.655 249.018 267.837 248.874 268.07C248.732 268.3 248.661 268.562 248.661 268.858V273H247.655ZM254.665 273.136C254.034 273.136 253.49 272.997 253.033 272.719C252.578 272.438 252.227 272.045 251.98 271.543C251.736 271.037 251.614 270.449 251.614 269.778C251.614 269.108 251.736 268.517 251.98 268.006C252.227 267.491 252.571 267.091 253.011 266.804C253.455 266.514 253.972 266.369 254.562 266.369C254.903 266.369 255.24 266.426 255.572 266.54C255.905 266.653 256.207 266.838 256.48 267.094C256.753 267.347 256.97 267.682 257.132 268.099C257.294 268.517 257.375 269.031 257.375 269.642V270.068H252.33V269.199H256.352C256.352 268.83 256.278 268.5 256.131 268.21C255.986 267.92 255.778 267.692 255.509 267.524C255.241 267.357 254.926 267.273 254.562 267.273C254.162 267.273 253.815 267.372 253.523 267.571C253.233 267.767 253.01 268.023 252.854 268.338C252.697 268.653 252.619 268.991 252.619 269.352V269.932C252.619 270.426 252.705 270.845 252.875 271.189C253.048 271.53 253.288 271.79 253.595 271.969C253.902 272.145 254.259 272.233 254.665 272.233C254.929 272.233 255.168 272.196 255.381 272.122C255.597 272.045 255.783 271.932 255.939 271.781C256.095 271.628 256.216 271.437 256.301 271.21L257.273 271.483C257.17 271.812 256.999 272.102 256.757 272.352C256.516 272.599 256.217 272.793 255.862 272.932C255.507 273.068 255.108 273.136 254.665 273.136ZM261.376 273.136C260.831 273.136 260.349 272.999 259.932 272.723C259.514 272.445 259.188 272.053 258.952 271.547C258.716 271.038 258.598 270.438 258.598 269.744C258.598 269.057 258.716 268.46 258.952 267.955C259.188 267.449 259.516 267.058 259.936 266.783C260.357 266.507 260.842 266.369 261.393 266.369C261.82 266.369 262.156 266.44 262.403 266.582C262.653 266.722 262.844 266.881 262.974 267.06C263.108 267.236 263.212 267.381 263.286 267.494H263.371V264.273H264.376V273H263.405V271.994H263.286C263.212 272.114 263.107 272.264 262.97 272.446C262.834 272.625 262.639 272.786 262.386 272.928C262.134 273.067 261.797 273.136 261.376 273.136ZM261.513 272.233C261.916 272.233 262.257 272.128 262.536 271.918C262.814 271.705 263.026 271.411 263.17 271.036C263.315 270.658 263.388 270.222 263.388 269.727C263.388 269.239 263.317 268.811 263.175 268.445C263.033 268.075 262.822 267.788 262.544 267.584C262.266 267.376 261.922 267.273 261.513 267.273C261.087 267.273 260.732 267.382 260.447 267.601C260.166 267.817 259.955 268.111 259.812 268.483C259.673 268.852 259.604 269.267 259.604 269.727C259.604 270.193 259.675 270.616 259.817 270.997C259.962 271.375 260.175 271.676 260.456 271.901C260.74 272.122 261.092 272.233 261.513 272.233Z" fill="#667085"/>
<defs>
<linearGradient id="paint0_linear_2620_661" x1="195.273" y1="115.938" x2="195.886" y2="226.77" gradientUnits="userSpaceOnUse">
<stop stop-color="#DF9B2D" stop-opacity="0.13"/>
<stop offset="1" stop-color="#C5A674" stop-opacity="0.13"/>
</linearGradient>
</defs>
</svg>
