<svg width="593" height="263" viewBox="0 0 593 263" fill="none" xmlns="http://www.w3.org/2000/svg">
<path d="M107.001 209L97.0008 209.012L96.7837 28.012C96.7804 25.2506 99.0163 23.0093 101.778 23.006C104.539 23.0027 106.78 25.2386 106.784 28L107.001 209Z" fill="url(#paint0_linear_2615_646)"/>
<path d="M122.001 209.012L112.001 208.994L112.288 50.9939C112.293 48.2325 114.536 45.998 117.298 46.0031C120.059 46.0081 122.293 48.2507 122.288 51.0122L122.001 209.012Z" fill="url(#paint1_linear_2615_646)"/>
<path d="M157.535 209L147.535 209.012L147.304 16.0119C147.3 13.2505 149.536 11.0092 152.298 11.0059C155.059 11.0026 157.3 13.2385 157.304 15.9999L157.535 209Z" fill="url(#paint2_linear_2615_646)"/>
<path d="M172.544 204.012C172.539 206.773 170.296 209.008 167.535 209.003V209.003C164.774 208.998 162.539 206.755 162.544 203.994L162.812 56.9938C162.817 54.2324 165.059 51.9979 167.821 52.0029C170.582 52.008 172.817 54.2506 172.812 57.012L172.544 204.012Z" fill="url(#paint3_linear_2615_646)"/>
<path d="M207.988 204C207.991 206.761 205.755 209.002 202.994 209.006V209.006C200.232 209.009 197.991 206.773 197.988 204.012L197.827 70.0119C197.824 67.2504 200.059 65.0092 202.821 65.0059C205.582 65.0026 207.824 67.2384 207.827 69.9999L207.988 204Z" fill="url(#paint4_linear_2615_646)"/>
<path d="M222.994 209.012L212.994 208.994L213.307 36.9938C213.312 34.2324 215.554 31.9979 218.316 32.003C221.077 32.008 223.312 34.2506 223.307 37.0121L222.994 209.012Z" fill="url(#paint5_linear_2615_646)"/>
<path d="M258.45 209L248.45 209.012L248.322 102.012C248.318 99.2504 250.554 97.0092 253.316 97.0059C256.077 97.0025 258.318 99.2384 258.322 102L258.45 209Z" fill="url(#paint6_linear_2615_646)"/>
<path d="M273.45 209.012L263.45 208.994L263.694 74.9938C263.699 72.2324 265.942 69.9979 268.703 70.0029C271.465 70.0079 273.699 72.2506 273.694 75.012L273.45 209.012Z" fill="url(#paint7_linear_2615_646)"/>
<path d="M308.87 209L298.87 209.012L298.709 75.0119C298.706 72.2504 300.942 70.0092 303.703 70.0059C306.465 70.0026 308.706 72.2384 308.709 74.9999L308.87 209Z" fill="url(#paint8_linear_2615_646)"/>
<path d="M322.87 209.012L312.87 208.994L313.136 62.9938C313.141 60.2324 315.383 57.9979 318.145 58.0029C320.906 58.0079 323.141 60.2506 323.136 63.012L322.87 209.012Z" fill="url(#paint9_linear_2615_646)"/>
<path d="M358.238 209L348.238 209.012L348.151 136.012C348.148 133.25 350.383 131.009 353.145 131.006C355.906 131.003 358.148 133.238 358.151 136L358.238 209Z" fill="url(#paint10_linear_2615_646)"/>
<path d="M372.238 209.012L362.238 208.994L362.466 83.9938C362.471 81.2324 364.714 78.9979 367.475 79.0029C370.236 79.0079 372.471 81.2506 372.466 84.012L372.238 209.012Z" fill="url(#paint11_linear_2615_646)"/>
<path d="M407.698 209L397.698 209.012L397.481 28.0119C397.478 25.2505 399.714 23.0092 402.475 23.0059C405.236 23.0026 407.478 25.2385 407.481 27.9999L407.698 209Z" fill="url(#paint12_linear_2615_646)"/>
<path d="M421.698 209.012L411.698 208.994L411.986 50.9938C411.991 48.2324 414.233 45.9979 416.995 46.0029C419.756 46.008 421.991 48.2506 421.986 51.012L421.698 209.012Z" fill="url(#paint13_linear_2615_646)"/>
<path d="M457.168 209L447.168 209.012L447.001 70.0119C446.998 67.2504 449.234 65.0092 451.995 65.0059C454.756 65.0026 456.998 67.2384 457.001 69.9999L457.168 209Z" fill="url(#paint14_linear_2615_646)"/>
<path d="M471.177 204.012C471.172 206.773 468.929 209.008 466.168 209.003V209.003C463.406 208.998 461.172 206.755 461.177 203.994L461.402 79.9938C461.408 77.2324 463.65 74.9979 466.412 75.0029C469.173 75.0079 471.408 77.2506 471.402 80.012L471.177 204.012Z" fill="url(#paint15_linear_2615_646)"/>
<path d="M506.578 204C506.582 206.761 504.346 209.002 501.584 209.006V209.006C498.823 209.009 496.582 206.773 496.578 204.012L496.418 70.0119C496.414 67.2504 498.65 65.0092 501.412 65.0059C504.173 65.0026 506.414 67.2384 506.418 69.9999L506.578 204Z" fill="url(#paint16_linear_2615_646)"/>
<path d="M520.584 209.012L510.584 208.994L510.828 74.9938C510.833 72.2324 513.076 69.9979 515.837 70.0029C518.599 70.0079 520.833 72.2506 520.828 75.012L520.584 209.012Z" fill="url(#paint17_linear_2615_646)"/>
<path d="M555.972 209L545.972 209.012L545.843 102.012C545.84 99.2504 548.076 97.0092 550.837 97.0059C553.599 97.0025 555.84 99.2384 555.843 102L555.972 209Z" fill="url(#paint18_linear_2615_646)"/>
<path d="M569.972 209.012L559.972 208.994L560.216 74.9938C560.221 72.2324 562.463 69.9979 565.225 70.0029C567.986 70.0079 570.221 72.2506 570.216 75.012L569.972 209.012Z" fill="url(#paint19_linear_2615_646)"/>
<path d="M3.80149 9.11923C3.44354 9.11355 3.08558 9.04537 2.72763 8.91468C2.36967 8.784 2.04297 8.56383 1.74751 8.25417C1.45206 7.94167 1.21484 7.5198 1.03587 6.98855C0.856889 6.45446 0.767401 5.784 0.767401 4.97718C0.767401 4.20446 0.839844 3.5198 0.98473 2.92321C1.12962 2.32377 1.33984 1.81951 1.61541 1.41042C1.89098 0.998491 2.22337 0.685991 2.61257 0.472922C3.00462 0.259854 3.44638 0.15332 3.93786 0.15332C4.42649 0.15332 4.86115 0.251332 5.24183 0.447355C5.62536 0.640536 5.93786 0.910423 6.17933 1.25701C6.42081 1.6036 6.57706 2.00275 6.64808 2.45446H5.60831C5.51172 2.06241 5.32422 1.73713 5.04581 1.4786C4.7674 1.22008 4.39808 1.09082 3.93786 1.09082C3.26172 1.09082 2.72905 1.38485 2.33984 1.97292C1.95348 2.56099 1.75888 3.38628 1.75604 4.44878H1.82422C1.98331 4.2073 2.17223 4.00133 2.39098 3.83088C2.61257 3.65758 2.85689 3.52406 3.12393 3.43031C3.39098 3.33656 3.67365 3.28968 3.97195 3.28968C4.47195 3.28968 4.92933 3.41468 5.34411 3.66468C5.75888 3.91184 6.09126 4.25417 6.34126 4.69167C6.59126 5.12633 6.71626 5.62491 6.71626 6.18741C6.71626 6.72718 6.59553 7.2215 6.35405 7.67037C6.11257 8.11639 5.77308 8.4715 5.33558 8.73571C4.90092 8.99707 4.38956 9.12491 3.80149 9.11923ZM3.80149 8.18173C4.15945 8.18173 4.48047 8.09224 4.76456 7.91326C5.05149 7.73429 5.27734 7.49423 5.44212 7.19309C5.60973 6.89196 5.69354 6.55673 5.69354 6.18741C5.69354 5.82662 5.61257 5.49849 5.45064 5.20304C5.29155 4.90474 5.07138 4.66752 4.79013 4.49139C4.51172 4.31525 4.19354 4.22718 3.83558 4.22718C3.5657 4.22718 3.31428 4.28116 3.08132 4.38912C2.84837 4.49423 2.64382 4.63912 2.46768 4.82378C2.29439 5.00843 2.15803 5.22008 2.05859 5.45872C1.95916 5.69451 1.90945 5.94309 1.90945 6.20446C1.90945 6.55105 1.99041 6.87491 2.15234 7.17605C2.31712 7.47718 2.54155 7.72008 2.82564 7.90474C3.11257 8.0894 3.43786 8.18173 3.80149 8.18173Z" fill="#667085"/>
<path d="M11.2386 9.11923C10.5966 9.11923 10.0497 8.94451 9.59801 8.59508C9.14631 8.24281 8.80114 7.73287 8.5625 7.06525C8.32386 6.3948 8.20455 5.58514 8.20455 4.63628C8.20455 3.69309 8.32386 2.8877 8.5625 2.22008C8.80398 1.54963 9.15057 1.03826 9.60227 0.685991C10.0568 0.330877 10.6023 0.15332 11.2386 0.15332C11.875 0.15332 12.419 0.330877 12.8707 0.685991C13.3253 1.03826 13.6719 1.54963 13.9105 2.22008C14.152 2.8877 14.2727 3.69309 14.2727 4.63628C14.2727 5.58514 14.1534 6.3948 13.9148 7.06525C13.6761 7.73287 13.331 8.24281 12.8793 8.59508C12.4276 8.94451 11.8807 9.11923 11.2386 9.11923ZM11.2386 8.18173C11.875 8.18173 12.3693 7.87491 12.7216 7.26128C13.0739 6.64764 13.25 5.77264 13.25 4.63628C13.25 3.88059 13.169 3.23713 13.0071 2.70588C12.848 2.17463 12.6179 1.7698 12.3168 1.49139C12.0185 1.21298 11.6591 1.07378 11.2386 1.07378C10.608 1.07378 10.1151 1.38485 9.75994 2.00701C9.40483 2.62633 9.22727 3.50275 9.22727 4.63628C9.22727 5.39196 9.30682 6.034 9.46591 6.56241C9.625 7.09082 9.85369 7.49281 10.152 7.76838C10.4531 8.04395 10.8153 8.18173 11.2386 8.18173Z" fill="#667085"/>
<path d="M17.1044 7.80673L17.0362 8.26696C16.9879 8.59082 16.9141 8.93741 16.8146 9.30673C16.718 9.67605 16.6172 10.0241 16.5121 10.3508C16.407 10.6775 16.3203 10.9374 16.2521 11.1306H15.4851C15.522 10.9488 15.5703 10.7087 15.63 10.4104C15.6896 10.1121 15.7493 9.77832 15.8089 9.409C15.8714 9.04253 15.9226 8.66753 15.9624 8.284L16.0135 7.80673H17.1044Z" fill="#667085"/>
<path d="M21.4925 9.11923C20.8505 9.11923 20.3036 8.94451 19.8519 8.59508C19.4002 8.24281 19.055 7.73287 18.8164 7.06525C18.5778 6.3948 18.4585 5.58514 18.4585 4.63628C18.4585 3.69309 18.5778 2.8877 18.8164 2.22008C19.0579 1.54963 19.4045 1.03826 19.8562 0.685991C20.3107 0.330877 20.8562 0.15332 21.4925 0.15332C22.1289 0.15332 22.6729 0.330877 23.1246 0.685991C23.5792 1.03826 23.9258 1.54963 24.1644 2.22008C24.4059 2.8877 24.5266 3.69309 24.5266 4.63628C24.5266 5.58514 24.4073 6.3948 24.1687 7.06525C23.93 7.73287 23.5849 8.24281 23.1332 8.59508C22.6815 8.94451 22.1346 9.11923 21.4925 9.11923ZM21.4925 8.18173C22.1289 8.18173 22.6232 7.87491 22.9755 7.26128C23.3278 6.64764 23.5039 5.77264 23.5039 4.63628C23.5039 3.88059 23.4229 3.23713 23.261 2.70588C23.1019 2.17463 22.8718 1.7698 22.5707 1.49139C22.2724 1.21298 21.913 1.07378 21.4925 1.07378C20.8619 1.07378 20.369 1.38485 20.0138 2.00701C19.6587 2.62633 19.4812 3.50275 19.4812 4.63628C19.4812 5.39196 19.5607 6.034 19.7198 6.56241C19.8789 7.09082 20.1076 7.49281 20.4059 7.76838C20.707 8.04395 21.0692 8.18173 21.4925 8.18173Z" fill="#667085"/>
<path d="M28.9925 9.11923C28.3505 9.11923 27.8036 8.94451 27.3519 8.59508C26.9002 8.24281 26.555 7.73287 26.3164 7.06525C26.0778 6.3948 25.9585 5.58514 25.9585 4.63628C25.9585 3.69309 26.0778 2.8877 26.3164 2.22008C26.5579 1.54963 26.9045 1.03826 27.3562 0.685991C27.8107 0.330877 28.3562 0.15332 28.9925 0.15332C29.6289 0.15332 30.1729 0.330877 30.6246 0.685991C31.0792 1.03826 31.4258 1.54963 31.6644 2.22008C31.9059 2.8877 32.0266 3.69309 32.0266 4.63628C32.0266 5.58514 31.9073 6.3948 31.6687 7.06525C31.43 7.73287 31.0849 8.24281 30.6332 8.59508C30.1815 8.94451 29.6346 9.11923 28.9925 9.11923ZM28.9925 8.18173C29.6289 8.18173 30.1232 7.87491 30.4755 7.26128C30.8278 6.64764 31.0039 5.77264 31.0039 4.63628C31.0039 3.88059 30.9229 3.23713 30.761 2.70588C30.6019 2.17463 30.3718 1.7698 30.0707 1.49139C29.7724 1.21298 29.413 1.07378 28.9925 1.07378C28.3619 1.07378 27.869 1.38485 27.5138 2.00701C27.1587 2.62633 26.9812 3.50275 26.9812 4.63628C26.9812 5.39196 27.0607 6.034 27.2198 6.56241C27.3789 7.09082 27.6076 7.49281 27.9059 7.76838C28.207 8.04395 28.5692 8.18173 28.9925 8.18173Z" fill="#667085"/>
<path d="M36.4925 9.11923C35.8505 9.11923 35.3036 8.94451 34.8519 8.59508C34.4002 8.24281 34.055 7.73287 33.8164 7.06525C33.5778 6.3948 33.4585 5.58514 33.4585 4.63628C33.4585 3.69309 33.5778 2.8877 33.8164 2.22008C34.0579 1.54963 34.4045 1.03826 34.8562 0.685991C35.3107 0.330877 35.8562 0.15332 36.4925 0.15332C37.1289 0.15332 37.6729 0.330877 38.1246 0.685991C38.5792 1.03826 38.9258 1.54963 39.1644 2.22008C39.4059 2.8877 39.5266 3.69309 39.5266 4.63628C39.5266 5.58514 39.4073 6.3948 39.1687 7.06525C38.93 7.73287 38.5849 8.24281 38.1332 8.59508C37.6815 8.94451 37.1346 9.11923 36.4925 9.11923ZM36.4925 8.18173C37.1289 8.18173 37.6232 7.87491 37.9755 7.26128C38.3278 6.64764 38.5039 5.77264 38.5039 4.63628C38.5039 3.88059 38.4229 3.23713 38.261 2.70588C38.1019 2.17463 37.8718 1.7698 37.5707 1.49139C37.2724 1.21298 36.913 1.07378 36.4925 1.07378C35.8619 1.07378 35.369 1.38485 35.0139 2.00701C34.6587 2.62633 34.4812 3.50275 34.4812 4.63628C34.4812 5.39196 34.5607 6.034 34.7198 6.56241C34.8789 7.09082 35.1076 7.49281 35.4059 7.76838C35.707 8.04395 36.0692 8.18173 36.4925 8.18173Z" fill="#667085"/>
<path d="M3.63104 49.1192C3.13104 49.1192 2.68075 49.0198 2.28018 48.8209C1.87962 48.6221 1.55859 48.3493 1.31712 48.0028C1.07564 47.6562 0.943537 47.2613 0.92081 46.8181H1.94354C1.98331 47.213 2.16229 47.5397 2.48047 47.7982C2.80149 48.0539 3.18501 48.1817 3.63104 48.1817C3.98899 48.1817 4.30717 48.0979 4.58558 47.9303C4.86683 47.7627 5.087 47.5326 5.24609 47.24C5.40803 46.9445 5.48899 46.6107 5.48899 46.2385C5.48899 45.8579 5.40518 45.5184 5.23757 45.2201C5.0728 44.9189 4.84553 44.6817 4.55575 44.5084C4.26598 44.3351 3.93501 44.2471 3.56286 44.2442C3.29581 44.2414 3.02166 44.2826 2.74041 44.3678C2.45916 44.4502 2.22763 44.5567 2.04581 44.6874L1.05717 44.5681L1.58558 40.2726H6.11967V41.2101H2.47195L2.16513 43.784H2.21626C2.39524 43.642 2.61967 43.5241 2.88956 43.4303C3.15945 43.3366 3.4407 43.2897 3.73331 43.2897C4.2674 43.2897 4.74325 43.4175 5.16087 43.6732C5.58132 43.926 5.91087 44.2726 6.1495 44.713C6.39098 45.1533 6.51172 45.6562 6.51172 46.2215C6.51172 46.7783 6.38672 47.2755 6.13672 47.713C5.88956 48.1476 5.54865 48.4914 5.11399 48.7442C4.67933 48.9942 4.18501 49.1192 3.63104 49.1192Z" fill="#667085"/>
<path d="M11.0511 49.1192C10.4091 49.1192 9.86222 48.9445 9.41051 48.5951C8.95881 48.2428 8.61364 47.7329 8.375 47.0653C8.13636 46.3948 8.01705 45.5851 8.01705 44.6363C8.01705 43.6931 8.13636 42.8877 8.375 42.2201C8.61648 41.5496 8.96307 41.0383 9.41477 40.686C9.86932 40.3309 10.4148 40.1533 11.0511 40.1533C11.6875 40.1533 12.2315 40.3309 12.6832 40.686C13.1378 41.0383 13.4844 41.5496 13.723 42.2201C13.9645 42.8877 14.0852 43.6931 14.0852 44.6363C14.0852 45.5851 13.9659 46.3948 13.7273 47.0653C13.4886 47.7329 13.1435 48.2428 12.6918 48.5951C12.2401 48.9445 11.6932 49.1192 11.0511 49.1192ZM11.0511 48.1817C11.6875 48.1817 12.1818 47.8749 12.5341 47.2613C12.8864 46.6476 13.0625 45.7726 13.0625 44.6363C13.0625 43.8806 12.9815 43.2371 12.8196 42.7059C12.6605 42.1746 12.4304 41.7698 12.1293 41.4914C11.831 41.213 11.4716 41.0738 11.0511 41.0738C10.4205 41.0738 9.92756 41.3849 9.57244 42.007C9.21733 42.6263 9.03977 43.5028 9.03977 44.6363C9.03977 45.392 9.11932 46.034 9.27841 46.5624C9.4375 47.0908 9.66619 47.4928 9.96449 47.7684C10.2656 48.0439 10.6278 48.1817 11.0511 48.1817Z" fill="#667085"/>
<path d="M16.9169 47.8067L16.8487 48.267C16.8004 48.5908 16.7266 48.9374 16.6271 49.3067C16.5305 49.676 16.4297 50.0241 16.3246 50.3508C16.2195 50.6775 16.1328 50.9374 16.0646 51.1306H15.2976C15.3345 50.9488 15.3828 50.7087 15.4425 50.4104C15.5021 50.1121 15.5618 49.7783 15.6214 49.409C15.6839 49.0425 15.7351 48.6675 15.7749 48.284L15.826 47.8067H16.9169Z" fill="#667085"/>
<path d="M21.305 49.1192C20.663 49.1192 20.1161 48.9445 19.6644 48.5951C19.2127 48.2428 18.8675 47.7329 18.6289 47.0653C18.3903 46.3948 18.271 45.5851 18.271 44.6363C18.271 43.6931 18.3903 42.8877 18.6289 42.2201C18.8704 41.5496 19.217 41.0383 19.6687 40.686C20.1232 40.3309 20.6687 40.1533 21.305 40.1533C21.9414 40.1533 22.4854 40.3309 22.9371 40.686C23.3917 41.0383 23.7383 41.5496 23.9769 42.2201C24.2184 42.8877 24.3391 43.6931 24.3391 44.6363C24.3391 45.5851 24.2198 46.3948 23.9812 47.0653C23.7425 47.7329 23.3974 48.2428 22.9457 48.5951C22.494 48.9445 21.9471 49.1192 21.305 49.1192ZM21.305 48.1817C21.9414 48.1817 22.4357 47.8749 22.788 47.2613C23.1403 46.6476 23.3164 45.7726 23.3164 44.6363C23.3164 43.8806 23.2354 43.2371 23.0735 42.7059C22.9144 42.1746 22.6843 41.7698 22.3832 41.4914C22.0849 41.213 21.7255 41.0738 21.305 41.0738C20.6744 41.0738 20.1815 41.3849 19.8263 42.007C19.4712 42.6263 19.2937 43.5028 19.2937 44.6363C19.2937 45.392 19.3732 46.034 19.5323 46.5624C19.6914 47.0908 19.9201 47.4928 20.2184 47.7684C20.5195 48.0439 20.8817 48.1817 21.305 48.1817Z" fill="#667085"/>
<path d="M28.805 49.1192C28.163 49.1192 27.6161 48.9445 27.1644 48.5951C26.7127 48.2428 26.3675 47.7329 26.1289 47.0653C25.8903 46.3948 25.771 45.5851 25.771 44.6363C25.771 43.6931 25.8903 42.8877 26.1289 42.2201C26.3704 41.5496 26.717 41.0383 27.1687 40.686C27.6232 40.3309 28.1687 40.1533 28.805 40.1533C29.4414 40.1533 29.9854 40.3309 30.4371 40.686C30.8917 41.0383 31.2383 41.5496 31.4769 42.2201C31.7184 42.8877 31.8391 43.6931 31.8391 44.6363C31.8391 45.5851 31.7198 46.3948 31.4812 47.0653C31.2425 47.7329 30.8974 48.2428 30.4457 48.5951C29.994 48.9445 29.4471 49.1192 28.805 49.1192ZM28.805 48.1817C29.4414 48.1817 29.9357 47.8749 30.288 47.2613C30.6403 46.6476 30.8164 45.7726 30.8164 44.6363C30.8164 43.8806 30.7354 43.2371 30.5735 42.7059C30.4144 42.1746 30.1843 41.7698 29.8832 41.4914C29.5849 41.213 29.2255 41.0738 28.805 41.0738C28.1744 41.0738 27.6815 41.3849 27.3263 42.007C26.9712 42.6263 26.7937 43.5028 26.7937 44.6363C26.7937 45.392 26.8732 46.034 27.0323 46.5624C27.1914 47.0908 27.4201 47.4928 27.7184 47.7684C28.0195 48.0439 28.3817 48.1817 28.805 48.1817Z" fill="#667085"/>
<path d="M36.305 49.1192C35.663 49.1192 35.1161 48.9445 34.6644 48.5951C34.2127 48.2428 33.8675 47.7329 33.6289 47.0653C33.3903 46.3948 33.271 45.5851 33.271 44.6363C33.271 43.6931 33.3903 42.8877 33.6289 42.2201C33.8704 41.5496 34.217 41.0383 34.6687 40.686C35.1232 40.3309 35.6687 40.1533 36.305 40.1533C36.9414 40.1533 37.4854 40.3309 37.9371 40.686C38.3917 41.0383 38.7383 41.5496 38.9769 42.2201C39.2184 42.8877 39.3391 43.6931 39.3391 44.6363C39.3391 45.5851 39.2198 46.3948 38.9812 47.0653C38.7425 47.7329 38.3974 48.2428 37.9457 48.5951C37.494 48.9445 36.9471 49.1192 36.305 49.1192ZM36.305 48.1817C36.9414 48.1817 37.4357 47.8749 37.788 47.2613C38.1403 46.6476 38.3164 45.7726 38.3164 44.6363C38.3164 43.8806 38.2354 43.2371 38.0735 42.7059C37.9144 42.1746 37.6843 41.7698 37.3832 41.4914C37.0849 41.213 36.7255 41.0738 36.305 41.0738C35.6744 41.0738 35.1815 41.3849 34.8264 42.007C34.4712 42.6263 34.2937 43.5028 34.2937 44.6363C34.2937 45.392 34.3732 46.034 34.5323 46.5624C34.6914 47.0908 34.9201 47.4928 35.2184 47.7684C35.5195 48.0439 35.8817 48.1817 36.305 48.1817Z" fill="#667085"/>
<path d="M0.699219 87.2101V86.3408L4.53445 80.2726H5.16513V81.6192H4.73899L1.84126 86.2045V86.2726H7.00604V87.2101H0.699219ZM4.80717 88.9999V80.2726H5.81286V88.9999H4.80717Z" fill="#667085"/>
<path d="M11.4496 89.1192C10.8075 89.1192 10.2607 88.9445 9.80895 88.5951C9.35724 88.2428 9.01207 87.7329 8.77344 87.0653C8.5348 86.3948 8.41548 85.5851 8.41548 84.6363C8.41548 83.6931 8.5348 82.8877 8.77344 82.2201C9.01491 81.5496 9.36151 81.0383 9.81321 80.686C10.2678 80.3309 10.8132 80.1533 11.4496 80.1533C12.0859 80.1533 12.63 80.3309 13.0817 80.686C13.5362 81.0383 13.8828 81.5496 14.1214 82.2201C14.3629 82.8877 14.4837 83.6931 14.4837 84.6363C14.4837 85.5851 14.3643 86.3948 14.1257 87.0653C13.8871 87.7329 13.5419 88.2428 13.0902 88.5951C12.6385 88.9445 12.0916 89.1192 11.4496 89.1192ZM11.4496 88.1817C12.0859 88.1817 12.5803 87.8749 12.9325 87.2613C13.2848 86.6476 13.4609 85.7726 13.4609 84.6363C13.4609 83.8806 13.38 83.2371 13.218 82.7059C13.0589 82.1746 12.8288 81.7698 12.5277 81.4914C12.2294 81.213 11.87 81.0738 11.4496 81.0738C10.8189 81.0738 10.326 81.3849 9.97088 82.007C9.61577 82.6263 9.43821 83.5028 9.43821 84.6363C9.43821 85.392 9.51776 86.034 9.67685 86.5624C9.83594 87.0908 10.0646 87.4928 10.3629 87.7684C10.6641 88.0439 11.0263 88.1817 11.4496 88.1817Z" fill="#667085"/>
<path d="M17.3153 87.8067L17.2472 88.267C17.1989 88.5908 17.125 88.9374 17.0256 89.3067C16.929 89.6761 16.8281 90.0241 16.723 90.3508C16.6179 90.6775 16.5312 90.9374 16.4631 91.1306H15.696C15.733 90.9488 15.7812 90.7087 15.8409 90.4104C15.9006 90.1121 15.9602 89.7783 16.0199 89.409C16.0824 89.0425 16.1335 88.6675 16.1733 88.284L16.2244 87.8067H17.3153Z" fill="#667085"/>
<path d="M21.7035 89.1192C21.0614 89.1192 20.5146 88.9445 20.0629 88.5951C19.6112 88.2428 19.266 87.7329 19.0273 87.0653C18.7887 86.3948 18.6694 85.5851 18.6694 84.6363C18.6694 83.6931 18.7887 82.8877 19.0273 82.2201C19.2688 81.5496 19.6154 81.0383 20.0671 80.686C20.5217 80.3309 21.0671 80.1533 21.7035 80.1533C22.3398 80.1533 22.8839 80.3309 23.3356 80.686C23.7901 81.0383 24.1367 81.5496 24.3754 82.2201C24.6168 82.8877 24.7376 83.6931 24.7376 84.6363C24.7376 85.5851 24.6183 86.3948 24.3796 87.0653C24.141 87.7329 23.7958 88.2428 23.3441 88.5951C22.8924 88.9445 22.3455 89.1192 21.7035 89.1192ZM21.7035 88.1817C22.3398 88.1817 22.8342 87.8749 23.1864 87.2613C23.5387 86.6476 23.7148 85.7726 23.7148 84.6363C23.7148 83.8806 23.6339 83.2371 23.4719 82.7059C23.3129 82.1746 23.0827 81.7698 22.7816 81.4914C22.4833 81.213 22.1239 81.0738 21.7035 81.0738C21.0728 81.0738 20.5799 81.3849 20.2248 82.007C19.8697 82.6263 19.6921 83.5028 19.6921 84.6363C19.6921 85.392 19.7717 86.034 19.9308 86.5624C20.0898 87.0908 20.3185 87.4928 20.6168 87.7684C20.918 88.0439 21.2802 88.1817 21.7035 88.1817Z" fill="#667085"/>
<path d="M29.2035 89.1192C28.5614 89.1192 28.0146 88.9445 27.5629 88.5951C27.1112 88.2428 26.766 87.7329 26.5273 87.0653C26.2887 86.3948 26.1694 85.5851 26.1694 84.6363C26.1694 83.6931 26.2887 82.8877 26.5273 82.2201C26.7688 81.5496 27.1154 81.0383 27.5671 80.686C28.0217 80.3309 28.5671 80.1533 29.2035 80.1533C29.8398 80.1533 30.3839 80.3309 30.8356 80.686C31.2901 81.0383 31.6367 81.5496 31.8754 82.2201C32.1168 82.8877 32.2376 83.6931 32.2376 84.6363C32.2376 85.5851 32.1183 86.3948 31.8796 87.0653C31.641 87.7329 31.2958 88.2428 30.8441 88.5951C30.3924 88.9445 29.8455 89.1192 29.2035 89.1192ZM29.2035 88.1817C29.8398 88.1817 30.3342 87.8749 30.6864 87.2613C31.0387 86.6476 31.2148 85.7726 31.2148 84.6363C31.2148 83.8806 31.1339 83.2371 30.9719 82.7059C30.8129 82.1746 30.5827 81.7698 30.2816 81.4914C29.9833 81.213 29.6239 81.0738 29.2035 81.0738C28.5728 81.0738 28.0799 81.3849 27.7248 82.007C27.3697 82.6263 27.1921 83.5028 27.1921 84.6363C27.1921 85.392 27.2717 86.034 27.4308 86.5624C27.5898 87.0908 27.8185 87.4928 28.1168 87.7684C28.418 88.0439 28.7802 88.1817 29.2035 88.1817Z" fill="#667085"/>
<path d="M36.7035 89.1192C36.0614 89.1192 35.5146 88.9445 35.0629 88.5951C34.6112 88.2428 34.266 87.7329 34.0273 87.0653C33.7887 86.3948 33.6694 85.5851 33.6694 84.6363C33.6694 83.6931 33.7887 82.8877 34.0273 82.2201C34.2688 81.5496 34.6154 81.0383 35.0671 80.686C35.5217 80.3309 36.0671 80.1533 36.7035 80.1533C37.3398 80.1533 37.8839 80.3309 38.3356 80.686C38.7901 81.0383 39.1367 81.5496 39.3754 82.2201C39.6168 82.8877 39.7376 83.6931 39.7376 84.6363C39.7376 85.5851 39.6183 86.3948 39.3796 87.0653C39.141 87.7329 38.7958 88.2428 38.3441 88.5951C37.8924 88.9445 37.3455 89.1192 36.7035 89.1192ZM36.7035 88.1817C37.3398 88.1817 37.8342 87.8749 38.1864 87.2613C38.5387 86.6476 38.7148 85.7726 38.7148 84.6363C38.7148 83.8806 38.6339 83.2371 38.4719 82.7059C38.3129 82.1746 38.0827 81.7698 37.7816 81.4914C37.4833 81.213 37.1239 81.0738 36.7035 81.0738C36.0728 81.0738 35.5799 81.3849 35.2248 82.007C34.8697 82.6263 34.6921 83.5028 34.6921 84.6363C34.6921 85.392 34.7717 86.034 34.9308 86.5624C35.0898 87.0908 35.3185 87.4928 35.6168 87.7684C35.918 88.0439 36.2802 88.1817 36.7035 88.1817Z" fill="#667085"/>
<path d="M3.85263 129.119C3.29013 129.119 2.78871 129.023 2.34837 128.829C1.91087 128.636 1.56286 128.368 1.30433 128.024C1.04865 127.677 0.909446 127.275 0.886719 126.818H1.96058C1.98331 127.099 2.0799 127.342 2.25036 127.547C2.42081 127.748 2.64382 127.905 2.91939 128.016C3.19496 128.126 3.50036 128.182 3.83558 128.182C4.21058 128.182 4.54297 128.116 4.83274 127.986C5.12251 127.855 5.34979 127.673 5.51456 127.44C5.67933 127.207 5.76172 126.937 5.76172 126.631C5.76172 126.31 5.68217 126.027 5.52308 125.783C5.36399 125.535 5.13104 125.342 4.82422 125.203C4.5174 125.064 4.1424 124.994 3.69922 124.994H3.00036V124.057H3.69922C4.04581 124.057 4.34979 123.994 4.61115 123.869C4.87536 123.744 5.08132 123.568 5.22905 123.341C5.37962 123.114 5.4549 122.846 5.4549 122.54C5.4549 122.244 5.38956 121.987 5.25888 121.768C5.1282 121.55 4.94354 121.379 4.7049 121.257C4.46911 121.135 4.1907 121.074 3.86967 121.074C3.56854 121.074 3.28445 121.129 3.0174 121.24C2.7532 121.348 2.53729 121.506 2.36967 121.713C2.20206 121.918 2.11115 122.165 2.09695 122.454H1.07422C1.09126 121.997 1.22905 121.597 1.48757 121.253C1.74609 120.906 2.08416 120.636 2.50178 120.443C2.92223 120.25 3.38388 120.153 3.88672 120.153C4.42649 120.153 4.88956 120.263 5.27592 120.481C5.66229 120.697 5.95916 120.983 6.16655 121.338C6.37393 121.693 6.47763 122.077 6.47763 122.489C6.47763 122.98 6.34837 123.399 6.08984 123.746C5.83416 124.092 5.48615 124.332 5.04581 124.466V124.534C5.59695 124.625 6.02734 124.859 6.337 125.237C6.64666 125.612 6.80149 126.077 6.80149 126.631C6.80149 127.105 6.67223 127.531 6.41371 127.909C6.15803 128.284 5.80859 128.579 5.36541 128.795C4.92223 129.011 4.41797 129.119 3.85263 129.119Z" fill="#667085"/>
<path d="M11.391 129.119C10.7489 129.119 10.2021 128.945 9.75035 128.595C9.29865 128.243 8.95348 127.733 8.71484 127.065C8.47621 126.395 8.35689 125.585 8.35689 124.636C8.35689 123.693 8.47621 122.888 8.71484 122.22C8.95632 121.55 9.30291 121.038 9.75462 120.686C10.2092 120.331 10.7546 120.153 11.391 120.153C12.0273 120.153 12.5714 120.331 13.0231 120.686C13.4776 121.038 13.8242 121.55 14.0629 122.22C14.3043 122.888 14.4251 123.693 14.4251 124.636C14.4251 125.585 14.3058 126.395 14.0671 127.065C13.8285 127.733 13.4833 128.243 13.0316 128.595C12.5799 128.945 12.033 129.119 11.391 129.119ZM11.391 128.182C12.0273 128.182 12.5217 127.875 12.8739 127.261C13.2262 126.648 13.4023 125.773 13.4023 124.636C13.4023 123.881 13.3214 123.237 13.1594 122.706C13.0004 122.175 12.7702 121.77 12.4691 121.491C12.1708 121.213 11.8114 121.074 11.391 121.074C10.7603 121.074 10.2674 121.385 9.91229 122.007C9.55717 122.626 9.37962 123.503 9.37962 124.636C9.37962 125.392 9.45916 126.034 9.61825 126.562C9.77734 127.091 10.006 127.493 10.3043 127.768C10.6055 128.044 10.9677 128.182 11.391 128.182Z" fill="#667085"/>
<path d="M17.2567 127.807L17.1886 128.267C17.1403 128.591 17.0664 128.937 16.967 129.307C16.8704 129.676 16.7695 130.024 16.6644 130.351C16.5593 130.677 16.4727 130.937 16.4045 131.131H15.6374C15.6744 130.949 15.7227 130.709 15.7823 130.41C15.842 130.112 15.9016 129.778 15.9613 129.409C16.0238 129.043 16.0749 128.668 16.1147 128.284L16.1658 127.807H17.2567Z" fill="#667085"/>
<path d="M21.6449 129.119C21.0028 129.119 20.456 128.945 20.0043 128.595C19.5526 128.243 19.2074 127.733 18.9688 127.065C18.7301 126.395 18.6108 125.585 18.6108 124.636C18.6108 123.693 18.7301 122.888 18.9688 122.22C19.2102 121.55 19.5568 121.038 20.0085 120.686C20.4631 120.331 21.0085 120.153 21.6449 120.153C22.2812 120.153 22.8253 120.331 23.277 120.686C23.7315 121.038 24.0781 121.55 24.3168 122.22C24.5582 122.888 24.679 123.693 24.679 124.636C24.679 125.585 24.5597 126.395 24.321 127.065C24.0824 127.733 23.7372 128.243 23.2855 128.595C22.8338 128.945 22.2869 129.119 21.6449 129.119ZM21.6449 128.182C22.2812 128.182 22.7756 127.875 23.1278 127.261C23.4801 126.648 23.6562 125.773 23.6562 124.636C23.6562 123.881 23.5753 123.237 23.4134 122.706C23.2543 122.175 23.0241 121.77 22.723 121.491C22.4247 121.213 22.0653 121.074 21.6449 121.074C21.0142 121.074 20.5213 121.385 20.1662 122.007C19.8111 122.626 19.6335 123.503 19.6335 124.636C19.6335 125.392 19.7131 126.034 19.8722 126.562C20.0313 127.091 20.2599 127.493 20.5582 127.768C20.8594 128.044 21.2216 128.182 21.6449 128.182Z" fill="#667085"/>
<path d="M29.1449 129.119C28.5028 129.119 27.956 128.945 27.5043 128.595C27.0526 128.243 26.7074 127.733 26.4688 127.065C26.2301 126.395 26.1108 125.585 26.1108 124.636C26.1108 123.693 26.2301 122.888 26.4688 122.22C26.7102 121.55 27.0568 121.038 27.5085 120.686C27.9631 120.331 28.5085 120.153 29.1449 120.153C29.7812 120.153 30.3253 120.331 30.777 120.686C31.2315 121.038 31.5781 121.55 31.8168 122.22C32.0582 122.888 32.179 123.693 32.179 124.636C32.179 125.585 32.0597 126.395 31.821 127.065C31.5824 127.733 31.2372 128.243 30.7855 128.595C30.3338 128.945 29.7869 129.119 29.1449 129.119ZM29.1449 128.182C29.7812 128.182 30.2756 127.875 30.6278 127.261C30.9801 126.648 31.1562 125.773 31.1562 124.636C31.1562 123.881 31.0753 123.237 30.9134 122.706C30.7543 122.175 30.5241 121.77 30.223 121.491C29.9247 121.213 29.5653 121.074 29.1449 121.074C28.5142 121.074 28.0213 121.385 27.6662 122.007C27.3111 122.626 27.1335 123.503 27.1335 124.636C27.1335 125.392 27.2131 126.034 27.3722 126.562C27.5313 127.091 27.7599 127.493 28.0582 127.768C28.3594 128.044 28.7216 128.182 29.1449 128.182Z" fill="#667085"/>
<path d="M36.6449 129.119C36.0028 129.119 35.456 128.945 35.0043 128.595C34.5526 128.243 34.2074 127.733 33.9688 127.065C33.7301 126.395 33.6108 125.585 33.6108 124.636C33.6108 123.693 33.7301 122.888 33.9688 122.22C34.2102 121.55 34.5568 121.038 35.0085 120.686C35.4631 120.331 36.0085 120.153 36.6449 120.153C37.2812 120.153 37.8253 120.331 38.277 120.686C38.7315 121.038 39.0781 121.55 39.3168 122.22C39.5582 122.888 39.679 123.693 39.679 124.636C39.679 125.585 39.5597 126.395 39.321 127.065C39.0824 127.733 38.7372 128.243 38.2855 128.595C37.8338 128.945 37.2869 129.119 36.6449 129.119ZM36.6449 128.182C37.2812 128.182 37.7756 127.875 38.1278 127.261C38.4801 126.648 38.6562 125.773 38.6562 124.636C38.6562 123.881 38.5753 123.237 38.4134 122.706C38.2543 122.175 38.0241 121.77 37.723 121.491C37.4247 121.213 37.0653 121.074 36.6449 121.074C36.0142 121.074 35.5213 121.385 35.1662 122.007C34.8111 122.626 34.6335 123.503 34.6335 124.636C34.6335 125.392 34.7131 126.034 34.8722 126.562C35.0312 127.091 35.2599 127.493 35.5582 127.768C35.8594 128.044 36.2216 128.182 36.6449 128.182Z" fill="#667085"/>
<path d="M0.903764 169V168.233L3.78445 165.079C4.12251 164.71 4.40092 164.389 4.61967 164.116C4.83842 163.841 5.00036 163.582 5.10547 163.341C5.21342 163.097 5.2674 162.841 5.2674 162.574C5.2674 162.267 5.19354 162.001 5.04581 161.777C4.90092 161.552 4.70206 161.379 4.44922 161.257C4.19638 161.135 3.91229 161.074 3.59695 161.074C3.26172 161.074 2.96911 161.143 2.71911 161.283C2.47195 161.419 2.28018 161.611 2.14382 161.858C2.0103 162.105 1.94354 162.395 1.94354 162.727H0.937855C0.937855 162.216 1.05575 161.767 1.29155 161.381C1.52734 160.994 1.84837 160.693 2.25462 160.477C2.66371 160.261 3.12251 160.153 3.63104 160.153C4.1424 160.153 4.59553 160.261 4.99041 160.477C5.3853 160.693 5.69496 160.984 5.91939 161.351C6.14382 161.717 6.25604 162.125 6.25604 162.574C6.25604 162.895 6.1978 163.209 6.08132 163.516C5.96768 163.82 5.76882 164.159 5.48473 164.534C5.20348 164.906 4.81286 165.361 4.31286 165.898L2.35263 167.994V168.062H6.40945V169H0.903764Z" fill="#667085"/>
<path d="M11.016 169.119C10.3739 169.119 9.82706 168.945 9.37535 168.595C8.92365 168.243 8.57848 167.733 8.33984 167.065C8.10121 166.395 7.98189 165.585 7.98189 164.636C7.98189 163.693 8.10121 162.888 8.33984 162.22C8.58132 161.55 8.92791 161.038 9.37962 160.686C9.83416 160.331 10.3796 160.153 11.016 160.153C11.6523 160.153 12.1964 160.331 12.6481 160.686C13.1026 161.038 13.4492 161.55 13.6879 162.22C13.9293 162.888 14.0501 163.693 14.0501 164.636C14.0501 165.585 13.9308 166.395 13.6921 167.065C13.4535 167.733 13.1083 168.243 12.6566 168.595C12.2049 168.945 11.658 169.119 11.016 169.119ZM11.016 168.182C11.6523 168.182 12.1467 167.875 12.4989 167.261C12.8512 166.648 13.0273 165.773 13.0273 164.636C13.0273 163.881 12.9464 163.237 12.7844 162.706C12.6254 162.175 12.3952 161.77 12.0941 161.491C11.7958 161.213 11.4364 161.074 11.016 161.074C10.3853 161.074 9.8924 161.385 9.53729 162.007C9.18217 162.626 9.00462 163.503 9.00462 164.636C9.00462 165.392 9.08416 166.034 9.24325 166.562C9.40234 167.091 9.63104 167.493 9.92933 167.768C10.2305 168.044 10.5927 168.182 11.016 168.182Z" fill="#667085"/>
<path d="M16.8817 167.807L16.8136 168.267C16.7653 168.591 16.6914 168.937 16.592 169.307C16.4954 169.676 16.3945 170.024 16.2894 170.351C16.1843 170.677 16.0977 170.937 16.0295 171.131H15.2624C15.2994 170.949 15.3477 170.709 15.4073 170.41C15.467 170.112 15.5266 169.778 15.5863 169.409C15.6488 169.043 15.6999 168.668 15.7397 168.284L15.7908 167.807H16.8817Z" fill="#667085"/>
<path d="M21.2699 169.119C20.6278 169.119 20.081 168.945 19.6293 168.595C19.1776 168.243 18.8324 167.733 18.5938 167.065C18.3551 166.395 18.2358 165.585 18.2358 164.636C18.2358 163.693 18.3551 162.888 18.5938 162.22C18.8352 161.55 19.1818 161.038 19.6335 160.686C20.0881 160.331 20.6335 160.153 21.2699 160.153C21.9062 160.153 22.4503 160.331 22.902 160.686C23.3565 161.038 23.7031 161.55 23.9418 162.22C24.1832 162.888 24.304 163.693 24.304 164.636C24.304 165.585 24.1847 166.395 23.946 167.065C23.7074 167.733 23.3622 168.243 22.9105 168.595C22.4588 168.945 21.9119 169.119 21.2699 169.119ZM21.2699 168.182C21.9062 168.182 22.4006 167.875 22.7528 167.261C23.1051 166.648 23.2812 165.773 23.2812 164.636C23.2812 163.881 23.2003 163.237 23.0384 162.706C22.8793 162.175 22.6491 161.77 22.348 161.491C22.0497 161.213 21.6903 161.074 21.2699 161.074C20.6392 161.074 20.1463 161.385 19.7912 162.007C19.4361 162.626 19.2585 163.503 19.2585 164.636C19.2585 165.392 19.3381 166.034 19.4972 166.562C19.6563 167.091 19.8849 167.493 20.1832 167.768C20.4844 168.044 20.8466 168.182 21.2699 168.182Z" fill="#667085"/>
<path d="M28.7699 169.119C28.1278 169.119 27.581 168.945 27.1293 168.595C26.6776 168.243 26.3324 167.733 26.0938 167.065C25.8551 166.395 25.7358 165.585 25.7358 164.636C25.7358 163.693 25.8551 162.888 26.0938 162.22C26.3352 161.55 26.6818 161.038 27.1335 160.686C27.5881 160.331 28.1335 160.153 28.7699 160.153C29.4062 160.153 29.9503 160.331 30.402 160.686C30.8565 161.038 31.2031 161.55 31.4418 162.22C31.6832 162.888 31.804 163.693 31.804 164.636C31.804 165.585 31.6847 166.395 31.446 167.065C31.2074 167.733 30.8622 168.243 30.4105 168.595C29.9588 168.945 29.4119 169.119 28.7699 169.119ZM28.7699 168.182C29.4062 168.182 29.9006 167.875 30.2528 167.261C30.6051 166.648 30.7812 165.773 30.7812 164.636C30.7812 163.881 30.7003 163.237 30.5384 162.706C30.3793 162.175 30.1491 161.77 29.848 161.491C29.5497 161.213 29.1903 161.074 28.7699 161.074C28.1392 161.074 27.6463 161.385 27.2912 162.007C26.9361 162.626 26.7585 163.503 26.7585 164.636C26.7585 165.392 26.8381 166.034 26.9972 166.562C27.1563 167.091 27.3849 167.493 27.6832 167.768C27.9844 168.044 28.3466 168.182 28.7699 168.182Z" fill="#667085"/>
<path d="M36.2699 169.119C35.6278 169.119 35.081 168.945 34.6293 168.595C34.1776 168.243 33.8324 167.733 33.5938 167.065C33.3551 166.395 33.2358 165.585 33.2358 164.636C33.2358 163.693 33.3551 162.888 33.5938 162.22C33.8352 161.55 34.1818 161.038 34.6335 160.686C35.0881 160.331 35.6335 160.153 36.2699 160.153C36.9062 160.153 37.4503 160.331 37.902 160.686C38.3565 161.038 38.7031 161.55 38.9418 162.22C39.1832 162.888 39.304 163.693 39.304 164.636C39.304 165.585 39.1847 166.395 38.946 167.065C38.7074 167.733 38.3622 168.243 37.9105 168.595C37.4588 168.945 36.9119 169.119 36.2699 169.119ZM36.2699 168.182C36.9062 168.182 37.4006 167.875 37.7528 167.261C38.1051 166.648 38.2812 165.773 38.2812 164.636C38.2812 163.881 38.2003 163.237 38.0384 162.706C37.8793 162.175 37.6491 161.77 37.348 161.491C37.0497 161.213 36.6903 161.074 36.2699 161.074C35.6392 161.074 35.1463 161.385 34.7912 162.007C34.4361 162.626 34.2585 163.503 34.2585 164.636C34.2585 165.392 34.3381 166.034 34.4972 166.562C34.6562 167.091 34.8849 167.493 35.1832 167.768C35.4844 168.044 35.8466 168.182 36.2699 168.182Z" fill="#667085"/>
<path d="M5.97195 200.273V209H4.91513V201.381H4.86399L2.73331 202.795V201.721L4.91513 200.273H5.97195Z" fill="#667085"/>
<path d="M11.3285 209.119C10.6864 209.119 10.1396 208.945 9.68785 208.595C9.23615 208.243 8.89098 207.733 8.65234 207.065C8.41371 206.395 8.29439 205.585 8.29439 204.636C8.29439 203.693 8.41371 202.888 8.65234 202.22C8.89382 201.55 9.24041 201.038 9.69212 200.686C10.1467 200.331 10.6921 200.153 11.3285 200.153C11.9648 200.153 12.5089 200.331 12.9606 200.686C13.4151 201.038 13.7617 201.55 14.0004 202.22C14.2418 202.888 14.3626 203.693 14.3626 204.636C14.3626 205.585 14.2433 206.395 14.0046 207.065C13.766 207.733 13.4208 208.243 12.9691 208.595C12.5174 208.945 11.9705 209.119 11.3285 209.119ZM11.3285 208.182C11.9648 208.182 12.4592 207.875 12.8114 207.261C13.1637 206.648 13.3398 205.773 13.3398 204.636C13.3398 203.881 13.2589 203.237 13.0969 202.706C12.9379 202.175 12.7077 201.77 12.4066 201.491C12.1083 201.213 11.7489 201.074 11.3285 201.074C10.6978 201.074 10.2049 201.385 9.84979 202.007C9.49467 202.626 9.31712 203.503 9.31712 204.636C9.31712 205.392 9.39666 206.034 9.55575 206.562C9.71484 207.091 9.94354 207.493 10.2418 207.768C10.543 208.044 10.9052 208.182 11.3285 208.182Z" fill="#667085"/>
<path d="M17.1942 207.807L17.1261 208.267C17.0778 208.591 17.0039 208.937 16.9045 209.307C16.8079 209.676 16.707 210.024 16.6019 210.351C16.4968 210.677 16.4102 210.937 16.342 211.131H15.5749C15.6119 210.949 15.6602 210.709 15.7198 210.41C15.7795 210.112 15.8391 209.778 15.8988 209.409C15.9613 209.043 16.0124 208.668 16.0522 208.284L16.1033 207.807H17.1942Z" fill="#667085"/>
<path d="M21.5824 209.119C20.9403 209.119 20.3935 208.945 19.9418 208.595C19.4901 208.243 19.1449 207.733 18.9062 207.065C18.6676 206.395 18.5483 205.585 18.5483 204.636C18.5483 203.693 18.6676 202.888 18.9062 202.22C19.1477 201.55 19.4943 201.038 19.946 200.686C20.4006 200.331 20.946 200.153 21.5824 200.153C22.2187 200.153 22.7628 200.331 23.2145 200.686C23.669 201.038 24.0156 201.55 24.2543 202.22C24.4957 202.888 24.6165 203.693 24.6165 204.636C24.6165 205.585 24.4972 206.395 24.2585 207.065C24.0199 207.733 23.6747 208.243 23.223 208.595C22.7713 208.945 22.2244 209.119 21.5824 209.119ZM21.5824 208.182C22.2187 208.182 22.7131 207.875 23.0653 207.261C23.4176 206.648 23.5938 205.773 23.5938 204.636C23.5938 203.881 23.5128 203.237 23.3509 202.706C23.1918 202.175 22.9616 201.77 22.6605 201.491C22.3622 201.213 22.0028 201.074 21.5824 201.074C20.9517 201.074 20.4588 201.385 20.1037 202.007C19.7486 202.626 19.571 203.503 19.571 204.636C19.571 205.392 19.6506 206.034 19.8097 206.562C19.9688 207.091 20.1974 207.493 20.4957 207.768C20.7969 208.044 21.1591 208.182 21.5824 208.182Z" fill="#667085"/>
<path d="M29.0824 209.119C28.4403 209.119 27.8935 208.945 27.4418 208.595C26.9901 208.243 26.6449 207.733 26.4062 207.065C26.1676 206.395 26.0483 205.585 26.0483 204.636C26.0483 203.693 26.1676 202.888 26.4062 202.22C26.6477 201.55 26.9943 201.038 27.446 200.686C27.9006 200.331 28.446 200.153 29.0824 200.153C29.7187 200.153 30.2628 200.331 30.7145 200.686C31.169 201.038 31.5156 201.55 31.7543 202.22C31.9957 202.888 32.1165 203.693 32.1165 204.636C32.1165 205.585 31.9972 206.395 31.7585 207.065C31.5199 207.733 31.1747 208.243 30.723 208.595C30.2713 208.945 29.7244 209.119 29.0824 209.119ZM29.0824 208.182C29.7187 208.182 30.2131 207.875 30.5653 207.261C30.9176 206.648 31.0938 205.773 31.0938 204.636C31.0938 203.881 31.0128 203.237 30.8509 202.706C30.6918 202.175 30.4616 201.77 30.1605 201.491C29.8622 201.213 29.5028 201.074 29.0824 201.074C28.4517 201.074 27.9588 201.385 27.6037 202.007C27.2486 202.626 27.071 203.503 27.071 204.636C27.071 205.392 27.1506 206.034 27.3097 206.562C27.4688 207.091 27.6974 207.493 27.9957 207.768C28.2969 208.044 28.6591 208.182 29.0824 208.182Z" fill="#667085"/>
<path d="M36.5824 209.119C35.9403 209.119 35.3935 208.945 34.9418 208.595C34.4901 208.243 34.1449 207.733 33.9062 207.065C33.6676 206.395 33.5483 205.585 33.5483 204.636C33.5483 203.693 33.6676 202.888 33.9062 202.22C34.1477 201.55 34.4943 201.038 34.946 200.686C35.4006 200.331 35.946 200.153 36.5824 200.153C37.2187 200.153 37.7628 200.331 38.2145 200.686C38.669 201.038 39.0156 201.55 39.2543 202.22C39.4957 202.888 39.6165 203.693 39.6165 204.636C39.6165 205.585 39.4972 206.395 39.2585 207.065C39.0199 207.733 38.6747 208.243 38.223 208.595C37.7713 208.945 37.2244 209.119 36.5824 209.119ZM36.5824 208.182C37.2187 208.182 37.7131 207.875 38.0653 207.261C38.4176 206.648 38.5938 205.773 38.5938 204.636C38.5938 203.881 38.5128 203.237 38.3509 202.706C38.1918 202.175 37.9616 201.77 37.6605 201.491C37.3622 201.213 37.0028 201.074 36.5824 201.074C35.9517 201.074 35.4588 201.385 35.1037 202.007C34.7486 202.626 34.571 203.503 34.571 204.636C34.571 205.392 34.6506 206.034 34.8097 206.562C34.9687 207.091 35.1974 207.493 35.4957 207.768C35.7969 208.044 36.1591 208.182 36.5824 208.182Z" fill="#667085"/>
<path d="M101.398 219.273H102.455V225.511C102.455 226.068 102.353 226.541 102.148 226.93C101.944 227.32 101.655 227.615 101.283 227.817C100.911 228.018 100.472 228.119 99.9663 228.119C99.489 228.119 99.0643 228.033 98.6921 227.859C98.32 227.683 98.0273 227.433 97.8143 227.109C97.6012 226.785 97.4947 226.4 97.4947 225.954H98.5344C98.5344 226.202 98.5955 226.418 98.7177 226.602C98.8427 226.784 99.0131 226.926 99.229 227.028C99.445 227.131 99.6907 227.182 99.9663 227.182C100.27 227.182 100.529 227.118 100.742 226.99C100.955 226.862 101.117 226.675 101.228 226.427C101.341 226.177 101.398 225.872 101.398 225.511V219.273Z" fill="#858D9D"/>
<path d="M106.363 228.153C105.948 228.153 105.571 228.075 105.233 227.919C104.895 227.76 104.627 227.531 104.428 227.233C104.229 226.932 104.13 226.568 104.13 226.142C104.13 225.767 104.203 225.463 104.351 225.23C104.499 224.994 104.696 224.81 104.944 224.676C105.191 224.543 105.463 224.443 105.762 224.378C106.063 224.31 106.365 224.256 106.669 224.216C107.067 224.165 107.39 224.126 107.637 224.101C107.887 224.072 108.069 224.025 108.182 223.96C108.299 223.895 108.357 223.781 108.357 223.619V223.585C108.357 223.165 108.242 222.838 108.012 222.605C107.784 222.372 107.439 222.256 106.976 222.256C106.496 222.256 106.12 222.361 105.847 222.571C105.574 222.781 105.382 223.006 105.272 223.244L104.317 222.903C104.488 222.506 104.715 222.196 104.999 221.974C105.286 221.75 105.598 221.594 105.936 221.506C106.277 221.415 106.613 221.369 106.942 221.369C107.152 221.369 107.394 221.395 107.667 221.446C107.942 221.494 108.208 221.595 108.463 221.748C108.722 221.902 108.936 222.133 109.107 222.443C109.277 222.753 109.363 223.168 109.363 223.687V228H108.357V227.114H108.306C108.238 227.256 108.124 227.408 107.965 227.57C107.806 227.731 107.594 227.869 107.33 227.983C107.066 228.097 106.743 228.153 106.363 228.153ZM106.516 227.25C106.914 227.25 107.249 227.172 107.522 227.016C107.797 226.859 108.005 226.658 108.144 226.41C108.286 226.163 108.357 225.903 108.357 225.631V224.71C108.314 224.761 108.221 224.808 108.076 224.851C107.934 224.891 107.769 224.926 107.581 224.957C107.397 224.986 107.216 225.011 107.04 225.034C106.867 225.054 106.726 225.071 106.618 225.085C106.357 225.119 106.113 225.175 105.885 225.251C105.661 225.325 105.479 225.437 105.34 225.588C105.203 225.736 105.135 225.937 105.135 226.193C105.135 226.543 105.265 226.807 105.523 226.986C105.784 227.162 106.115 227.25 106.516 227.25Z" fill="#858D9D"/>
<path d="M112.204 224.062V228H111.198V221.454H112.17V222.477H112.255C112.408 222.145 112.641 221.878 112.954 221.676C113.266 221.471 113.67 221.369 114.164 221.369C114.607 221.369 114.995 221.46 115.327 221.642C115.66 221.821 115.918 222.094 116.103 222.46C116.288 222.824 116.38 223.284 116.38 223.841V228H115.374V223.909C115.374 223.395 115.241 222.994 114.974 222.707C114.707 222.418 114.34 222.273 113.874 222.273C113.553 222.273 113.266 222.342 113.013 222.481C112.763 222.621 112.566 222.824 112.421 223.091C112.276 223.358 112.204 223.682 112.204 224.062Z" fill="#858D9D"/>
<path d="M148.057 228V219.273H153.29V220.21H149.114V223.159H152.898V224.096H149.114V228H148.057Z" fill="#858D9D"/>
<path d="M157.228 228.136C156.597 228.136 156.053 227.997 155.596 227.719C155.141 227.437 154.79 227.045 154.543 226.543C154.299 226.037 154.176 225.449 154.176 224.778C154.176 224.108 154.299 223.517 154.543 223.006C154.79 222.491 155.134 222.091 155.574 221.804C156.017 221.514 156.534 221.369 157.125 221.369C157.466 221.369 157.803 221.426 158.135 221.54C158.468 221.653 158.77 221.838 159.043 222.094C159.316 222.346 159.533 222.682 159.695 223.099C159.857 223.517 159.938 224.031 159.938 224.642V225.068H154.892V224.199H158.915C158.915 223.829 158.841 223.5 158.694 223.21C158.549 222.92 158.341 222.692 158.071 222.524C157.804 222.356 157.489 222.273 157.125 222.273C156.725 222.273 156.378 222.372 156.086 222.571C155.796 222.767 155.573 223.023 155.417 223.338C155.26 223.653 155.182 223.991 155.182 224.352V224.932C155.182 225.426 155.267 225.845 155.438 226.189C155.611 226.53 155.851 226.79 156.158 226.969C156.465 227.145 156.821 227.233 157.228 227.233C157.492 227.233 157.73 227.196 157.944 227.122C158.159 227.045 158.346 226.932 158.502 226.781C158.658 226.628 158.779 226.437 158.864 226.21L159.836 226.483C159.733 226.812 159.561 227.102 159.32 227.352C159.078 227.599 158.78 227.793 158.425 227.932C158.07 228.068 157.671 228.136 157.228 228.136Z" fill="#858D9D"/>
<path d="M161.604 228V219.273H162.61V222.494H162.695C162.769 222.381 162.871 222.236 163.002 222.06C163.135 221.881 163.326 221.721 163.573 221.582C163.823 221.44 164.161 221.369 164.587 221.369C165.138 221.369 165.624 221.507 166.044 221.783C166.465 222.058 166.793 222.449 167.029 222.954C167.265 223.46 167.382 224.057 167.382 224.744C167.382 225.437 167.265 226.038 167.029 226.547C166.793 227.052 166.466 227.445 166.049 227.723C165.631 227.998 165.15 228.136 164.604 228.136C164.184 228.136 163.847 228.067 163.594 227.927C163.341 227.785 163.147 227.625 163.01 227.446C162.874 227.264 162.769 227.114 162.695 226.994H162.576V228H161.604ZM162.593 224.727C162.593 225.222 162.665 225.658 162.81 226.035C162.955 226.41 163.167 226.704 163.445 226.918C163.723 227.128 164.064 227.233 164.468 227.233C164.888 227.233 165.239 227.122 165.52 226.9C165.804 226.676 166.017 226.375 166.159 225.997C166.304 225.616 166.377 225.193 166.377 224.727C166.377 224.267 166.306 223.852 166.164 223.483C166.025 223.111 165.813 222.817 165.529 222.601C165.248 222.382 164.894 222.273 164.468 222.273C164.059 222.273 163.715 222.376 163.436 222.584C163.158 222.788 162.948 223.075 162.806 223.445C162.664 223.811 162.593 224.239 162.593 224.727Z" fill="#858D9D"/>
<path d="M199.057 219.273H200.319L203.284 226.517H203.387L206.353 219.273H207.614V228H206.625V221.369H206.54L203.813 228H202.858L200.131 221.369H200.046V228H199.057V219.273Z" fill="#858D9D"/>
<path d="M211.523 228.153C211.108 228.153 210.732 228.075 210.393 227.919C210.055 227.76 209.787 227.531 209.588 227.233C209.389 226.932 209.29 226.568 209.29 226.142C209.29 225.767 209.364 225.463 209.511 225.23C209.659 224.994 209.857 224.81 210.104 224.676C210.351 224.543 210.624 224.443 210.922 224.378C211.223 224.31 211.526 224.256 211.83 224.216C212.227 224.165 212.55 224.126 212.797 224.101C213.047 224.072 213.229 224.025 213.342 223.96C213.459 223.895 213.517 223.781 213.517 223.619V223.585C213.517 223.165 213.402 222.838 213.172 222.605C212.945 222.372 212.599 222.256 212.136 222.256C211.656 222.256 211.28 222.361 211.007 222.571C210.734 222.781 210.543 223.006 210.432 223.244L209.477 222.903C209.648 222.506 209.875 222.196 210.159 221.974C210.446 221.75 210.759 221.594 211.097 221.506C211.437 221.415 211.773 221.369 212.102 221.369C212.313 221.369 212.554 221.395 212.827 221.446C213.102 221.494 213.368 221.595 213.624 221.748C213.882 221.902 214.097 222.133 214.267 222.443C214.437 222.753 214.523 223.168 214.523 223.687V228H213.517V227.114H213.466C213.398 227.256 213.284 227.408 213.125 227.57C212.966 227.731 212.754 227.869 212.49 227.983C212.226 228.097 211.903 228.153 211.523 228.153ZM211.676 227.25C212.074 227.25 212.409 227.172 212.682 227.016C212.957 226.859 213.165 226.658 213.304 226.41C213.446 226.163 213.517 225.903 213.517 225.631V224.71C213.474 224.761 213.381 224.808 213.236 224.851C213.094 224.891 212.929 224.926 212.741 224.957C212.557 224.986 212.376 225.011 212.2 225.034C212.027 225.054 211.886 225.071 211.778 225.085C211.517 225.119 211.273 225.175 211.045 225.251C210.821 225.325 210.639 225.437 210.5 225.588C210.364 225.736 210.295 225.937 210.295 226.193C210.295 226.543 210.425 226.807 210.683 226.986C210.945 227.162 211.276 227.25 211.676 227.25Z" fill="#858D9D"/>
<path d="M216.358 228V221.454H217.33V222.443H217.398C217.517 222.119 217.733 221.856 218.046 221.655C218.358 221.453 218.711 221.352 219.103 221.352C219.176 221.352 219.269 221.354 219.38 221.356C219.49 221.359 219.574 221.364 219.631 221.369V222.392C219.597 222.383 219.519 222.371 219.397 222.354C219.277 222.334 219.151 222.324 219.017 222.324C218.699 222.324 218.415 222.391 218.165 222.524C217.918 222.655 217.722 222.837 217.577 223.07C217.435 223.3 217.364 223.562 217.364 223.858V228H216.358Z" fill="#858D9D"/>
<path d="M250.415 228H249.307L252.512 219.273H253.603L256.807 228H255.699L253.091 220.653H253.023L250.415 228ZM250.824 224.591H255.29V225.528H250.824V224.591Z" fill="#858D9D"/>
<path d="M258.03 230.454V221.454H259.002V222.494H259.121C259.195 222.381 259.297 222.236 259.428 222.06C259.561 221.881 259.752 221.721 259.999 221.582C260.249 221.44 260.587 221.369 261.013 221.369C261.564 221.369 262.05 221.507 262.471 221.783C262.891 222.058 263.219 222.449 263.455 222.954C263.691 223.46 263.809 224.057 263.809 224.744C263.809 225.437 263.691 226.038 263.455 226.547C263.219 227.052 262.892 227.445 262.475 227.723C262.057 227.998 261.576 228.136 261.03 228.136C260.61 228.136 260.273 228.067 260.02 227.927C259.767 227.785 259.573 227.625 259.436 227.446C259.3 227.264 259.195 227.114 259.121 226.994H259.036V230.454H258.03ZM259.019 224.727C259.019 225.222 259.091 225.658 259.236 226.035C259.381 226.41 259.593 226.704 259.871 226.918C260.15 227.128 260.49 227.233 260.894 227.233C261.314 227.233 261.665 227.122 261.946 226.9C262.23 226.676 262.444 226.375 262.586 225.997C262.73 225.616 262.803 225.193 262.803 224.727C262.803 224.267 262.732 223.852 262.59 223.483C262.451 223.111 262.239 222.817 261.955 222.601C261.674 222.382 261.32 222.273 260.894 222.273C260.485 222.273 260.141 222.376 259.863 222.584C259.584 222.788 259.374 223.075 259.232 223.445C259.09 223.811 259.019 224.239 259.019 224.727Z" fill="#858D9D"/>
<path d="M265.343 228V221.454H266.314V222.443H266.382C266.502 222.119 266.718 221.856 267.03 221.655C267.343 221.453 267.695 221.352 268.087 221.352C268.161 221.352 268.253 221.354 268.364 221.356C268.475 221.359 268.559 221.364 268.615 221.369V222.392C268.581 222.383 268.503 222.371 268.381 222.354C268.262 222.334 268.135 222.324 268.002 222.324C267.684 222.324 267.4 222.391 267.15 222.524C266.902 222.655 266.706 222.837 266.561 223.07C266.419 223.3 266.348 223.562 266.348 223.858V228H265.343Z" fill="#858D9D"/>
<path d="M299.057 219.273H300.319L303.284 226.517H303.387L306.353 219.273H307.614V228H306.625V221.369H306.54L303.813 228H302.858L300.131 221.369H300.046V228H299.057V219.273Z" fill="#858D9D"/>
<path d="M311.523 228.153C311.108 228.153 310.732 228.075 310.393 227.919C310.055 227.76 309.787 227.531 309.588 227.233C309.389 226.932 309.29 226.568 309.29 226.142C309.29 225.767 309.364 225.463 309.511 225.23C309.659 224.994 309.857 224.81 310.104 224.676C310.351 224.543 310.624 224.443 310.922 224.378C311.223 224.31 311.526 224.256 311.83 224.216C312.227 224.165 312.55 224.126 312.797 224.101C313.047 224.072 313.229 224.025 313.342 223.96C313.459 223.895 313.517 223.781 313.517 223.619V223.585C313.517 223.165 313.402 222.838 313.172 222.605C312.945 222.372 312.599 222.256 312.136 222.256C311.656 222.256 311.28 222.361 311.007 222.571C310.734 222.781 310.543 223.006 310.432 223.244L309.477 222.903C309.648 222.506 309.875 222.196 310.159 221.974C310.446 221.75 310.759 221.594 311.097 221.506C311.437 221.415 311.773 221.369 312.102 221.369C312.312 221.369 312.554 221.395 312.827 221.446C313.102 221.494 313.368 221.595 313.624 221.748C313.882 221.902 314.097 222.133 314.267 222.443C314.438 222.753 314.523 223.168 314.523 223.687V228H313.517V227.114H313.466C313.398 227.256 313.284 227.408 313.125 227.57C312.966 227.731 312.754 227.869 312.49 227.983C312.226 228.097 311.903 228.153 311.523 228.153ZM311.676 227.25C312.074 227.25 312.409 227.172 312.682 227.016C312.957 226.859 313.165 226.658 313.304 226.41C313.446 226.163 313.517 225.903 313.517 225.631V224.71C313.474 224.761 313.381 224.808 313.236 224.851C313.094 224.891 312.929 224.926 312.741 224.957C312.557 224.986 312.376 225.011 312.2 225.034C312.027 225.054 311.886 225.071 311.778 225.085C311.517 225.119 311.273 225.175 311.045 225.251C310.821 225.325 310.639 225.437 310.5 225.588C310.364 225.736 310.295 225.937 310.295 226.193C310.295 226.543 310.425 226.807 310.683 226.986C310.945 227.162 311.276 227.25 311.676 227.25Z" fill="#858D9D"/>
<path d="M316.772 230.454C316.601 230.454 316.449 230.44 316.316 230.412C316.182 230.386 316.09 230.361 316.039 230.335L316.294 229.449C316.539 229.511 316.755 229.534 316.942 229.517C317.13 229.5 317.296 229.416 317.441 229.266C317.588 229.118 317.723 228.878 317.846 228.545L318.033 228.034L315.613 221.454H316.703L318.51 226.67H318.578L320.385 221.454H321.476L318.698 228.954C318.573 229.293 318.418 229.572 318.233 229.794C318.049 230.018 317.834 230.185 317.59 230.293C317.348 230.4 317.076 230.454 316.772 230.454Z" fill="#858D9D"/>
<path d="M356.398 219.273H357.455V225.511C357.455 226.068 357.353 226.541 357.148 226.93C356.944 227.32 356.655 227.615 356.283 227.817C355.911 228.018 355.472 228.119 354.966 228.119C354.489 228.119 354.064 228.033 353.692 227.859C353.32 227.683 353.027 227.433 352.814 227.109C352.601 226.785 352.495 226.4 352.495 225.954H353.534C353.534 226.202 353.596 226.418 353.718 226.602C353.843 226.784 354.013 226.926 354.229 227.028C354.445 227.131 354.691 227.182 354.966 227.182C355.27 227.182 355.529 227.118 355.742 226.99C355.955 226.862 356.117 226.675 356.228 226.427C356.341 226.177 356.398 225.872 356.398 225.511V219.273Z" fill="#858D9D"/>
<path d="M363.561 225.324V221.454H364.567V228H363.561V226.892H363.493C363.34 227.224 363.101 227.507 362.777 227.74C362.453 227.97 362.044 228.085 361.55 228.085C361.141 228.085 360.777 227.996 360.459 227.817C360.141 227.635 359.891 227.362 359.709 226.998C359.527 226.632 359.436 226.17 359.436 225.614V221.454H360.442V225.545C360.442 226.023 360.576 226.403 360.843 226.687C361.113 226.971 361.456 227.114 361.874 227.114C362.124 227.114 362.378 227.05 362.637 226.922C362.898 226.794 363.117 226.598 363.293 226.334C363.472 226.07 363.561 225.733 363.561 225.324Z" fill="#858D9D"/>
<path d="M367.415 224.062V228H366.409V221.454H367.381V222.477H367.466C367.619 222.145 367.852 221.878 368.165 221.676C368.477 221.471 368.881 221.369 369.375 221.369C369.818 221.369 370.206 221.46 370.538 221.642C370.871 221.821 371.129 222.094 371.314 222.46C371.499 222.824 371.591 223.284 371.591 223.841V228H370.585V223.909C370.585 223.395 370.452 222.994 370.185 222.707C369.918 222.418 369.551 222.273 369.085 222.273C368.764 222.273 368.477 222.342 368.224 222.481C367.974 222.621 367.777 222.824 367.632 223.091C367.487 223.358 367.415 223.682 367.415 224.062Z" fill="#858D9D"/>
<path d="M406.398 219.273H407.455V225.511C407.455 226.068 407.353 226.541 407.148 226.93C406.944 227.32 406.655 227.615 406.283 227.817C405.911 228.018 405.472 228.119 404.966 228.119C404.489 228.119 404.064 228.033 403.692 227.859C403.32 227.683 403.027 227.433 402.814 227.109C402.601 226.785 402.495 226.4 402.495 225.954H403.534C403.534 226.202 403.596 226.418 403.718 226.602C403.843 226.784 404.013 226.926 404.229 227.028C404.445 227.131 404.691 227.182 404.966 227.182C405.27 227.182 405.529 227.118 405.742 226.99C405.955 226.862 406.117 226.675 406.228 226.427C406.341 226.177 406.398 225.872 406.398 225.511V219.273Z" fill="#858D9D"/>
<path d="M413.561 225.324V221.454H414.567V228H413.561V226.892H413.493C413.34 227.224 413.101 227.507 412.777 227.74C412.453 227.97 412.044 228.085 411.55 228.085C411.141 228.085 410.777 227.996 410.459 227.817C410.141 227.635 409.891 227.362 409.709 226.998C409.527 226.632 409.436 226.17 409.436 225.614V221.454H410.442V225.545C410.442 226.023 410.576 226.403 410.843 226.687C411.113 226.971 411.456 227.114 411.874 227.114C412.124 227.114 412.378 227.05 412.637 226.922C412.898 226.794 413.117 226.598 413.293 226.334C413.472 226.07 413.561 225.733 413.561 225.324Z" fill="#858D9D"/>
<path d="M417.415 219.273V228H416.409V219.273H417.415Z" fill="#858D9D"/>
<path d="M449.415 228H448.307L451.512 219.273H452.603L455.807 228H454.699L452.091 220.653H452.023L449.415 228ZM449.824 224.591H454.29V225.528H449.824V224.591Z" fill="#858D9D"/>
<path d="M461.155 225.324V221.454H462.161V228H461.155V226.892H461.087C460.934 227.224 460.695 227.507 460.371 227.74C460.047 227.97 459.638 228.085 459.144 228.085C458.735 228.085 458.371 227.996 458.053 227.817C457.735 227.635 457.485 227.362 457.303 226.998C457.121 226.632 457.03 226.17 457.03 225.614V221.454H458.036V225.545C458.036 226.023 458.169 226.403 458.436 226.687C458.706 226.971 459.05 227.114 459.468 227.114C459.718 227.114 459.972 227.05 460.23 226.922C460.492 226.794 460.711 226.598 460.887 226.334C461.066 226.07 461.155 225.733 461.155 225.324Z" fill="#858D9D"/>
<path d="M466.645 230.591C466.159 230.591 465.741 230.528 465.392 230.403C465.043 230.281 464.751 230.119 464.518 229.918C464.288 229.719 464.105 229.506 463.969 229.278L464.77 228.716C464.861 228.835 464.976 228.971 465.115 229.125C465.254 229.281 465.445 229.416 465.686 229.53C465.93 229.646 466.25 229.704 466.645 229.704C467.173 229.704 467.609 229.577 467.953 229.321C468.297 229.065 468.469 228.665 468.469 228.119V226.79H468.384C468.31 226.909 468.205 227.057 468.068 227.233C467.935 227.406 467.741 227.561 467.489 227.697C467.239 227.831 466.901 227.898 466.474 227.898C465.946 227.898 465.472 227.773 465.051 227.523C464.634 227.273 464.303 226.909 464.058 226.432C463.817 225.954 463.696 225.375 463.696 224.693C463.696 224.023 463.814 223.439 464.05 222.942C464.286 222.442 464.614 222.055 465.034 221.783C465.455 221.507 465.94 221.369 466.491 221.369C466.918 221.369 467.256 221.44 467.506 221.582C467.759 221.721 467.952 221.881 468.085 222.06C468.222 222.236 468.327 222.381 468.401 222.494H468.503V221.454H469.474V228.187C469.474 228.75 469.347 229.207 469.091 229.56C468.838 229.915 468.497 230.175 468.068 230.339C467.642 230.507 467.168 230.591 466.645 230.591ZM466.611 226.994C467.014 226.994 467.355 226.902 467.634 226.717C467.912 226.533 468.124 226.267 468.268 225.92C468.413 225.574 468.486 225.159 468.486 224.676C468.486 224.204 468.415 223.788 468.273 223.427C468.131 223.067 467.92 222.784 467.642 222.579C467.364 222.375 467.02 222.273 466.611 222.273C466.185 222.273 465.83 222.381 465.545 222.596C465.264 222.812 465.053 223.102 464.911 223.466C464.771 223.829 464.702 224.233 464.702 224.676C464.702 225.131 464.773 225.533 464.915 225.882C465.06 226.229 465.273 226.501 465.554 226.7C465.838 226.896 466.19 226.994 466.611 226.994Z" fill="#858D9D"/>
<path d="M502.057 219.273H503.319L506.284 226.517H506.387L509.353 219.273H510.614V228H509.625V221.369H509.54L506.813 228H505.858L503.131 221.369H503.046V228H502.057V219.273Z" fill="#858D9D"/>
<path d="M514.523 228.153C514.108 228.153 513.732 228.075 513.393 227.919C513.055 227.76 512.787 227.531 512.588 227.233C512.389 226.932 512.29 226.568 512.29 226.142C512.29 225.767 512.364 225.463 512.511 225.23C512.659 224.994 512.857 224.81 513.104 224.676C513.351 224.543 513.624 224.443 513.922 224.378C514.223 224.31 514.526 224.256 514.83 224.216C515.227 224.165 515.55 224.126 515.797 224.101C516.047 224.072 516.229 224.025 516.342 223.96C516.459 223.895 516.517 223.781 516.517 223.619V223.585C516.517 223.165 516.402 222.838 516.172 222.605C515.945 222.372 515.599 222.256 515.136 222.256C514.656 222.256 514.28 222.361 514.007 222.571C513.734 222.781 513.543 223.006 513.432 223.244L512.477 222.903C512.648 222.506 512.875 222.196 513.159 221.974C513.446 221.75 513.759 221.594 514.097 221.506C514.438 221.415 514.773 221.369 515.102 221.369C515.313 221.369 515.554 221.395 515.827 221.446C516.102 221.494 516.368 221.595 516.624 221.748C516.882 221.902 517.097 222.133 517.267 222.443C517.437 222.753 517.523 223.168 517.523 223.687V228H516.517V227.114H516.466C516.398 227.256 516.284 227.408 516.125 227.57C515.966 227.731 515.754 227.869 515.49 227.983C515.226 228.097 514.903 228.153 514.523 228.153ZM514.676 227.25C515.074 227.25 515.409 227.172 515.682 227.016C515.957 226.859 516.165 226.658 516.304 226.41C516.446 226.163 516.517 225.903 516.517 225.631V224.71C516.474 224.761 516.381 224.808 516.236 224.851C516.094 224.891 515.929 224.926 515.741 224.957C515.557 224.986 515.376 225.011 515.2 225.034C515.027 225.054 514.886 225.071 514.778 225.085C514.517 225.119 514.273 225.175 514.045 225.251C513.821 225.325 513.639 225.437 513.5 225.588C513.364 225.736 513.295 225.937 513.295 226.193C513.295 226.543 513.425 226.807 513.683 226.986C513.945 227.162 514.276 227.25 514.676 227.25Z" fill="#858D9D"/>
<path d="M519.772 230.454C519.601 230.454 519.449 230.44 519.316 230.412C519.182 230.386 519.09 230.361 519.039 230.335L519.294 229.449C519.539 229.511 519.755 229.534 519.942 229.517C520.13 229.5 520.296 229.416 520.441 229.266C520.588 229.118 520.723 228.878 520.846 228.545L521.033 228.034L518.613 221.454H519.703L521.51 226.67H521.578L523.385 221.454H524.476L521.698 228.954C521.573 229.293 521.418 229.572 521.233 229.794C521.049 230.018 520.834 230.185 520.59 230.293C520.348 230.4 520.076 230.454 519.772 230.454Z" fill="#858D9D"/>
<path d="M559.398 219.273H560.455V225.511C560.455 226.068 560.353 226.541 560.148 226.93C559.944 227.32 559.655 227.615 559.283 227.817C558.911 228.018 558.472 228.119 557.966 228.119C557.489 228.119 557.064 228.033 556.692 227.859C556.32 227.683 556.027 227.433 555.814 227.109C555.601 226.785 555.495 226.4 555.495 225.954H556.534C556.534 226.202 556.596 226.418 556.718 226.602C556.843 226.784 557.013 226.926 557.229 227.028C557.445 227.131 557.691 227.182 557.966 227.182C558.27 227.182 558.529 227.118 558.742 226.99C558.955 226.862 559.117 226.675 559.228 226.427C559.341 226.177 559.398 225.872 559.398 225.511V219.273Z" fill="#858D9D"/>
<path d="M566.561 225.324V221.454H567.567V228H566.561V226.892H566.493C566.34 227.224 566.101 227.507 565.777 227.74C565.453 227.97 565.044 228.085 564.55 228.085C564.141 228.085 563.777 227.996 563.459 227.817C563.141 227.635 562.891 227.362 562.709 226.998C562.527 226.632 562.436 226.17 562.436 225.614V221.454H563.442V225.545C563.442 226.023 563.576 226.403 563.843 226.687C564.113 226.971 564.456 227.114 564.874 227.114C565.124 227.114 565.378 227.05 565.637 226.922C565.898 226.794 566.117 226.598 566.293 226.334C566.472 226.07 566.561 225.733 566.561 225.324Z" fill="#858D9D"/>
<path d="M570.415 224.062V228H569.409V221.454H570.381V222.477H570.466C570.619 222.145 570.852 221.878 571.165 221.676C571.477 221.471 571.881 221.369 572.375 221.369C572.818 221.369 573.206 221.46 573.538 221.642C573.871 221.821 574.129 222.094 574.314 222.46C574.499 222.824 574.591 223.284 574.591 223.841V228H573.585V223.909C573.585 223.395 573.452 222.994 573.185 222.707C572.918 222.418 572.551 222.273 572.085 222.273C571.764 222.273 571.477 222.342 571.224 222.481C570.974 222.621 570.777 222.824 570.632 223.091C570.487 223.358 570.415 223.682 570.415 224.062Z" fill="#858D9D"/>
<path d="M100.057 258V249.273H103.006C103.691 249.273 104.25 249.396 104.685 249.643C105.123 249.888 105.446 250.219 105.657 250.636C105.867 251.054 105.972 251.52 105.972 252.034C105.972 252.548 105.867 253.016 105.657 253.436C105.449 253.856 105.128 254.192 104.694 254.442C104.259 254.689 103.702 254.812 103.023 254.812H100.909V253.875H102.989C103.458 253.875 103.834 253.794 104.118 253.632C104.402 253.47 104.608 253.251 104.736 252.976C104.867 252.697 104.932 252.383 104.932 252.034C104.932 251.685 104.867 251.372 104.736 251.096C104.608 250.821 104.401 250.605 104.114 250.449C103.827 250.29 103.446 250.21 102.972 250.21H101.114V258H100.057Z" fill="#667085"/>
<path d="M111.663 255.324V251.454H112.669V258H111.663V256.892H111.595C111.441 257.224 111.203 257.507 110.879 257.74C110.555 257.97 110.146 258.085 109.652 258.085C109.243 258.085 108.879 257.996 108.561 257.817C108.243 257.635 107.993 257.362 107.811 256.999C107.629 256.632 107.538 256.17 107.538 255.614V251.454H108.544V255.545C108.544 256.023 108.677 256.403 108.944 256.687C109.214 256.971 109.558 257.114 109.975 257.114C110.225 257.114 110.48 257.05 110.738 256.922C111 256.794 111.218 256.598 111.395 256.334C111.574 256.07 111.663 255.733 111.663 255.324Z" fill="#667085"/>
<path d="M114.511 258V251.454H115.482V252.443H115.55C115.67 252.119 115.886 251.856 116.198 251.655C116.511 251.453 116.863 251.352 117.255 251.352C117.329 251.352 117.421 251.354 117.532 251.356C117.643 251.359 117.727 251.364 117.783 251.369V252.392C117.749 252.383 117.671 252.371 117.549 252.354C117.43 252.334 117.303 252.324 117.17 252.324C116.852 252.324 116.567 252.391 116.317 252.524C116.07 252.655 115.874 252.837 115.729 253.07C115.587 253.3 115.516 253.562 115.516 253.858V258H114.511Z" fill="#667085"/>
<path d="M121.435 258.136C120.822 258.136 120.293 257.991 119.85 257.702C119.407 257.412 119.066 257.013 118.827 256.504C118.589 255.996 118.469 255.415 118.469 254.761C118.469 254.097 118.592 253.51 118.836 253.001C119.083 252.49 119.427 252.091 119.867 251.804C120.31 251.514 120.827 251.369 121.418 251.369C121.879 251.369 122.293 251.454 122.663 251.625C123.032 251.795 123.335 252.034 123.57 252.341C123.806 252.648 123.952 253.006 124.009 253.415H123.004C122.927 253.116 122.756 252.852 122.492 252.622C122.231 252.389 121.879 252.273 121.435 252.273C121.043 252.273 120.7 252.375 120.404 252.579C120.112 252.781 119.883 253.067 119.718 253.436C119.556 253.802 119.475 254.233 119.475 254.727C119.475 255.233 119.555 255.673 119.714 256.048C119.876 256.423 120.103 256.714 120.396 256.922C120.691 257.129 121.038 257.233 121.435 257.233C121.697 257.233 121.934 257.187 122.147 257.096C122.36 257.006 122.54 256.875 122.688 256.704C122.836 256.534 122.941 256.329 123.004 256.091H124.009C123.952 256.477 123.812 256.825 123.587 257.135C123.366 257.442 123.072 257.686 122.705 257.868C122.342 258.047 121.918 258.136 121.435 258.136Z" fill="#667085"/>
<path d="M126.485 254.062V258H125.479V249.273H126.485V252.477H126.57C126.724 252.139 126.954 251.871 127.261 251.672C127.57 251.47 127.982 251.369 128.496 251.369C128.942 251.369 129.333 251.459 129.668 251.638C130.004 251.814 130.263 252.085 130.448 252.452C130.636 252.815 130.729 253.278 130.729 253.841V258H129.724V253.909C129.724 253.389 129.589 252.987 129.319 252.703C129.052 252.416 128.681 252.273 128.207 252.273C127.877 252.273 127.582 252.342 127.32 252.481C127.062 252.621 126.857 252.824 126.707 253.091C126.559 253.358 126.485 253.682 126.485 254.062Z" fill="#667085"/>
<path d="M134.495 258.153C134.081 258.153 133.704 258.075 133.366 257.919C133.028 257.76 132.76 257.531 132.561 257.233C132.362 256.932 132.262 256.568 132.262 256.142C132.262 255.767 132.336 255.463 132.484 255.23C132.632 254.994 132.829 254.81 133.076 254.676C133.324 254.543 133.596 254.443 133.895 254.378C134.196 254.31 134.498 254.256 134.802 254.216C135.2 254.165 135.522 254.126 135.77 254.101C136.02 254.072 136.201 254.025 136.315 253.96C136.431 253.895 136.49 253.781 136.49 253.619V253.585C136.49 253.165 136.375 252.838 136.145 252.605C135.917 252.372 135.572 252.256 135.109 252.256C134.629 252.256 134.252 252.361 133.98 252.571C133.707 252.781 133.515 253.006 133.404 253.244L132.45 252.903C132.62 252.506 132.848 252.196 133.132 251.974C133.419 251.75 133.731 251.594 134.069 251.506C134.41 251.415 134.745 251.369 135.075 251.369C135.285 251.369 135.527 251.395 135.799 251.446C136.075 251.494 136.341 251.595 136.596 251.748C136.855 251.902 137.069 252.133 137.24 252.443C137.41 252.753 137.495 253.168 137.495 253.687V258H136.49V257.114H136.439C136.37 257.256 136.257 257.408 136.098 257.57C135.939 257.731 135.727 257.869 135.463 257.983C135.199 258.097 134.876 258.153 134.495 258.153ZM134.649 257.25C135.047 257.25 135.382 257.172 135.654 257.016C135.93 256.859 136.137 256.658 136.277 256.41C136.419 256.163 136.49 255.903 136.49 255.631V254.71C136.447 254.761 136.353 254.808 136.208 254.851C136.066 254.891 135.902 254.926 135.714 254.957C135.529 254.986 135.349 255.011 135.173 255.034C135 255.054 134.859 255.071 134.751 255.085C134.49 255.119 134.245 255.175 134.018 255.251C133.794 255.325 133.612 255.437 133.473 255.588C133.336 255.736 133.268 255.937 133.268 256.193C133.268 256.543 133.397 256.807 133.656 256.986C133.917 257.162 134.248 257.25 134.649 257.25Z" fill="#667085"/>
<path d="M143.967 252.92L143.064 253.176C143.007 253.025 142.923 252.879 142.812 252.737C142.705 252.592 142.557 252.473 142.369 252.379C142.182 252.285 141.942 252.239 141.649 252.239C141.249 252.239 140.915 252.331 140.648 252.516C140.384 252.697 140.251 252.929 140.251 253.21C140.251 253.46 140.342 253.658 140.524 253.802C140.706 253.947 140.99 254.068 141.376 254.165L142.348 254.403C142.933 254.545 143.369 254.763 143.656 255.055C143.943 255.345 144.087 255.719 144.087 256.176C144.087 256.551 143.979 256.886 143.763 257.182C143.55 257.477 143.251 257.71 142.868 257.881C142.484 258.051 142.038 258.136 141.53 258.136C140.862 258.136 140.31 257.991 139.872 257.702C139.435 257.412 139.158 256.989 139.041 256.432L139.996 256.193C140.087 256.545 140.259 256.81 140.511 256.986C140.767 257.162 141.101 257.25 141.513 257.25C141.982 257.25 142.354 257.15 142.629 256.952C142.908 256.75 143.047 256.508 143.047 256.227C143.047 256 142.967 255.81 142.808 255.656C142.649 255.5 142.405 255.383 142.075 255.307L140.984 255.051C140.385 254.909 139.945 254.689 139.663 254.391C139.385 254.089 139.246 253.713 139.246 253.261C139.246 252.892 139.349 252.565 139.557 252.281C139.767 251.997 140.053 251.774 140.413 251.612C140.777 251.45 141.189 251.369 141.649 251.369C142.297 251.369 142.805 251.511 143.175 251.795C143.547 252.079 143.811 252.454 143.967 252.92Z" fill="#667085"/>
<path d="M148.345 258.136C147.714 258.136 147.17 257.997 146.713 257.719C146.258 257.437 145.907 257.045 145.66 256.543C145.416 256.037 145.294 255.449 145.294 254.778C145.294 254.108 145.416 253.517 145.66 253.006C145.907 252.491 146.251 252.091 146.691 251.804C147.135 251.514 147.652 251.369 148.243 251.369C148.583 251.369 148.92 251.426 149.252 251.54C149.585 251.653 149.887 251.838 150.16 252.094C150.433 252.346 150.65 252.682 150.812 253.099C150.974 253.517 151.055 254.031 151.055 254.642V255.068H146.01V254.199H150.032C150.032 253.829 149.958 253.5 149.811 253.21C149.666 252.92 149.458 252.692 149.189 252.524C148.922 252.356 148.606 252.273 148.243 252.273C147.842 252.273 147.495 252.372 147.203 252.571C146.913 252.767 146.69 253.023 146.534 253.338C146.377 253.653 146.299 253.991 146.299 254.352V254.932C146.299 255.426 146.385 255.845 146.555 256.189C146.728 256.53 146.968 256.79 147.275 256.969C147.582 257.145 147.939 257.233 148.345 257.233C148.609 257.233 148.848 257.196 149.061 257.122C149.277 257.045 149.463 256.932 149.619 256.781C149.775 256.628 149.896 256.437 149.981 256.21L150.953 256.483C150.851 256.812 150.679 257.102 150.437 257.352C150.196 257.599 149.897 257.793 149.542 257.932C149.187 258.068 148.788 258.136 148.345 258.136Z" fill="#667085"/>
<path d="M203.83 252.454C203.779 252.023 203.571 251.687 203.208 251.449C202.844 251.21 202.398 251.091 201.87 251.091C201.483 251.091 201.145 251.153 200.855 251.278C200.569 251.403 200.344 251.575 200.182 251.794C200.023 252.013 199.944 252.261 199.944 252.54C199.944 252.773 199.999 252.973 200.11 253.141C200.223 253.305 200.368 253.443 200.544 253.554C200.721 253.662 200.905 253.751 201.098 253.822C201.292 253.891 201.469 253.946 201.631 253.989L202.517 254.227C202.745 254.287 202.998 254.369 203.276 254.474C203.557 254.579 203.826 254.723 204.081 254.905C204.34 255.084 204.553 255.314 204.721 255.595C204.888 255.876 204.972 256.221 204.972 256.631C204.972 257.102 204.848 257.528 204.601 257.909C204.357 258.29 203.999 258.592 203.527 258.817C203.059 259.041 202.489 259.153 201.819 259.153C201.194 259.153 200.652 259.052 200.195 258.851C199.74 258.649 199.382 258.368 199.121 258.007C198.863 257.646 198.716 257.227 198.682 256.75H199.773C199.801 257.079 199.912 257.352 200.105 257.568C200.301 257.781 200.549 257.94 200.847 258.045C201.148 258.148 201.472 258.199 201.819 258.199C202.222 258.199 202.584 258.133 202.905 258.003C203.226 257.869 203.48 257.685 203.668 257.449C203.855 257.21 203.949 256.932 203.949 256.614C203.949 256.324 203.868 256.088 203.706 255.906C203.544 255.724 203.331 255.577 203.067 255.463C202.803 255.349 202.517 255.25 202.211 255.165L201.137 254.858C200.455 254.662 199.915 254.382 199.517 254.018C199.12 253.655 198.921 253.179 198.921 252.591C198.921 252.102 199.053 251.676 199.317 251.312C199.584 250.946 199.942 250.662 200.391 250.46C200.843 250.256 201.347 250.153 201.904 250.153C202.466 250.153 202.966 250.254 203.404 250.456C203.841 250.655 204.188 250.927 204.444 251.274C204.702 251.621 204.838 252.014 204.853 252.454H203.83Z" fill="#667085"/>
<path d="M208.499 259.153C208.085 259.153 207.708 259.075 207.37 258.919C207.032 258.76 206.763 258.531 206.565 258.233C206.366 257.932 206.266 257.568 206.266 257.142C206.266 256.767 206.34 256.463 206.488 256.23C206.636 255.994 206.833 255.81 207.08 255.676C207.327 255.543 207.6 255.443 207.898 255.378C208.2 255.31 208.502 255.256 208.806 255.216C209.204 255.165 209.526 255.126 209.773 255.101C210.023 255.072 210.205 255.025 210.319 254.96C210.435 254.895 210.494 254.781 210.494 254.619V254.585C210.494 254.165 210.379 253.838 210.148 253.605C209.921 253.372 209.576 253.256 209.113 253.256C208.633 253.256 208.256 253.361 207.984 253.571C207.711 253.781 207.519 254.006 207.408 254.244L206.454 253.903C206.624 253.506 206.852 253.196 207.136 252.974C207.423 252.75 207.735 252.594 208.073 252.506C208.414 252.415 208.749 252.369 209.079 252.369C209.289 252.369 209.531 252.395 209.803 252.446C210.079 252.494 210.344 252.595 210.6 252.748C210.859 252.902 211.073 253.133 211.244 253.443C211.414 253.753 211.499 254.168 211.499 254.687V259H210.494V258.114H210.442C210.374 258.256 210.261 258.408 210.102 258.57C209.942 258.731 209.731 258.869 209.467 258.983C209.202 259.097 208.88 259.153 208.499 259.153ZM208.653 258.25C209.05 258.25 209.386 258.172 209.658 258.016C209.934 257.859 210.141 257.658 210.281 257.41C210.423 257.163 210.494 256.903 210.494 256.631V255.71C210.451 255.761 210.357 255.808 210.212 255.851C210.07 255.891 209.906 255.926 209.718 255.957C209.533 255.986 209.353 256.011 209.177 256.034C209.004 256.054 208.863 256.071 208.755 256.085C208.494 256.119 208.249 256.175 208.022 256.251C207.798 256.325 207.616 256.437 207.477 256.588C207.34 256.736 207.272 256.937 207.272 257.193C207.272 257.543 207.401 257.807 207.66 257.986C207.921 258.162 208.252 258.25 208.653 258.25Z" fill="#667085"/>
<path d="M214.341 250.273V259H213.335V250.273H214.341Z" fill="#667085"/>
<path d="M218.927 259.136C218.296 259.136 217.752 258.997 217.295 258.719C216.84 258.437 216.489 258.045 216.242 257.543C215.998 257.037 215.876 256.449 215.876 255.778C215.876 255.108 215.998 254.517 216.242 254.006C216.489 253.491 216.833 253.091 217.273 252.804C217.717 252.514 218.234 252.369 218.825 252.369C219.165 252.369 219.502 252.426 219.835 252.54C220.167 252.653 220.469 252.838 220.742 253.094C221.015 253.346 221.232 253.682 221.394 254.099C221.556 254.517 221.637 255.031 221.637 255.642V256.068H216.592V255.199H220.614C220.614 254.829 220.54 254.5 220.393 254.21C220.248 253.92 220.04 253.692 219.771 253.524C219.504 253.356 219.188 253.273 218.825 253.273C218.424 253.273 218.077 253.372 217.785 253.571C217.495 253.767 217.272 254.023 217.116 254.338C216.96 254.653 216.881 254.991 216.881 255.352V255.932C216.881 256.426 216.967 256.845 217.137 257.189C217.31 257.53 217.55 257.79 217.857 257.969C218.164 258.145 218.521 258.233 218.927 258.233C219.191 258.233 219.43 258.196 219.643 258.122C219.859 258.045 220.045 257.932 220.201 257.781C220.357 257.628 220.478 257.437 220.563 257.21L221.535 257.483C221.433 257.812 221.261 258.102 221.019 258.352C220.778 258.599 220.479 258.793 220.124 258.932C219.769 259.068 219.37 259.136 218.927 259.136Z" fill="#667085"/>
<path d="M227.803 253.92L226.9 254.176C226.843 254.025 226.759 253.879 226.648 253.737C226.54 253.592 226.393 253.473 226.205 253.379C226.018 253.285 225.778 253.239 225.485 253.239C225.085 253.239 224.751 253.331 224.484 253.516C224.219 253.697 224.087 253.929 224.087 254.21C224.087 254.46 224.178 254.658 224.36 254.802C224.542 254.947 224.826 255.068 225.212 255.165L226.184 255.403C226.769 255.545 227.205 255.763 227.492 256.055C227.779 256.345 227.923 256.719 227.923 257.176C227.923 257.551 227.815 257.886 227.599 258.182C227.386 258.477 227.087 258.71 226.704 258.881C226.32 259.051 225.874 259.136 225.366 259.136C224.698 259.136 224.146 258.991 223.708 258.702C223.271 258.412 222.994 257.989 222.877 257.432L223.832 257.193C223.923 257.545 224.094 257.81 224.347 257.986C224.603 258.162 224.937 258.25 225.349 258.25C225.817 258.25 226.19 258.15 226.465 257.952C226.744 257.75 226.883 257.508 226.883 257.227C226.883 257 226.803 256.81 226.644 256.656C226.485 256.5 226.241 256.383 225.911 256.307L224.82 256.051C224.221 255.909 223.781 255.689 223.499 255.391C223.221 255.089 223.082 254.713 223.082 254.261C223.082 253.892 223.185 253.565 223.393 253.281C223.603 252.997 223.888 252.774 224.249 252.612C224.613 252.45 225.025 252.369 225.485 252.369C226.133 252.369 226.641 252.511 227.011 252.795C227.383 253.079 227.647 253.454 227.803 253.92Z" fill="#667085"/>
<path d="M90.9914 255.5C90.9963 259.642 87.6425 263.004 83.5004 263.009C79.3582 263.014 75.9963 259.66 75.9914 255.518C75.9864 251.376 79.3402 248.014 83.4824 248.009C87.6245 248.004 90.9864 251.358 90.9914 255.5Z" fill="url(#paint20_linear_2615_646)"/>
<path d="M190.014 255.5C190.006 259.642 186.642 262.994 182.5 262.986C178.358 262.979 175.006 259.615 175.014 255.473C175.022 251.33 178.386 247.979 182.528 247.986C186.67 247.994 190.022 251.358 190.014 255.5Z" fill="url(#paint21_linear_2615_646)"/>
<defs>
<linearGradient id="paint0_linear_2615_646" x1="296.85" y1="0.15332" x2="296.85" y2="263.009" gradientUnits="userSpaceOnUse">
<stop stop-color="#817AF3"/>
<stop offset="0.479167" stop-color="#74B0FA"/>
<stop offset="1" stop-color="#79D0F1"/>
</linearGradient>
<linearGradient id="paint1_linear_2615_646" x1="182.5" y1="262.986" x2="182.527" y2="247.986" gradientUnits="userSpaceOnUse">
<stop stop-color="#46A46C"/>
<stop offset="0.479167" stop-color="#51CC5D"/>
<stop offset="1" stop-color="#57DA65"/>
</linearGradient>
<linearGradient id="paint2_linear_2615_646" x1="296.85" y1="0.15332" x2="296.85" y2="263.009" gradientUnits="userSpaceOnUse">
<stop stop-color="#817AF3"/>
<stop offset="0.479167" stop-color="#74B0FA"/>
<stop offset="1" stop-color="#79D0F1"/>
</linearGradient>
<linearGradient id="paint3_linear_2615_646" x1="182.5" y1="262.986" x2="182.527" y2="247.986" gradientUnits="userSpaceOnUse">
<stop stop-color="#46A46C"/>
<stop offset="0.479167" stop-color="#51CC5D"/>
<stop offset="1" stop-color="#57DA65"/>
</linearGradient>
<linearGradient id="paint4_linear_2615_646" x1="296.85" y1="0.15332" x2="296.85" y2="263.009" gradientUnits="userSpaceOnUse">
<stop stop-color="#817AF3"/>
<stop offset="0.479167" stop-color="#74B0FA"/>
<stop offset="1" stop-color="#79D0F1"/>
</linearGradient>
<linearGradient id="paint5_linear_2615_646" x1="182.5" y1="262.986" x2="182.527" y2="247.986" gradientUnits="userSpaceOnUse">
<stop stop-color="#46A46C"/>
<stop offset="0.479167" stop-color="#51CC5D"/>
<stop offset="1" stop-color="#57DA65"/>
</linearGradient>
<linearGradient id="paint6_linear_2615_646" x1="296.85" y1="0.15332" x2="296.85" y2="263.009" gradientUnits="userSpaceOnUse">
<stop stop-color="#817AF3"/>
<stop offset="0.479167" stop-color="#74B0FA"/>
<stop offset="1" stop-color="#79D0F1"/>
</linearGradient>
<linearGradient id="paint7_linear_2615_646" x1="182.5" y1="262.986" x2="182.527" y2="247.986" gradientUnits="userSpaceOnUse">
<stop stop-color="#46A46C"/>
<stop offset="0.479167" stop-color="#51CC5D"/>
<stop offset="1" stop-color="#57DA65"/>
</linearGradient>
<linearGradient id="paint8_linear_2615_646" x1="296.85" y1="0.15332" x2="296.85" y2="263.009" gradientUnits="userSpaceOnUse">
<stop stop-color="#817AF3"/>
<stop offset="0.479167" stop-color="#74B0FA"/>
<stop offset="1" stop-color="#79D0F1"/>
</linearGradient>
<linearGradient id="paint9_linear_2615_646" x1="182.5" y1="262.986" x2="182.527" y2="247.986" gradientUnits="userSpaceOnUse">
<stop stop-color="#46A46C"/>
<stop offset="0.479167" stop-color="#51CC5D"/>
<stop offset="1" stop-color="#57DA65"/>
</linearGradient>
<linearGradient id="paint10_linear_2615_646" x1="296.85" y1="0.15332" x2="296.85" y2="263.009" gradientUnits="userSpaceOnUse">
<stop stop-color="#817AF3"/>
<stop offset="0.479167" stop-color="#74B0FA"/>
<stop offset="1" stop-color="#79D0F1"/>
</linearGradient>
<linearGradient id="paint11_linear_2615_646" x1="182.5" y1="262.986" x2="182.527" y2="247.986" gradientUnits="userSpaceOnUse">
<stop stop-color="#46A46C"/>
<stop offset="0.479167" stop-color="#51CC5D"/>
<stop offset="1" stop-color="#57DA65"/>
</linearGradient>
<linearGradient id="paint12_linear_2615_646" x1="296.85" y1="0.15332" x2="296.85" y2="263.009" gradientUnits="userSpaceOnUse">
<stop stop-color="#817AF3"/>
<stop offset="0.479167" stop-color="#74B0FA"/>
<stop offset="1" stop-color="#79D0F1"/>
</linearGradient>
<linearGradient id="paint13_linear_2615_646" x1="182.5" y1="262.986" x2="182.527" y2="247.986" gradientUnits="userSpaceOnUse">
<stop stop-color="#46A46C"/>
<stop offset="0.479167" stop-color="#51CC5D"/>
<stop offset="1" stop-color="#57DA65"/>
</linearGradient>
<linearGradient id="paint14_linear_2615_646" x1="296.85" y1="0.15332" x2="296.85" y2="263.009" gradientUnits="userSpaceOnUse">
<stop stop-color="#817AF3"/>
<stop offset="0.479167" stop-color="#74B0FA"/>
<stop offset="1" stop-color="#79D0F1"/>
</linearGradient>
<linearGradient id="paint15_linear_2615_646" x1="182.5" y1="262.986" x2="182.527" y2="247.986" gradientUnits="userSpaceOnUse">
<stop stop-color="#46A46C"/>
<stop offset="0.479167" stop-color="#51CC5D"/>
<stop offset="1" stop-color="#57DA65"/>
</linearGradient>
<linearGradient id="paint16_linear_2615_646" x1="296.85" y1="0.15332" x2="296.85" y2="263.009" gradientUnits="userSpaceOnUse">
<stop stop-color="#817AF3"/>
<stop offset="0.479167" stop-color="#74B0FA"/>
<stop offset="1" stop-color="#79D0F1"/>
</linearGradient>
<linearGradient id="paint17_linear_2615_646" x1="182.5" y1="262.986" x2="182.527" y2="247.986" gradientUnits="userSpaceOnUse">
<stop stop-color="#46A46C"/>
<stop offset="0.479167" stop-color="#51CC5D"/>
<stop offset="1" stop-color="#57DA65"/>
</linearGradient>
<linearGradient id="paint18_linear_2615_646" x1="296.85" y1="0.15332" x2="296.85" y2="263.009" gradientUnits="userSpaceOnUse">
<stop stop-color="#817AF3"/>
<stop offset="0.479167" stop-color="#74B0FA"/>
<stop offset="1" stop-color="#79D0F1"/>
</linearGradient>
<linearGradient id="paint19_linear_2615_646" x1="182.5" y1="262.986" x2="182.527" y2="247.986" gradientUnits="userSpaceOnUse">
<stop stop-color="#46A46C"/>
<stop offset="0.479167" stop-color="#51CC5D"/>
<stop offset="1" stop-color="#57DA65"/>
</linearGradient>
<linearGradient id="paint20_linear_2615_646" x1="296.85" y1="0.15332" x2="296.85" y2="263.009" gradientUnits="userSpaceOnUse">
<stop stop-color="#817AF3"/>
<stop offset="0.479167" stop-color="#74B0FA"/>
<stop offset="1" stop-color="#79D0F1"/>
</linearGradient>
<linearGradient id="paint21_linear_2615_646" x1="182.5" y1="262.986" x2="182.527" y2="247.986" gradientUnits="userSpaceOnUse">
<stop stop-color="#46A46C"/>
<stop offset="0.479167" stop-color="#51CC5D"/>
<stop offset="1" stop-color="#57DA65"/>
</linearGradient>
</defs>
</svg>
