

<svg width="18" height="18" viewBox="0 0 18 18" fill="none" xmlns="http://www.w3.org/2000/svg">
<path d="M10.4417 16.5001C10.2952 16.7526 10.0849 16.9623 9.83185 17.108C9.57884 17.2538 9.29198 17.3305 9 17.3305C8.70802 17.3305 8.42116 17.2538 8.16814 17.108C7.91513 16.9623 7.70484 16.7526 7.55833 16.5001M14 5.66675C14 4.34067 13.4732 3.0689 12.5355 2.13121C11.5979 1.19353 10.3261 0.666748 9 0.666748C7.67392 0.666748 6.40215 1.19353 5.46447 2.13121C4.52678 3.0689 4 4.34067 4 5.66675C4 11.5001 1.5 13.1667 1.5 13.1667H16.5C16.5 13.1667 14 11.5001 14 5.66675Z" stroke="#5D6679" stroke-width="1.2" stroke-linecap="round" stroke-linejoin="round"/>
</svg>
