<svg width="26" height="20" viewBox="0 0 26 20" fill="none" xmlns="http://www.w3.org/2000/svg">
<g id="Cancel">
<g id="Group 33">
<path id="Vector" d="M8.73701 14.3687C8.73701 14.1802 8.58691 14.0278 8.40115 14.0278H3.19621C3.01045 14.0278 2.86035 14.1802 2.86035 14.3687C2.86035 14.5573 3.01045 14.7096 3.19621 14.7096H8.40488C8.58664 14.7096 8.73692 14.5573 8.73692 14.3687H8.73701Z" fill="#817AF3"/>
<path id="Vector_2" d="M3.19621 15.4634C3.01045 15.4634 2.86035 15.6157 2.86035 15.8043C2.86035 15.9928 3.01045 16.1452 3.19621 16.1452H6.02574C6.21151 16.1452 6.3616 15.9928 6.3616 15.8043C6.3616 15.6157 6.2115 15.4634 6.02574 15.4634H3.19621Z" fill="#817AF3"/>
<path id="Vector_3" d="M20.5182 8.18311C17.5464 8.18311 15.1279 10.638 15.1279 13.6543C15.1279 16.6708 17.5465 19.1256 20.5182 19.1256C23.4901 19.1256 25.9086 16.6707 25.9086 13.6543C25.9086 10.638 23.49 8.18311 20.5182 8.18311ZM20.5182 18.4439C17.9178 18.4439 15.7996 16.2938 15.7996 13.6543C15.7996 11.0148 17.9179 8.86482 20.5182 8.86482C23.1187 8.86482 25.2369 11.0149 25.2369 13.6543C25.2371 16.2937 23.1228 18.4439 20.5182 18.4439Z" fill="#817AF3"/>
<path id="Vector_4" d="M23.7115 11.7328C23.7115 11.3799 23.5771 11.0469 23.3322 10.7981C22.8302 10.2886 22.0082 10.2886 21.4984 10.7981L20.5223 11.7889L19.5422 10.7941C19.0403 10.2927 18.2182 10.2927 17.7125 10.7981C17.4674 11.0469 17.3291 11.3799 17.3291 11.7328C17.3291 12.0857 17.4636 12.4187 17.7125 12.6674L18.6846 13.6582L17.7125 14.6449C17.4674 14.8936 17.3291 15.2266 17.3291 15.5795C17.3291 15.9324 17.4636 16.2615 17.7125 16.5142C18.1788 16.9875 19.0837 16.9875 19.5462 16.5142L20.5223 15.5234L21.4984 16.5142C21.7395 16.7589 22.0754 16.8992 22.4153 16.8992C22.7551 16.8992 23.091 16.7589 23.3321 16.5142C23.5771 16.2654 23.7114 15.9324 23.7114 15.5795C23.7114 15.2266 23.577 14.8936 23.3321 14.6449L22.36 13.6582L23.3321 12.6674C23.5733 12.4148 23.7116 12.0859 23.7116 11.7328L23.7115 11.7328ZM22.8541 12.1821L21.6447 13.4135C21.5143 13.5459 21.5143 13.7625 21.6447 13.8949L22.8541 15.1225C22.9727 15.2429 23.0358 15.4032 23.0358 15.5718C23.0358 15.7402 22.9725 15.9007 22.8541 16.0211C22.6208 16.2578 22.202 16.2578 21.9687 16.0211L20.7556 14.7897C20.6884 14.7215 20.6055 14.6894 20.5185 14.6894C20.4315 14.6894 20.3446 14.7215 20.2814 14.7897L19.0682 16.0211C18.8508 16.2418 18.4003 16.2418 18.1869 16.0211C18.0683 15.9007 18.0012 15.7404 18.0012 15.5718C18.0012 15.4033 18.0683 15.2429 18.1869 15.1225L19.4001 13.8949C19.4634 13.8307 19.4989 13.7426 19.4989 13.6543C19.4989 13.562 19.4634 13.4778 19.4001 13.4137L18.1869 12.1823C18.0683 12.0619 18.0012 11.9016 18.0012 11.733C18.0012 11.5646 18.0683 11.4041 18.1829 11.2837C18.428 11.039 18.8232 11.039 19.0642 11.2796L20.2814 12.511C20.4119 12.6434 20.6253 12.6434 20.7558 12.511L21.9651 11.2835C22.2102 11.0388 22.6094 11.0347 22.8505 11.2835C22.9691 11.4039 23.0322 11.5642 23.0322 11.7328C23.0359 11.9012 22.9725 12.0617 22.8541 12.1821L22.8541 12.1821Z" fill="#817AF3"/>
<path id="Vector_5" d="M16.2934 18.1833H3.52066C2.44977 18.1833 1.58028 17.3008 1.58028 16.2138V2.65558C1.58028 1.56861 2.44977 0.686066 3.52066 0.686066H7.64251V4.90601C7.64251 5.17877 7.78079 5.41938 8.01403 5.55586C8.12865 5.62401 8.2551 5.65614 8.38155 5.65614C8.508 5.65614 8.63845 5.62013 8.75307 5.5518L10.243 4.66538C10.2628 4.65337 10.2905 4.65337 10.3101 4.66538L11.8 5.54792C12.0292 5.6844 12.3098 5.68828 12.539 5.55199C12.7723 5.41552 12.9106 5.17489 12.9106 4.90213L12.9104 0.682002H17.0322C18.1031 0.682002 18.9766 1.56455 18.9766 2.65152V7.27661C18.9766 7.46516 19.1267 7.61751 19.3125 7.61751C19.4982 7.61751 19.6483 7.46516 19.6483 7.27661L19.6485 2.65152C19.6485 1.18743 18.4748 0 17.0324 0L3.5205 0.000184671C2.07807 0.000184671 0.908203 1.19149 0.908203 2.6517V16.21C0.908203 17.674 2.08189 18.8615 3.5205 18.8615L16.2932 18.8613C16.479 18.8613 16.6291 18.7089 16.6291 18.5204C16.6293 18.3357 16.479 18.1834 16.2932 18.1834L16.2934 18.1833ZM12.2388 4.90213C12.2388 4.92614 12.227 4.94627 12.2072 4.95827C12.1835 4.97027 12.1637 4.97027 12.14 4.95827L10.6501 4.07572C10.5355 4.00758 10.4051 3.97139 10.2786 3.97139C10.1482 3.97139 10.0217 4.0074 9.9071 4.07572L8.41721 4.96215C8.39737 4.97415 8.37372 4.97415 8.35007 4.96215C8.32642 4.95014 8.31841 4.93001 8.31841 4.90601V0.682189H12.2427V4.90213H12.2388Z" fill="#817AF3"/>
<path id="Vector_6" d="M11.6857 13.4377H14.1439C14.3296 13.4377 14.4797 13.2853 14.4797 13.0968C14.4797 12.9082 14.3296 12.7559 14.1439 12.7559H11.6857C11.2114 12.7559 10.8242 13.149 10.8242 13.6343V15.6401C10.8242 16.1215 11.2116 16.5145 11.6857 16.5145H14.618C14.8038 16.5145 14.9539 16.3621 14.9539 16.1736C14.9539 15.985 14.8038 15.8327 14.618 15.8327H11.6857C11.5829 15.8327 11.4999 15.7485 11.4999 15.6441V13.6384C11.4999 13.5259 11.5829 13.4377 11.6857 13.4377Z" fill="#817AF3"/>
</g>
</g>
</svg>
