<svg width="20" height="25" viewBox="0 0 20 25" fill="none" xmlns="http://www.w3.org/2000/svg">
<g id="Categories">
<g id="Group 44">
<path id="Vector" fill-rule="evenodd" clip-rule="evenodd" d="M1.68919 0C0.756214 0 0 0.756214 0 1.68919V23.3108C0 24.2438 0.756214 25 1.68919 25H17.9054C18.8384 25 19.5946 24.2438 19.5946 23.3108V1.68919C19.5946 0.756214 18.8384 0 17.9054 0H1.68919ZM4.48619 0.675615H1.68919C1.12927 0.675615 0.675615 1.12925 0.675615 1.68919V23.3108C0.675615 23.8707 1.12925 24.3244 1.68919 24.3244H17.9054C18.4653 24.3244 18.919 23.8707 18.919 23.3108V1.68919C18.919 1.12927 18.4653 0.675615 17.9054 0.675615H15.1084L14.6637 2.00965C14.5259 2.42347 14.1384 2.7027 13.7022 2.7027H5.89273C5.45653 2.7027 5.06913 2.42345 4.93122 2.00965L4.48619 0.675615ZM14.3963 0.675615H5.19866L5.57218 1.79591C5.61813 1.93401 5.74727 2.02685 5.89267 2.02685H13.7022C13.8476 2.02685 13.9767 1.934 14.0226 1.79591L14.3963 0.675615Z" fill="#817AF3" fill-opacity="0.8"/>
<path id="Vector_2" fill-rule="evenodd" clip-rule="evenodd" d="M3.04102 7.43252C3.04102 6.87284 3.49465 6.41895 4.05459 6.41895H5.40582C5.96574 6.41895 6.41939 6.87282 6.41939 7.43252V8.78375C6.41939 9.34367 5.96576 9.79732 5.40582 9.79732H4.05459C3.49467 9.79732 3.04102 9.34369 3.04102 8.78375V7.43252ZM4.05459 7.09459C3.86795 7.09459 3.71666 7.24588 3.71666 7.43252V8.78375C3.71666 8.97039 3.86795 9.12168 4.05459 9.12168H5.40582C5.59246 9.12168 5.74375 8.97039 5.74375 8.78375V7.43252C5.74375 7.24588 5.59246 7.09459 5.40582 7.09459H4.05459Z" fill="#817AF3" fill-opacity="0.8"/>
<path id="Vector_3" fill-rule="evenodd" clip-rule="evenodd" d="M3.04102 12.4999C3.04102 11.9402 3.49465 11.4863 4.05459 11.4863H5.40582C5.96574 11.4863 6.41939 11.9402 6.41939 12.4999V13.8511C6.41939 14.4111 5.96576 14.8647 5.40582 14.8647H4.05459C3.49467 14.8647 3.04102 14.4111 3.04102 13.8511V12.4999ZM4.05459 12.162C3.86795 12.162 3.71666 12.3133 3.71666 12.4999V13.8511C3.71666 14.0378 3.86795 14.1891 4.05459 14.1891H5.40582C5.59246 14.1891 5.74375 14.0378 5.74375 13.8511V12.4999C5.74375 12.3133 5.59246 12.162 5.40582 12.162H4.05459Z" fill="#817AF3" fill-opacity="0.8"/>
<path id="Vector_4" fill-rule="evenodd" clip-rule="evenodd" d="M3.04102 17.5673C3.04102 17.0076 3.49465 16.5537 4.05459 16.5537H5.40582C5.96574 16.5537 6.41939 17.0076 6.41939 17.5673V18.9185C6.41939 19.4784 5.96576 19.9321 5.40582 19.9321H4.05459C3.49467 19.9321 3.04102 19.4785 3.04102 18.9185V17.5673ZM4.05459 17.2294C3.86795 17.2294 3.71666 17.3806 3.71666 17.5673V18.9185C3.71666 19.1052 3.86795 19.2565 4.05459 19.2565H5.40582C5.59246 19.2565 5.74375 19.1052 5.74375 18.9185V17.5673C5.74375 17.3806 5.59246 17.2294 5.40582 17.2294H4.05459Z" fill="#817AF3" fill-opacity="0.8"/>
<path id="Vector_5" fill-rule="evenodd" clip-rule="evenodd" d="M7.77051 8.10821C7.77051 7.92156 7.9218 7.77051 8.10844 7.77051H16.5544C16.741 7.77051 16.8923 7.92156 16.8923 8.10821C16.8923 8.29485 16.741 8.44614 16.5544 8.44614H8.10844C7.9218 8.44614 7.77051 8.29485 7.77051 8.10821Z" fill="#817AF3" fill-opacity="0.8"/>
<path id="Vector_6" fill-rule="evenodd" clip-rule="evenodd" d="M7.77051 13.1756C7.77051 12.9889 7.9218 12.8379 8.10844 12.8379H16.5544C16.741 12.8379 16.8923 12.9889 16.8923 13.1756C16.8923 13.3622 16.741 13.5135 16.5544 13.5135H8.10844C7.9218 13.5135 7.77051 13.3622 7.77051 13.1756Z" fill="#817AF3" fill-opacity="0.8"/>
<path id="Vector_7" fill-rule="evenodd" clip-rule="evenodd" d="M7.77051 18.243C7.77051 18.0563 7.9218 17.9053 8.10844 17.9053H16.5544C16.741 17.9053 16.8923 18.0563 16.8923 18.243C16.8923 18.4296 16.741 18.5809 16.5544 18.5809H8.10844C7.9218 18.5809 7.77051 18.4296 7.77051 18.243Z" fill="#817AF3" fill-opacity="0.8"/>
</g>
</g>
</svg>
