<svg width="26" height="26" viewBox="0 0 26 26" fill="none" xmlns="http://www.w3.org/2000/svg">
<g id="Cost">
<g id="Group 24">
<g id="Group 23">
<path id="Vector" d="M16.4392 11.0888H10.3066C10.0683 11.0888 9.875 10.9118 9.875 10.6933C9.875 10.4749 10.0682 10.2979 10.3066 10.2979H16.4389C16.6773 10.2979 16.8706 10.4749 16.8706 10.6933C16.8706 10.9118 16.6773 11.0888 16.4391 11.0888H16.4392Z" fill="#58D365" fill-opacity="0.7"/>
<path id="Vector_2" d="M16.4392 13.9618H10.3066C10.0683 13.9618 9.875 13.7848 9.875 13.5664C9.875 13.348 10.0682 13.1709 10.3066 13.1709H16.4389C16.6773 13.1709 16.8706 13.3479 16.8706 13.5664C16.8706 13.7848 16.6773 13.9618 16.4391 13.9618H16.4392Z" fill="#58D365" fill-opacity="0.7"/>
<path id="Vector_3" d="M10.3701 16.6496C10.1318 16.6496 9.93848 16.4726 9.93848 16.2541C9.93848 16.0357 10.1317 15.8586 10.3701 15.8586C12.6798 15.8586 14.6309 14.7554 14.6309 13.4496C14.6309 12.1437 12.6797 11.0404 10.3701 11.0404C10.1318 11.0404 9.93848 10.8634 9.93848 10.645C9.93848 10.4266 10.1317 10.2495 10.3701 10.2495C13.2436 10.2495 15.4943 11.6552 15.4943 13.4495C15.4943 15.2438 13.2436 16.6495 10.3701 16.6495V16.6496Z" fill="#58D365" fill-opacity="0.7"/>
<path id="Vector_4" d="M14.9819 21.3009C14.8669 21.3009 14.7523 21.2591 14.6672 21.1764L10.1093 16.7336C9.94603 16.5743 9.95452 16.3241 10.1282 16.1746C10.3019 16.0251 10.5749 16.0329 10.7383 16.1919L15.2962 20.6347C15.4595 20.7939 15.451 21.0442 15.2774 21.1937C15.194 21.2654 15.0878 21.3009 14.9817 21.3009L14.9819 21.3009Z" fill="#58D365" fill-opacity="0.7"/>
</g>
<path id="Vector_5" d="M1.53157 13.2112H3.61537V24.3248C3.61537 24.7138 3.921 25.0194 4.30997 25.0194H22.3695C22.7585 25.0194 23.0641 24.7138 23.0641 24.3248V13.2112H25.1479C25.7592 13.2112 26.0648 12.461 25.6479 12.0166L13.8398 0.208439C13.5618 -0.0694797 13.1174 -0.0694797 12.8672 0.208439L1.03176 12.0166C0.614887 12.461 0.920515 13.2112 1.53177 13.2112H1.53157ZM13.3397 1.68089L23.4809 11.822H22.3696C21.9807 11.822 21.675 12.1277 21.675 12.5166V23.6302H5.00466V12.5166C5.00466 12.1277 4.69903 11.822 4.31007 11.822H3.19881L13.3397 1.68089Z" fill="#58D365" fill-opacity="0.7"/>
</g>
</g>
</svg>
