<svg width="24" height="24" viewBox="0 0 24 24" fill="none" xmlns="http://www.w3.org/2000/svg">
<path d="M22.0099 15.5633L22.0106 15.566L22.0106 15.566C22.1772 16.1909 21.8182 16.8696 21.1847 16.992L15.2475 18.5568C15.3213 19.7232 14.5687 20.8124 13.4001 21.1165C12.2319 21.4433 11.0178 20.8703 10.5096 19.8297L9.5302 20.0968L9.52916 20.0971C9.32165 20.1488 9.10596 20.0454 9.05162 19.8294C9.05158 19.8292 9.05154 19.829 9.05149 19.8289L5.05553 5.11528L3.15649 5.59013L3.14436 5.54162L3.15649 5.59013C2.66731 5.71244 2.13052 5.41957 1.98397 4.90648M22.0099 15.5633L2.03205 4.89275M22.0099 15.5633L22.0098 15.5631L21.5698 13.942C21.5697 13.9418 21.5697 13.9416 21.5696 13.9414C21.5153 13.7254 21.2996 13.622 21.0921 13.6738L21.0916 13.6739L19.4478 14.1018L17.6069 7.26782C17.6069 7.26768 17.6068 7.26754 17.6068 7.2674C17.5525 7.05134 17.3368 6.94784 17.1293 6.99963L17.1284 6.99985L13.5382 7.96027L12.5551 4.3247C12.555 4.32454 12.555 4.32438 12.5549 4.32423C12.5006 4.1082 12.2849 4.00472 12.0774 4.05651L12.0768 4.05666L7.44378 5.27226M22.0099 15.5633L7.44378 5.27226M1.98397 4.90648L2.03205 4.89275M1.98397 4.90648C1.98397 4.90648 1.98397 4.90649 1.98397 4.90649L2.03205 4.89275M1.98397 4.90648C1.83665 4.39078 2.15656 3.87821 2.66719 3.73236L2.66886 3.73189L2.66887 3.73192L6.39908 2.80524M2.03205 4.89275C1.89305 4.40618 2.19418 3.91946 2.68092 3.78044L6.41194 2.85356M6.39908 2.80524C6.3988 2.80532 6.39851 2.8054 6.39823 2.80548L6.41194 2.85356M6.39908 2.80524L6.39988 2.80504L6.41194 2.85356M6.39908 2.80524C6.58681 2.75222 6.80062 2.85936 6.85428 3.07282L6.85417 3.07243L6.80587 3.08537M6.41194 2.85356C6.57407 2.80733 6.75948 2.89996 6.80587 3.08537M6.80587 3.08537L6.85438 3.07323M6.80587 3.08537L7.40836 5.33325L6.85438 3.07323M6.85438 3.07323L7.44378 5.27226M6.85438 3.07323L7.44378 5.27226M5.69517 4.57863L5.69525 4.57861L5.69435 4.57593C5.64251 4.42057 5.48703 4.28683 5.3225 4.28683H5.25299V4.28535L5.24109 4.28827L2.97008 4.84449L2.97007 4.84445L2.96825 4.84497C2.90005 4.86444 2.84719 4.85279 2.80848 4.82734C2.76862 4.80114 2.7395 4.75741 2.72618 4.70655C2.69936 4.60417 2.73871 4.49141 2.85649 4.45447L6.21414 3.60938L9.86253 17.0483C9.86257 17.0485 9.86261 17.0487 9.86265 17.0488C9.91699 17.2648 10.1327 17.3683 10.3402 17.3165L10.3406 17.3164L10.8069 17.1955C10.3549 17.7407 10.1769 18.4624 10.2718 19.1303L9.69165 19.2704L5.69517 4.57863ZM11.0945 19.2925L11.0944 19.2924C10.8015 18.3462 11.3419 17.3784 12.2876 17.1308L12.2881 17.1306C13.2795 16.8603 14.2476 17.5142 14.4274 18.4132L14.4274 18.4132L14.4276 18.4141C14.6297 19.3354 14.0464 20.1691 13.1883 20.4177C12.2867 20.6655 11.3643 20.1695 11.0945 19.2925ZM20.9751 16.2927L15.0633 17.8568C14.8146 17.2186 14.2791 16.7014 13.6321 16.4619C14.2558 16.2965 14.9235 16.1196 15.6115 15.9374C17.3832 15.4682 19.2901 14.9631 20.9298 14.5249L21.2644 15.7743L21.2645 15.7745C21.3269 16.0038 21.2027 16.23 20.9761 16.2924C20.9759 16.2924 20.9757 16.2925 20.9755 16.2926L20.9751 16.2927ZM18.7252 14.3126L10.5024 16.4885L8.74419 10.0267L16.967 7.85081L18.7252 14.3126ZM7.65505 6.01763L11.915 4.88463L12.7928 8.14825L8.53271 9.28125L7.65505 6.01763Z" fill="#5D6679" stroke="#5D6679" stroke-width="0.1"/>
</svg>
