<svg width="22" height="25" viewBox="0 0 22 25" fill="none" xmlns="http://www.w3.org/2000/svg">
<g id="On the way">
<g id="Group 41">
<path id="Vector" d="M10.3123 0C7.82585 0 5.44131 0.987739 3.68343 2.74572C1.92524 4.50391 0.9375 6.88846 0.9375 9.37511C0.9375 14.375 9.4874 23.7498 9.85008 24.1751C9.96936 24.3038 10.1372 24.3762 10.3125 24.3752C10.4879 24.3762 10.6557 24.3038 10.775 24.1751L11.5624 23.2813V23.7501C11.5624 24.0816 11.6943 24.3996 11.9287 24.634C12.163 24.8684 12.4809 25 12.8126 25H20.3125C20.644 25 20.9618 24.8684 21.1962 24.634C21.4308 24.3996 21.5624 24.0816 21.5624 23.7501V16.2502C21.5624 15.9187 21.4308 15.6006 21.1962 15.3663C20.9618 15.1319 20.6439 15.0003 20.3125 15.0003H17.6687C19.0061 12.6877 19.6874 10.8004 19.6874 9.37532C19.6874 7.72968 19.2543 6.11297 18.4315 4.68787C17.6087 3.26262 16.4251 2.07924 15 1.2564C13.5749 0.433549 11.9582 0.000428535 10.3125 0.000428535L10.3123 0ZM20.3123 23.7495H12.8124V16.2496H14.6874V18.7497C14.688 18.9663 14.8008 19.1672 14.9854 19.2804C15.17 19.3938 15.4002 19.4034 15.5935 19.3059L16.5622 18.8246L17.5309 19.3059H17.5311C17.6181 19.3505 17.7144 19.3741 17.8123 19.3745C17.9293 19.3749 18.0442 19.3425 18.1436 19.2808C18.3267 19.1663 18.4378 18.9656 18.4374 18.7497V16.2496H20.3124L20.3123 23.7495ZM17.1875 16.2496V17.7371L16.8748 17.5684C16.698 17.4793 16.4892 17.4793 16.3123 17.5684L15.9685 17.7371V16.2496H17.1875ZM15.3125 14.9997H12.8124C12.4808 14.9997 12.1629 15.1313 11.9285 15.3657C11.6941 15.6001 11.5623 15.9181 11.5623 16.2496V21.3495C11.0561 21.9746 10.6186 22.4682 10.3124 22.8121C8.53117 20.7808 2.18731 13.2936 2.18731 9.37489C2.18731 6.472 3.73604 3.79014 6.24991 2.33837C8.76377 0.886597 11.8609 0.886919 14.3745 2.33837C16.888 3.78981 18.4371 6.47189 18.4371 9.37489C18.4371 10.6811 17.6622 12.6249 16.212 14.9998L15.3125 14.9997Z" fill="#817AF3" fill-opacity="0.6"/>
<path id="Vector_2" d="M10.3125 5C9.15218 5 8.03951 5.461 7.21902 6.28131C6.39853 7.1018 5.9375 8.21468 5.9375 9.37502C5.9375 10.5352 6.3985 11.648 7.21902 12.4685C8.03951 13.289 9.15218 13.7498 10.3125 13.7498C11.4729 13.7498 12.5855 13.289 13.406 12.4685C14.2265 11.648 14.6875 10.5352 14.6875 9.37502C14.6875 8.21468 14.2265 7.1018 13.406 6.28131C12.5855 5.46103 11.4729 5 10.3125 5ZM10.3125 12.4999C9.48362 12.4999 8.68884 12.1707 8.10294 11.5846C7.51682 10.9986 7.18763 10.2037 7.18763 9.37502C7.18763 8.54612 7.51679 7.75134 8.10294 7.16523C8.6889 6.57927 9.48362 6.24991 10.3125 6.24991C11.1414 6.24991 11.9362 6.57929 12.5221 7.16523C13.1082 7.75134 13.4374 8.54612 13.4374 9.37502C13.4374 10.2037 13.1082 10.9987 12.5221 11.5846C11.9361 12.1707 11.1414 12.4999 10.3125 12.4999Z" fill="#817AF3" fill-opacity="0.6"/>
</g>
</g>
</svg>
