<svg width="26" height="27" viewBox="0 0 26 27" fill="none" xmlns="http://www.w3.org/2000/svg">
<g id="Profit">
<g id="Vector">
<path fill-rule="evenodd" clip-rule="evenodd" d="M0.804164 14.774C0.742902 14.5979 0.83599 14.4053 1.01205 14.3429C9.30511 11.4561 16.5658 7.20983 22.611 1.72649L20.892 1.81994C20.7068 1.82951 20.5464 1.6873 20.5362 1.50021C20.5261 1.31458 20.6689 1.15453 20.8552 1.14496L23.5204 1H23.5561C23.6442 1.0046 23.7281 1.04397 23.7879 1.10964C23.8563 1.18433 23.8876 1.2857 23.8727 1.38633L23.488 4.02773C23.4635 4.19588 23.3191 4.31638 23.1543 4.31638C23.1381 4.31638 23.1219 4.31509 23.1052 4.31233C22.9205 4.2851 22.7928 4.11457 22.8195 3.93023L23.0678 2.22396C16.9548 7.76993 9.61544 12.0636 1.23384 14.9817C1.19704 14.9951 1.1597 15.0006 1.12254 15.0006C0.98309 15.0006 0.852654 14.9138 0.803905 14.7742L0.804164 14.774ZM25.1093 25.3238V7.85891H22.5455V25.3238H25.1093ZM25.4472 7.18262H22.2079C22.0214 7.18262 21.87 7.33421 21.87 7.52002V25.6612C21.87 25.8483 22.021 25.9986 22.2079 25.9986H25.4472C25.6339 25.9986 25.7852 25.8482 25.7852 25.6612V7.52002C25.7852 7.3344 25.6338 7.18262 25.4472 7.18262ZM18.081 25.3238V11.5305H15.5172V25.3238H18.081ZM18.4189 10.8542H15.1795C14.9929 10.8542 14.8415 11.0062 14.8415 11.1918V25.6614C14.8415 25.8485 14.9929 25.9988 15.1795 25.9988H18.4187C18.6053 25.9988 18.7567 25.8483 18.7567 25.6614L18.7565 11.1918C18.7569 11.0062 18.6055 10.8542 18.4189 10.8542H18.4189ZM11.0527 25.3238V14.4985H8.48892V25.3234H11.0527V25.3238ZM11.3907 13.824H8.15138C7.96484 13.824 7.81343 13.9745 7.81343 14.1614V25.6612C7.81343 25.8483 7.96483 25.9986 8.15138 25.9986H11.3907C11.5772 25.9986 11.7286 25.8482 11.7286 25.6612V14.1614C11.7286 13.9743 11.5772 13.824 11.3907 13.824ZM4.02444 25.3238H1.46103V18.8727H4.02482V25.3238H4.02444ZM4.36239 18.1973H1.12311C0.93638 18.1973 0.785156 18.3478 0.785156 18.5349V25.6614C0.785156 25.8485 0.936192 25.9988 1.12311 25.9988H4.36239C4.54893 25.9988 4.70034 25.8483 4.70034 25.6614V18.5349C4.70034 18.3478 4.54893 18.1975 4.36239 18.1975V18.1973Z" fill="#DBA362" fill-opacity="0.8"/>
<path d="M0.978659 14.2487L0.979173 14.2485C9.16477 11.3991 16.3416 7.22391 22.3342 1.84169L20.8975 1.9198L20.8972 1.91981C20.6574 1.93219 20.4495 1.74827 20.4364 1.50565L0.978659 14.2487ZM0.978659 14.2487C0.774444 14.321 0.656193 14.5291 0.691478 14.736M0.978659 14.2487L0.804164 14.774M23.5204 0.899852V0.9H23.5561H23.5613L23.5613 0.900136C23.6755 0.906096 23.7841 0.957 23.8617 1.04221M23.5204 0.899852L23.9716 1.40074C23.9909 1.27037 23.9503 1.13898 23.8617 1.04221M23.5204 0.899852L23.515 0.900148M23.5204 0.899852L23.515 0.900148M23.8617 1.04221C23.8617 1.04217 23.8616 1.04213 23.8616 1.04209L23.7879 1.10964L23.8618 1.04232C23.8618 1.04228 23.8618 1.04225 23.8617 1.04221ZM1.26734 15.0759C9.5665 12.1865 16.8468 7.94962 22.9289 2.48412L22.7205 3.91583L22.7205 3.91591C22.6859 4.15487 22.8513 4.37553 23.0898 4.41114C23.1116 4.41469 23.133 4.41638 23.1543 4.41638C23.3678 4.41638 23.5552 4.26036 23.587 4.04215L23.9716 1.40098L0.804164 14.774M1.26734 15.0759C1.26713 15.076 1.26692 15.076 1.26672 15.0761L1.23384 14.9817L1.26812 15.0756C1.26786 15.0757 1.2676 15.0758 1.26734 15.0759ZM1.26734 15.0759C1.21837 15.0937 1.16949 15.1006 1.12254 15.1006C0.941931 15.1006 0.772703 14.9882 0.709494 14.8071L0.686161 14.7403L0.691478 14.736M0.691478 14.736C0.695515 14.7597 0.701562 14.7834 0.709719 14.8068L0.803832 14.7741L0.804164 14.774M0.691478 14.736L0.741439 14.6961L0.741697 14.6959L0.804164 14.774M23.515 0.900148L20.8501 1.0451L23.515 0.900148ZM18.8565 11.192C18.857 10.951 18.6607 10.7542 18.4189 10.7542H15.1795C14.9377 10.7542 14.7415 10.951 14.7415 11.1918V25.6614C14.7415 25.9041 14.938 26.0988 15.1795 26.0988H18.4187C18.6602 26.0988 18.8567 25.9038 18.8567 25.6614L18.8565 11.192ZM18.8565 11.192L18.7565 11.1918L18.8565 11.1918V11.192ZM4.46239 18.1089V18.0973H4.36239H1.12311C0.881366 18.0973 0.685156 18.2924 0.685156 18.5349V25.6614C0.685156 25.904 0.881211 26.0988 1.12311 26.0988H4.36239C4.60387 26.0988 4.80034 25.9038 4.80034 25.6614V18.5349C4.80034 18.3268 4.65583 18.154 4.46239 18.1089ZM20.8499 1.04511C20.6081 1.05762 20.4233 1.26514 20.4364 1.50561L20.8499 1.04511ZM22.6455 7.95891H25.0093V25.2238H22.6455V7.95891ZM25.4472 7.08262H22.2079C21.9662 7.08262 21.77 7.27891 21.77 7.52002V25.6612C21.77 25.9038 21.966 26.0986 22.2079 26.0986H25.4472C25.6889 26.0986 25.8852 25.9036 25.8852 25.6612V7.52002C25.8852 7.27913 25.6889 7.08262 25.4472 7.08262ZM15.6172 11.6305H17.981V25.2238H15.6172V11.6305ZM8.58892 14.5985H10.9527V25.2234H8.58892V14.5985ZM11.3907 13.724H8.15138C7.90989 13.724 7.71343 13.919 7.71343 14.1614V25.6612C7.71343 25.9039 7.90992 26.0986 8.15138 26.0986H11.3907C11.6321 26.0986 11.8286 25.9037 11.8286 25.6612V14.1614C11.8286 13.9188 11.6321 13.724 11.3907 13.724ZM3.92482 25.2238H1.56103V18.9727H3.92482V25.2238Z" stroke="#DBA362" stroke-opacity="0.8" stroke-width="0.2"/>
</g>
</g>
</svg>
