<svg width="21" height="25" viewBox="0 0 21 25" fill="none" xmlns="http://www.w3.org/2000/svg">
<g id="Purchase bag">
<path id="Vector" d="M19.258 5.47911C19.2218 5.15261 18.9677 4.89851 18.6412 4.89851H15.6296C15.6296 2.21341 13.4162 0 10.7311 0C8.04591 0 5.83257 2.17719 5.83257 4.89851H2.82097C2.49447 4.89851 2.24037 5.15262 2.20417 5.47911L0.75293 21.6619V21.7345C0.75293 23.5488 2.42214 25 4.45399 25H17.0084C19.0402 25 20.7094 23.5488 20.7094 21.7345V21.6619L19.258 5.47911ZM10.7312 1.27007C12.7269 1.27007 14.3596 2.9028 14.3596 4.8985H7.10274C7.10274 2.90306 8.73547 1.27007 10.7312 1.27007ZM17.0083 23.7663H4.45393C3.11147 23.7663 2.02288 22.8592 1.98673 21.7706L3.36559 6.16839H5.83279V8.34557C5.83279 8.67207 6.1231 8.96237 6.44959 8.96237C6.77609 8.96237 7.0664 8.67207 7.0664 8.34557V6.16839H14.3595V8.34557C14.3595 8.67207 14.6498 8.96237 14.9763 8.96237C15.3028 8.96237 15.5931 8.67207 15.5931 8.34557V6.16839H18.0603L19.4392 21.7706C19.4395 22.8592 18.3511 23.7663 17.0084 23.7663H17.0083Z" fill="#009ED8"/>
</g>
</svg>
