<svg width="27" height="25" viewBox="0 0 27 25" fill="none" xmlns="http://www.w3.org/2000/svg">
<g id="Quantity">
<g id="Group 34">
<path id="Vector" d="M4.90297 0.900208C4.33647 0.900208 3.76854 1.18245 3.4506 1.65814L0.890245 5.23069L0.885628 5.23713L0.882083 5.24422C0.880901 5.24658 0.879687 5.249 0.878448 5.25147C0.851492 5.3052 0.812109 5.38369 0.812109 5.4676V22.9799C0.812109 23.8987 1.54182 24.6287 2.46087 24.6287H24.3513C25.2713 24.6287 26 23.8678 26 22.9799L25.9998 5.48752C26.012 5.45306 26.0141 5.41949 26.0106 5.38873H26.0649L25.9515 5.23048L23.3902 1.65659L23.3895 1.6557C23.0443 1.18502 22.5088 0.9 21.9388 0.9L15.7439 0.900208H4.90297ZM16.2993 5.51111V10.7522L13.4686 9.22143L13.4206 9.19546L13.3728 9.22181L10.5429 10.781V5.54104L11.6498 1.69576H15.2217L16.2993 5.51111ZM4.09107 2.10054L4.09107 2.10055L4.09161 2.09977C4.27927 1.83174 4.57426 1.69576 4.90323 1.69576H10.8169L9.86098 5.06965H1.9704L4.09107 2.10054ZM16.7366 11.4862L16.7451 11.4825L16.7527 11.4775C16.9568 11.3415 17.0952 11.1029 17.0952 10.8582L17.0948 5.86528H25.234L25.2342 22.9798C25.2342 23.4585 24.8343 23.8329 24.3811 23.8329H2.46088C1.98212 23.8329 1.60772 23.433 1.60772 22.9798V5.86528H9.74692V10.8582C9.74692 11.1353 9.88743 11.3431 10.0894 11.4775C10.1989 11.5505 10.3387 11.5836 10.4725 11.5836C10.5779 11.5836 10.7147 11.5501 10.8217 11.4801L13.421 10.0783L16.0232 11.4817C16.2695 11.6217 16.5134 11.5818 16.7366 11.4862ZM21.939 1.69576C22.2621 1.69576 22.561 1.85729 22.7524 2.10227L24.8719 5.06967H17.0111L16.0552 1.69578L21.939 1.69576Z" fill="#DBA362" stroke="#DBA362" stroke-width="0.2"/>
<path id="Vector_2" d="M11.0381 5.06943H10.9381V5.16943V5.76504V5.86504H11.0381H15.8034H15.9034V5.76504V5.16943V5.06943H15.8034H11.0381Z" fill="#DBA362" stroke="#DBA362" stroke-width="0.2"/>
</g>
</g>
</svg>
