<svg width="26" height="24" viewBox="0 0 26 24" fill="none" xmlns="http://www.w3.org/2000/svg">
<g id="Sales">
<g id="Group 20">
<path id="Vector" d="M16.619 5.33914C17.2296 5.33914 17.8153 5.09663 18.2471 4.66486C18.6789 4.23305 18.9214 3.64732 18.9214 3.03676C18.9214 2.42602 18.6789 1.84049 18.2471 1.40866C17.8153 0.97686 17.2296 0.734375 16.619 0.734375C16.0083 0.734375 15.4228 0.976889 14.9909 1.40866C14.5591 1.84046 14.3164 2.42597 14.3164 3.03676C14.3164 3.64732 14.5591 4.23303 14.9909 4.66486C15.4227 5.09666 16.0082 5.33914 16.619 5.33914ZM16.619 2.04994C16.8806 2.04994 17.1316 2.15387 17.3167 2.33903C17.5017 2.52395 17.6056 2.77496 17.6056 3.03675C17.6056 3.29831 17.5017 3.54932 17.3167 3.73448C17.1316 3.9194 16.8806 4.02357 16.619 4.02357C16.3572 4.02357 16.1062 3.9194 15.9211 3.73448C15.7361 3.54932 15.6322 3.29832 15.6322 3.03675C15.6322 2.77497 15.7361 2.52396 15.9211 2.33903C16.1062 2.15388 16.3572 2.04994 16.619 2.04994Z" fill="#629FF4"/>
<path id="Vector_2" d="M20.2373 7.64174C20.2373 8.25247 20.4798 8.83801 20.9116 9.26984C21.3434 9.70164 21.9291 9.94412 22.5397 9.94412C23.1504 9.94412 23.736 9.70161 24.1678 9.26984C24.5996 8.83803 24.8423 8.25253 24.8423 7.64174C24.8423 7.03118 24.5996 6.44547 24.1678 6.01364C23.736 5.58184 23.1505 5.33936 22.5397 5.33936C21.9291 5.33936 21.3434 5.58187 20.9116 6.01364C20.4798 6.44544 20.2373 7.03118 20.2373 7.64174ZM23.5265 7.64174C23.5265 7.90352 23.4226 8.15453 23.2376 8.33946C23.0525 8.52461 22.8015 8.62855 22.5397 8.62855C22.2781 8.62855 22.0271 8.52462 21.842 8.33946C21.657 8.15454 21.5531 7.90353 21.5531 7.64174C21.5531 7.38018 21.657 7.12917 21.842 6.94402C22.0271 6.75909 22.2781 6.65492 22.5397 6.65492C22.8015 6.65492 23.0525 6.75909 23.2376 6.94402C23.4226 7.12917 23.5265 7.38018 23.5265 7.64174Z" fill="#629FF4"/>
<path id="Vector_3" d="M16.2284 9.65109C16.3686 9.75525 16.5448 9.79908 16.7176 9.77315C16.8903 9.74722 17.0457 9.65361 17.1494 9.51297L22.741 1.9478V1.94803C22.9571 1.6555 22.8954 1.2432 22.6028 1.02705C22.3103 0.810693 21.898 0.872641 21.6819 1.16518L16.0903 8.73034V8.73011C15.9861 8.87053 15.9423 9.04651 15.9682 9.21927C15.9942 9.39204 16.0878 9.54759 16.2284 9.65107L16.2284 9.65109Z" fill="#629FF4"/>
<path id="Vector_4" d="M6.09354 6.32568C5.15952 6.32568 0.501953 6.42113 0.501953 8.29932C0.501953 10.1775 5.15952 10.273 6.09354 10.273C7.02756 10.273 11.6851 10.1775 11.6851 8.29932C11.6854 6.42113 7.02779 6.32568 6.09354 6.32568ZM6.09354 8.9571C3.89647 8.9571 2.4753 8.57876 1.9623 8.29932C2.47555 8.01964 3.89647 7.64131 6.09354 7.64131C8.29061 7.64131 9.71178 8.01965 10.2248 8.29909C9.71176 8.57877 8.29084 8.9571 6.09354 8.9571Z" fill="#629FF4"/>
<path id="Vector_5" d="M11.0276 9.77951C10.7018 9.77515 10.4219 10.0103 10.3698 10.332C10.0802 10.6082 8.57717 11.0951 6.09376 11.0951C3.61059 11.0951 2.09743 10.6018 1.81797 10.332C1.78883 9.9688 1.47083 9.69782 1.10739 9.72672C0.744187 9.75586 0.473214 10.0739 0.502112 10.4373C0.502112 12.3155 5.15968 12.4109 6.0937 12.4109C7.02772 12.4109 11.6853 12.3155 11.6853 10.4373H11.6855C11.6855 10.2627 11.6162 10.0954 11.4928 9.97201C11.3694 9.8488 11.2021 9.77951 11.0275 9.77951H11.0276Z" fill="#629FF4"/>
<path id="Vector_6" d="M11.0276 12.0822C10.7018 12.0781 10.4219 12.3131 10.3698 12.6347C10.0802 12.911 8.57717 13.3978 6.09376 13.3978C3.61059 13.3978 2.09743 12.9045 1.81797 12.6347C1.78883 12.2715 1.47083 12.0006 1.10739 12.0295C0.744187 12.0586 0.473214 12.3766 0.502112 12.74C0.502112 14.6182 5.15968 14.7137 6.0937 14.7137C7.02772 14.7137 11.6853 14.6182 11.6853 12.74H11.6855C11.6855 12.5657 11.6162 12.3982 11.4928 12.275C11.3694 12.1515 11.2021 12.0822 11.0275 12.0822H11.0276Z" fill="#629FF4"/>
<path id="Vector_7" d="M11.0276 14.3843C10.7018 14.3802 10.4219 14.6151 10.3698 14.9368C10.0802 15.213 8.57717 15.6999 6.09376 15.6999C3.61059 15.6999 2.09743 15.2066 1.81797 14.9368C1.78883 14.5736 1.47083 14.3026 1.10739 14.3317C0.744187 14.3606 0.473214 14.6789 0.502112 15.0421C0.502112 16.9203 5.15968 17.0157 6.0937 17.0157C7.02772 17.0157 11.6853 16.9203 11.6853 15.0421H11.6855C11.6855 14.8677 11.6162 14.7002 11.4928 14.577C11.3694 14.4536 11.2021 14.3843 11.0275 14.3843H11.0276Z" fill="#629FF4"/>
<path id="Vector_8" d="M11.0276 16.687C10.7018 16.6829 10.4219 16.9178 10.3698 17.2397C10.0802 17.516 8.57717 18.0028 6.09376 18.0028C3.61059 18.0028 2.09743 17.5093 1.81797 17.2397C1.78883 16.8763 1.47083 16.6053 1.10739 16.6345C0.744187 16.6636 0.473214 16.9816 0.502112 17.3448C0.502112 19.223 5.15968 19.3185 6.0937 19.3185C7.02772 19.3185 11.6853 19.223 11.6853 17.3448H11.6855C11.6855 17.1704 11.6162 17.0032 11.4928 16.8797C11.3694 16.7563 11.2021 16.687 11.0275 16.687H11.0276Z" fill="#629FF4"/>
<path id="Vector_9" d="M11.0276 18.9893C10.7018 18.9851 10.4219 19.2203 10.3698 19.542C10.0802 19.8182 8.57717 20.3051 6.09376 20.3051C3.61059 20.3051 2.09743 19.8116 1.81797 19.542C1.78883 19.1786 1.47083 18.9076 1.10739 18.9367C0.744187 18.9659 0.473214 19.2839 0.502112 19.6473C0.502112 21.5255 5.15968 21.6209 6.0937 21.6209C7.02772 21.6209 11.6853 21.5255 11.6853 19.6473H11.6855C11.6855 19.4727 11.6162 19.3054 11.4928 19.182C11.3694 19.0586 11.2021 18.9893 11.0275 18.9893L11.0276 18.9893Z" fill="#629FF4"/>
<path id="Vector_10" d="M19.908 16.5225C20.842 16.5225 25.4996 16.427 25.4996 14.5488C25.4996 12.6706 20.842 12.5752 19.908 12.5752C18.974 12.5752 14.3164 12.6706 14.3164 14.5488C14.3162 16.4272 18.9737 16.5225 19.908 16.5225ZM19.908 13.8911C22.1051 13.8911 23.5262 14.2694 24.0392 14.5488C23.526 14.8285 22.1051 15.2069 19.908 15.2069C17.7109 15.2069 16.2898 14.8285 15.7768 14.5491C16.2898 14.2694 17.7107 13.8913 19.908 13.8913V13.8911Z" fill="#629FF4"/>
<path id="Vector_11" d="M24.8422 16.0288C24.5162 16.0247 24.2366 16.2596 24.1842 16.5813C23.8947 16.8575 22.3916 17.3444 19.9082 17.3444C17.425 17.3444 15.9119 16.8511 15.6324 16.5813C15.6033 16.2181 15.2853 15.9471 14.9218 15.9763C14.5586 16.0052 14.2877 16.3234 14.3166 16.6866C14.3166 18.5648 18.9741 18.6603 19.9082 18.6603C20.8422 18.6603 25.4997 18.5648 25.4997 16.6866H25.5C25.5 16.5122 25.4307 16.3448 25.3072 16.2215C25.1838 16.0981 25.0165 16.0288 24.8422 16.0288H24.8422Z" fill="#629FF4"/>
<path id="Vector_12" d="M24.8422 18.3316C24.5162 18.3274 24.2366 18.5624 24.1842 18.8843C23.8947 19.1605 22.3916 19.6474 19.9082 19.6474C17.425 19.6474 15.9119 19.1539 15.6324 18.8843C15.6033 18.5208 15.2853 18.2499 14.9218 18.279C14.5586 18.3081 14.2877 18.6261 14.3166 18.9894C14.3166 20.8675 18.9741 20.963 19.9082 20.963C20.8422 20.963 25.4997 20.8675 25.4997 18.9894H25.5C25.5 18.815 25.4307 18.6477 25.3072 18.5243C25.1838 18.4008 25.0165 18.3316 24.8422 18.3316H24.8422Z" fill="#629FF4"/>
<path id="Vector_13" d="M24.8422 20.6338C24.5162 20.6297 24.2366 20.8648 24.1842 21.1865C23.8947 21.4628 22.3916 21.9496 19.9082 21.9496C17.425 21.9496 15.9119 21.4561 15.6324 21.1865C15.6033 20.8231 15.2853 20.5521 14.9218 20.5812C14.5586 20.6104 14.2877 20.9284 14.3166 21.2918C14.3166 23.17 18.9741 23.2655 19.9082 23.2655C20.8422 23.2655 25.4997 23.17 25.4997 21.2918H25.5C25.5 21.1172 25.4307 20.95 25.3072 20.8265C25.1838 20.7031 25.0165 20.6338 24.8422 20.6338L24.8422 20.6338Z" fill="#629FF4"/>
</g>
</g>
</svg>
