<svg width="20" height="20" viewBox="0 0 20 20" fill="none" xmlns="http://www.w3.org/2000/svg">
<path d="M19.7277 18.4093L14.9404 13.6226C14.6972 13.3795 14.3537 13.3025 14.0433 13.3844L13.0162 12.3573C14.1749 11.0448 14.8848 9.32667 14.8848 7.44218C14.8848 3.33871 11.5464 0 7.44285 0C3.33871 0 0 3.33871 0 7.44285C0 11.5467 3.33871 14.885 7.44285 14.885C9.32709 14.885 11.0452 14.1755 12.3579 13.0164L13.385 14.0436C13.3031 14.354 13.3798 14.6972 13.6233 14.9406L18.41 19.727C18.5923 19.9093 18.8303 20 19.0688 20C19.3074 20 19.5457 19.909 19.7277 19.727C20.0914 19.3633 20.0914 18.7733 19.7277 18.4093L19.7277 18.4093ZM0.931927 7.44254C0.931927 3.85288 3.85235 0.931868 7.4426 0.931868C11.0328 0.931868 13.9529 3.85288 13.9529 7.44287C13.9529 11.0325 11.0322 13.9532 7.4426 13.9532C3.85302 13.9532 0.931927 11.0325 0.931927 7.44254Z" fill="#858D9D"/>
</svg>
