<svg width="24" height="24" viewBox="0 0 24 24" fill="none" xmlns="http://www.w3.org/2000/svg">
<g clip-path="url(#clip0_2502_641)">
<path d="M11.9997 14.5C13.3804 14.5 14.4997 13.3808 14.4997 12C14.4997 10.6193 13.3804 9.50004 11.9997 9.50004C10.619 9.50004 9.49967 10.6193 9.49967 12C9.49967 13.3808 10.619 14.5 11.9997 14.5Z" stroke="#5D6679" stroke-width="1.2" stroke-linecap="round" stroke-linejoin="round"/>
<path d="M18.1663 14.5C18.0554 14.7514 18.0223 15.0302 18.0713 15.3005C18.1204 15.5709 18.2492 15.8203 18.4413 16.0167L18.4913 16.0667C18.6463 16.2215 18.7692 16.4053 18.8531 16.6076C18.937 16.81 18.9802 17.0268 18.9802 17.2459C18.9802 17.4649 18.937 17.6818 18.8531 17.8841C18.7692 18.0864 18.6463 18.2702 18.4913 18.425C18.3366 18.58 18.1527 18.7029 17.9504 18.7868C17.7481 18.8707 17.5312 18.9139 17.3122 18.9139C17.0931 18.9139 16.8763 18.8707 16.6739 18.7868C16.4716 18.7029 16.2878 18.58 16.133 18.425L16.083 18.375C15.8866 18.1829 15.6372 18.0541 15.3668 18.005C15.0965 17.956 14.8177 17.9891 14.5663 18.1C14.3199 18.2057 14.1097 18.3811 13.9616 18.6047C13.8135 18.8282 13.7341 19.0902 13.733 19.3584V19.5C13.733 19.9421 13.5574 20.366 13.2449 20.6785C12.9323 20.9911 12.5084 21.1667 12.0663 21.1667C11.6243 21.1667 11.2004 20.9911 10.8878 20.6785C10.5753 20.366 10.3997 19.9421 10.3997 19.5V19.425C10.3932 19.1492 10.3039 18.8817 10.1434 18.6573C9.98293 18.4329 9.75862 18.2619 9.49967 18.1667C9.24833 18.0558 8.96951 18.0227 8.69918 18.0717C8.42885 18.1207 8.17941 18.2496 7.98301 18.4417L7.93301 18.4917C7.77822 18.6467 7.5944 18.7696 7.39207 18.8535C7.18974 18.9373 6.97287 18.9805 6.75384 18.9805C6.53481 18.9805 6.31794 18.9373 6.11561 18.8535C5.91328 18.7696 5.72946 18.6467 5.57467 18.4917C5.41971 18.3369 5.29678 18.1531 5.21291 17.9508C5.12903 17.7484 5.08586 17.5316 5.08586 17.3125C5.08586 17.0935 5.12903 16.8766 5.21291 16.6743C5.29678 16.472 5.41971 16.2882 5.57467 16.1334L5.62467 16.0834C5.81679 15.887 5.94566 15.6375 5.99468 15.3672C6.04369 15.0969 6.0106 14.8181 5.89967 14.5667C5.79404 14.3202 5.61864 14.11 5.39506 13.962C5.17149 13.8139 4.9095 13.7344 4.64134 13.7334H4.49967C4.05765 13.7334 3.63372 13.5578 3.32116 13.2452C3.0086 12.9327 2.83301 12.5087 2.83301 12.0667C2.83301 11.6247 3.0086 11.2008 3.32116 10.8882C3.63372 10.5756 4.05765 10.4 4.49967 10.4H4.57467C4.8505 10.3936 5.11801 10.3043 5.34242 10.1438C5.56684 9.98329 5.73777 9.75899 5.83301 9.50004C5.94394 9.24869 5.97703 8.96988 5.92801 8.69955C5.879 8.42922 5.75012 8.17977 5.55801 7.98337L5.50801 7.93337C5.35305 7.77858 5.23012 7.59477 5.14624 7.39244C5.06237 7.19011 5.0192 6.97323 5.0192 6.75421C5.0192 6.53518 5.06237 6.3183 5.14624 6.11597C5.23012 5.91364 5.35305 5.72983 5.50801 5.57504C5.6628 5.42008 5.84661 5.29715 6.04894 5.21327C6.25127 5.1294 6.46815 5.08623 6.68717 5.08623C6.9062 5.08623 7.12308 5.1294 7.32541 5.21327C7.52774 5.29715 7.71155 5.42008 7.86634 5.57504L7.91634 5.62504C8.11274 5.81715 8.36219 5.94603 8.63252 5.99504C8.90285 6.04406 9.18166 6.01097 9.43301 5.90004H9.49967C9.74615 5.7944 9.95635 5.619 10.1044 5.39543C10.2525 5.17185 10.3319 4.90986 10.333 4.64171V4.50004C10.333 4.05801 10.5086 3.63409 10.8212 3.32153C11.1337 3.00897 11.5576 2.83337 11.9997 2.83337C12.4417 2.83337 12.8656 3.00897 13.1782 3.32153C13.4907 3.63409 13.6663 4.05801 13.6663 4.50004V4.57504C13.6674 4.8432 13.7469 5.10519 13.8949 5.32876C14.043 5.55234 14.2532 5.72774 14.4997 5.83337C14.751 5.9443 15.0298 5.97739 15.3002 5.92838C15.5705 5.87936 15.8199 5.75049 16.0163 5.55837L16.0663 5.50837C16.2211 5.35341 16.4049 5.23048 16.6073 5.14661C16.8096 5.06273 17.0265 5.01956 17.2455 5.01956C17.4645 5.01956 17.6814 5.06273 17.8837 5.14661C18.0861 5.23048 18.2699 5.35341 18.4247 5.50837C18.5796 5.66316 18.7026 5.84698 18.7864 6.04931C18.8703 6.25164 18.9135 6.46851 18.9135 6.68754C18.9135 6.90657 18.8703 7.12344 18.7864 7.32577C18.7026 7.5281 18.5796 7.71192 18.4247 7.86671L18.3747 7.91671C18.1826 8.11311 18.0537 8.36255 18.0047 8.63288C17.9557 8.90321 17.9887 9.18203 18.0997 9.43337V9.50004C18.2053 9.74651 18.3807 9.95672 18.6043 10.1048C18.8279 10.2528 19.0899 10.3323 19.358 10.3334H19.4997C19.9417 10.3334 20.3656 10.509 20.6782 10.8215C20.9907 11.1341 21.1663 11.558 21.1663 12C21.1663 12.4421 20.9907 12.866 20.6782 13.1786C20.3656 13.4911 19.9417 13.6667 19.4997 13.6667H19.4247C19.1565 13.6678 18.8945 13.7472 18.671 13.8953C18.4474 14.0434 18.272 14.2536 18.1663 14.5Z" stroke="#5D6679" stroke-width="1.2" stroke-linecap="round" stroke-linejoin="round"/>
</g>
<defs>
<clipPath id="clip0_2502_641">
<rect width="20" height="20" fill="white" transform="translate(2 2)"/>
</clipPath>
</defs>
</svg>
