<svg width="24" height="24" viewBox="0 0 24 24" fill="none" xmlns="http://www.w3.org/2000/svg">
<g id="Frame 10">
<g id="Group 14">
<path id="Vector" d="M11.0238 17.8547H9.64976C9.55821 17.8547 9.49707 17.9159 9.49707 18.0074C9.49707 18.099 9.55821 18.1601 9.64976 18.1601H11.0238C11.1154 18.1601 11.1765 18.099 11.1765 18.0074C11.1765 17.931 11.1003 17.8547 11.0238 17.8547Z" fill="#1570EF"/>
<g id="Group 51">
<path id="Vector_2" d="M19.6778 2.84641C19.228 2.39664 18.6305 2.1492 17.9939 2.1492L6.56664 2.14893C5.93011 2.14893 5.33285 2.39636 4.88276 2.84613C4.43298 3.29591 4.18555 3.89346 4.18555 4.53002V19.7678C4.18555 20.4044 4.43298 21.0016 4.88276 21.4517C5.33253 21.9015 5.93008 22.1489 6.56664 22.1489H17.9954C18.6319 22.1489 19.2291 21.9015 19.6792 21.4517C20.129 21.0019 20.3764 20.4044 20.3764 19.7678V4.53002C20.3753 3.89376 20.1279 3.29623 19.6781 2.84642L19.6778 2.84641ZM19.4234 19.7686C19.4234 20.5566 18.783 21.197 17.9951 21.197H6.56633C5.77836 21.197 5.13796 20.5566 5.13796 19.7686V4.53008C5.13796 3.74211 5.77839 3.10171 6.56633 3.10171H17.9951C18.783 3.10171 19.4234 3.74214 19.4234 4.53008V19.7686Z" fill="#1570EF"/>
<path id="Vector_3" d="M10.0389 10.86L8.47085 12.4284L7.85547 11.813C7.66982 11.6274 7.36756 11.6274 7.1822 11.813C6.99656 11.9987 6.99656 12.301 7.1822 12.4863L8.1349 13.439C8.2248 13.5289 8.34532 13.5787 8.47196 13.5787C8.59859 13.5787 8.71939 13.5289 8.80901 13.439L10.7141 11.5339C10.8998 11.3483 10.8998 11.046 10.7141 10.8606C10.5285 10.6747 10.2243 10.6736 10.0389 10.8601L10.0389 10.86Z" fill="#1570EF"/>
<path id="Vector_4" d="M10.0389 15.6211L8.47085 17.1892L7.85547 16.5738C7.66982 16.3882 7.36756 16.3882 7.1822 16.5738C6.99656 16.7595 6.99656 17.0617 7.1822 17.2471L8.1349 18.1998C8.2248 18.2897 8.34532 18.3395 8.47196 18.3395C8.59859 18.3395 8.71939 18.2897 8.80901 18.1998L10.7141 16.2947C10.8998 16.109 10.8998 15.8068 10.7141 15.6214C10.5285 15.4355 10.2243 15.4355 10.0389 15.6211L10.0389 15.6211Z" fill="#1570EF"/>
<path id="Vector_5" d="M10.0389 6.0977L8.47085 7.6658L7.85547 7.05043C7.66982 6.86478 7.36756 6.86478 7.1822 7.05043C6.99656 7.23607 6.99656 7.53833 7.1822 7.72369L8.1349 8.6764C8.2248 8.76629 8.34532 8.81611 8.47196 8.81611C8.59859 8.81611 8.71939 8.76629 8.80901 8.6764L10.7141 6.77128C10.8998 6.58563 10.8998 6.28337 10.7141 6.09801C10.5285 5.91236 10.2243 5.91236 10.0389 6.09773L10.0389 6.0977Z" fill="#1570EF"/>
<path id="Vector_6" d="M17.0428 11.6731H12.2806C12.0173 11.6731 11.8047 11.8866 11.8047 12.149C11.8047 12.4115 12.0182 12.625 12.2806 12.625H17.0428C17.3061 12.625 17.5187 12.4115 17.5187 12.149C17.5187 11.8857 17.3052 11.6731 17.0428 11.6731Z" fill="#1570EF"/>
<path id="Vector_7" d="M17.0428 17.3875H12.2806C12.0173 17.3875 11.8047 17.6009 11.8047 17.8634C11.8047 18.1259 12.0182 18.3393 12.2806 18.3393H17.0428C17.3061 18.3393 17.5187 18.1259 17.5187 17.8634C17.5187 17.6009 17.3052 17.3875 17.0428 17.3875Z" fill="#1570EF"/>
<path id="Vector_8" d="M17.0428 6.91064H12.2806C12.0173 6.91064 11.8047 7.12412 11.8047 7.38658C11.8047 7.64904 12.0182 7.86252 12.2806 7.86252H17.0428C17.3061 7.86252 17.5187 7.64904 17.5187 7.38658C17.5187 7.12412 17.3052 6.91064 17.0428 6.91064Z" fill="#1570EF"/>
</g>
<path id="Vector_9" d="M11.0238 18.9233H9.64976C9.55821 18.9233 9.49707 18.9845 9.49707 19.076C9.49707 19.1676 9.55821 19.2287 9.64976 19.2287H11.0238C11.1154 19.2287 11.1765 19.1676 11.1765 19.076C11.1765 18.9845 11.1003 18.9233 11.0238 18.9233Z" fill="#1570EF"/>
</g>
</g>
</svg>
